%TF.GenerationSoftware,KiCad,Pcbnew,(5.1.5)-3*%
%TF.CreationDate,2020-08-14T00:04:13+02:00*%
%TF.ProjectId,HorticultureSensor,486f7274-6963-4756-9c74-75726553656e,rev?*%
%TF.SameCoordinates,Original*%
%TF.FileFunction,Soldermask,Top*%
%TF.FilePolarity,Negative*%
%FSLAX46Y46*%
G04 Gerber Fmt 4.6, Leading zero omitted, Abs format (unit mm)*
G04 Created by KiCad (PCBNEW (5.1.5)-3) date 2020-08-14 00:04:13*
%MOMM*%
%LPD*%
G04 APERTURE LIST*
%ADD10O,1.800000X2.050000*%
%ADD11C,0.100000*%
%ADD12C,6.500000*%
%ADD13R,1.000000X0.900000*%
%ADD14R,1.550000X0.550000*%
%ADD15R,0.900000X1.000000*%
%ADD16C,1.300000*%
%ADD17O,2.100000X1.800000*%
%ADD18R,0.500000X0.700000*%
%ADD19R,1.700000X0.800000*%
%ADD20O,1.800000X2.100000*%
%ADD21R,2.500000X0.840000*%
G04 APERTURE END LIST*
D10*
%TO.C,J5*%
X178300000Y-129075000D03*
X175800000Y-129075000D03*
D11*
G36*
X173961240Y-128051275D02*
G01*
X173986936Y-128055086D01*
X174012134Y-128061398D01*
X174036593Y-128070150D01*
X174060076Y-128081256D01*
X174082357Y-128094611D01*
X174103222Y-128110085D01*
X174122469Y-128127531D01*
X174139915Y-128146778D01*
X174155389Y-128167643D01*
X174168744Y-128189924D01*
X174179850Y-128213407D01*
X174188602Y-128237866D01*
X174194914Y-128263064D01*
X174198725Y-128288760D01*
X174200000Y-128314706D01*
X174200000Y-129835294D01*
X174198725Y-129861240D01*
X174194914Y-129886936D01*
X174188602Y-129912134D01*
X174179850Y-129936593D01*
X174168744Y-129960076D01*
X174155389Y-129982357D01*
X174139915Y-130003222D01*
X174122469Y-130022469D01*
X174103222Y-130039915D01*
X174082357Y-130055389D01*
X174060076Y-130068744D01*
X174036593Y-130079850D01*
X174012134Y-130088602D01*
X173986936Y-130094914D01*
X173961240Y-130098725D01*
X173935294Y-130100000D01*
X172664706Y-130100000D01*
X172638760Y-130098725D01*
X172613064Y-130094914D01*
X172587866Y-130088602D01*
X172563407Y-130079850D01*
X172539924Y-130068744D01*
X172517643Y-130055389D01*
X172496778Y-130039915D01*
X172477531Y-130022469D01*
X172460085Y-130003222D01*
X172444611Y-129982357D01*
X172431256Y-129960076D01*
X172420150Y-129936593D01*
X172411398Y-129912134D01*
X172405086Y-129886936D01*
X172401275Y-129861240D01*
X172400000Y-129835294D01*
X172400000Y-128314706D01*
X172401275Y-128288760D01*
X172405086Y-128263064D01*
X172411398Y-128237866D01*
X172420150Y-128213407D01*
X172431256Y-128189924D01*
X172444611Y-128167643D01*
X172460085Y-128146778D01*
X172477531Y-128127531D01*
X172496778Y-128110085D01*
X172517643Y-128094611D01*
X172539924Y-128081256D01*
X172563407Y-128070150D01*
X172587866Y-128061398D01*
X172613064Y-128055086D01*
X172638760Y-128051275D01*
X172664706Y-128050000D01*
X173935294Y-128050000D01*
X173961240Y-128051275D01*
G37*
%TD*%
D10*
%TO.C,J3*%
X178300000Y-136200000D03*
X175800000Y-136200000D03*
D11*
G36*
X173961240Y-135176275D02*
G01*
X173986936Y-135180086D01*
X174012134Y-135186398D01*
X174036593Y-135195150D01*
X174060076Y-135206256D01*
X174082357Y-135219611D01*
X174103222Y-135235085D01*
X174122469Y-135252531D01*
X174139915Y-135271778D01*
X174155389Y-135292643D01*
X174168744Y-135314924D01*
X174179850Y-135338407D01*
X174188602Y-135362866D01*
X174194914Y-135388064D01*
X174198725Y-135413760D01*
X174200000Y-135439706D01*
X174200000Y-136960294D01*
X174198725Y-136986240D01*
X174194914Y-137011936D01*
X174188602Y-137037134D01*
X174179850Y-137061593D01*
X174168744Y-137085076D01*
X174155389Y-137107357D01*
X174139915Y-137128222D01*
X174122469Y-137147469D01*
X174103222Y-137164915D01*
X174082357Y-137180389D01*
X174060076Y-137193744D01*
X174036593Y-137204850D01*
X174012134Y-137213602D01*
X173986936Y-137219914D01*
X173961240Y-137223725D01*
X173935294Y-137225000D01*
X172664706Y-137225000D01*
X172638760Y-137223725D01*
X172613064Y-137219914D01*
X172587866Y-137213602D01*
X172563407Y-137204850D01*
X172539924Y-137193744D01*
X172517643Y-137180389D01*
X172496778Y-137164915D01*
X172477531Y-137147469D01*
X172460085Y-137128222D01*
X172444611Y-137107357D01*
X172431256Y-137085076D01*
X172420150Y-137061593D01*
X172411398Y-137037134D01*
X172405086Y-137011936D01*
X172401275Y-136986240D01*
X172400000Y-136960294D01*
X172400000Y-135439706D01*
X172401275Y-135413760D01*
X172405086Y-135388064D01*
X172411398Y-135362866D01*
X172420150Y-135338407D01*
X172431256Y-135314924D01*
X172444611Y-135292643D01*
X172460085Y-135271778D01*
X172477531Y-135252531D01*
X172496778Y-135235085D01*
X172517643Y-135219611D01*
X172539924Y-135206256D01*
X172563407Y-135195150D01*
X172587866Y-135186398D01*
X172613064Y-135180086D01*
X172638760Y-135176275D01*
X172664706Y-135175000D01*
X173935294Y-135175000D01*
X173961240Y-135176275D01*
G37*
%TD*%
D10*
%TO.C,J4*%
X162900000Y-137475000D03*
X160400000Y-137475000D03*
X157900000Y-137475000D03*
D11*
G36*
X156061240Y-136451275D02*
G01*
X156086936Y-136455086D01*
X156112134Y-136461398D01*
X156136593Y-136470150D01*
X156160076Y-136481256D01*
X156182357Y-136494611D01*
X156203222Y-136510085D01*
X156222469Y-136527531D01*
X156239915Y-136546778D01*
X156255389Y-136567643D01*
X156268744Y-136589924D01*
X156279850Y-136613407D01*
X156288602Y-136637866D01*
X156294914Y-136663064D01*
X156298725Y-136688760D01*
X156300000Y-136714706D01*
X156300000Y-138235294D01*
X156298725Y-138261240D01*
X156294914Y-138286936D01*
X156288602Y-138312134D01*
X156279850Y-138336593D01*
X156268744Y-138360076D01*
X156255389Y-138382357D01*
X156239915Y-138403222D01*
X156222469Y-138422469D01*
X156203222Y-138439915D01*
X156182357Y-138455389D01*
X156160076Y-138468744D01*
X156136593Y-138479850D01*
X156112134Y-138488602D01*
X156086936Y-138494914D01*
X156061240Y-138498725D01*
X156035294Y-138500000D01*
X154764706Y-138500000D01*
X154738760Y-138498725D01*
X154713064Y-138494914D01*
X154687866Y-138488602D01*
X154663407Y-138479850D01*
X154639924Y-138468744D01*
X154617643Y-138455389D01*
X154596778Y-138439915D01*
X154577531Y-138422469D01*
X154560085Y-138403222D01*
X154544611Y-138382357D01*
X154531256Y-138360076D01*
X154520150Y-138336593D01*
X154511398Y-138312134D01*
X154505086Y-138286936D01*
X154501275Y-138261240D01*
X154500000Y-138235294D01*
X154500000Y-136714706D01*
X154501275Y-136688760D01*
X154505086Y-136663064D01*
X154511398Y-136637866D01*
X154520150Y-136613407D01*
X154531256Y-136589924D01*
X154544611Y-136567643D01*
X154560085Y-136546778D01*
X154577531Y-136527531D01*
X154596778Y-136510085D01*
X154617643Y-136494611D01*
X154639924Y-136481256D01*
X154663407Y-136470150D01*
X154687866Y-136461398D01*
X154713064Y-136455086D01*
X154738760Y-136451275D01*
X154764706Y-136450000D01*
X156035294Y-136450000D01*
X156061240Y-136451275D01*
G37*
%TD*%
D10*
%TO.C,J1*%
X154900000Y-119325000D03*
X157400000Y-119325000D03*
X159900000Y-119325000D03*
D11*
G36*
X163061240Y-118301275D02*
G01*
X163086936Y-118305086D01*
X163112134Y-118311398D01*
X163136593Y-118320150D01*
X163160076Y-118331256D01*
X163182357Y-118344611D01*
X163203222Y-118360085D01*
X163222469Y-118377531D01*
X163239915Y-118396778D01*
X163255389Y-118417643D01*
X163268744Y-118439924D01*
X163279850Y-118463407D01*
X163288602Y-118487866D01*
X163294914Y-118513064D01*
X163298725Y-118538760D01*
X163300000Y-118564706D01*
X163300000Y-120085294D01*
X163298725Y-120111240D01*
X163294914Y-120136936D01*
X163288602Y-120162134D01*
X163279850Y-120186593D01*
X163268744Y-120210076D01*
X163255389Y-120232357D01*
X163239915Y-120253222D01*
X163222469Y-120272469D01*
X163203222Y-120289915D01*
X163182357Y-120305389D01*
X163160076Y-120318744D01*
X163136593Y-120329850D01*
X163112134Y-120338602D01*
X163086936Y-120344914D01*
X163061240Y-120348725D01*
X163035294Y-120350000D01*
X161764706Y-120350000D01*
X161738760Y-120348725D01*
X161713064Y-120344914D01*
X161687866Y-120338602D01*
X161663407Y-120329850D01*
X161639924Y-120318744D01*
X161617643Y-120305389D01*
X161596778Y-120289915D01*
X161577531Y-120272469D01*
X161560085Y-120253222D01*
X161544611Y-120232357D01*
X161531256Y-120210076D01*
X161520150Y-120186593D01*
X161511398Y-120162134D01*
X161505086Y-120136936D01*
X161501275Y-120111240D01*
X161500000Y-120085294D01*
X161500000Y-118564706D01*
X161501275Y-118538760D01*
X161505086Y-118513064D01*
X161511398Y-118487866D01*
X161520150Y-118463407D01*
X161531256Y-118439924D01*
X161544611Y-118417643D01*
X161560085Y-118396778D01*
X161577531Y-118377531D01*
X161596778Y-118360085D01*
X161617643Y-118344611D01*
X161639924Y-118331256D01*
X161663407Y-118320150D01*
X161687866Y-118311398D01*
X161713064Y-118305086D01*
X161738760Y-118301275D01*
X161764706Y-118300000D01*
X163035294Y-118300000D01*
X163061240Y-118301275D01*
G37*
%TD*%
D12*
%TO.C,H2*%
X147750000Y-141775000D03*
%TD*%
%TO.C,H1*%
X148075000Y-116025000D03*
%TD*%
D13*
%TO.C,U3*%
X178675000Y-116325000D03*
X176675000Y-117275000D03*
X176675000Y-115375000D03*
%TD*%
D14*
%TO.C,U1*%
X153525000Y-131675000D03*
X153525000Y-131025000D03*
X153525000Y-130375000D03*
X153525000Y-129725000D03*
X153525000Y-129075000D03*
X153525000Y-128425000D03*
X153525000Y-127775000D03*
X153525000Y-127125000D03*
X153525000Y-126475000D03*
X153525000Y-125825000D03*
X159425000Y-125825000D03*
X159425000Y-126475000D03*
X159425000Y-127125000D03*
X159425000Y-127775000D03*
X159425000Y-128425000D03*
X159425000Y-129075000D03*
X159425000Y-129725000D03*
X159425000Y-130375000D03*
X159425000Y-131025000D03*
X159425000Y-131675000D03*
%TD*%
D15*
%TO.C,Q2*%
X187283740Y-137783380D03*
X186333740Y-135783380D03*
X188233740Y-135783380D03*
%TD*%
%TO.C,Q1*%
X184950560Y-119044500D03*
X185900560Y-121044500D03*
X184000560Y-121044500D03*
%TD*%
D16*
%TO.C,J8*%
X185625000Y-123675000D03*
D17*
X187625000Y-127775000D03*
D11*
G36*
X188436240Y-124376275D02*
G01*
X188461936Y-124380086D01*
X188487134Y-124386398D01*
X188511593Y-124395150D01*
X188535076Y-124406256D01*
X188557357Y-124419611D01*
X188578222Y-124435085D01*
X188597469Y-124452531D01*
X188614915Y-124471778D01*
X188630389Y-124492643D01*
X188643744Y-124514924D01*
X188654850Y-124538407D01*
X188663602Y-124562866D01*
X188669914Y-124588064D01*
X188673725Y-124613760D01*
X188675000Y-124639706D01*
X188675000Y-125910294D01*
X188673725Y-125936240D01*
X188669914Y-125961936D01*
X188663602Y-125987134D01*
X188654850Y-126011593D01*
X188643744Y-126035076D01*
X188630389Y-126057357D01*
X188614915Y-126078222D01*
X188597469Y-126097469D01*
X188578222Y-126114915D01*
X188557357Y-126130389D01*
X188535076Y-126143744D01*
X188511593Y-126154850D01*
X188487134Y-126163602D01*
X188461936Y-126169914D01*
X188436240Y-126173725D01*
X188410294Y-126175000D01*
X186839706Y-126175000D01*
X186813760Y-126173725D01*
X186788064Y-126169914D01*
X186762866Y-126163602D01*
X186738407Y-126154850D01*
X186714924Y-126143744D01*
X186692643Y-126130389D01*
X186671778Y-126114915D01*
X186652531Y-126097469D01*
X186635085Y-126078222D01*
X186619611Y-126057357D01*
X186606256Y-126035076D01*
X186595150Y-126011593D01*
X186586398Y-125987134D01*
X186580086Y-125961936D01*
X186576275Y-125936240D01*
X186575000Y-125910294D01*
X186575000Y-124639706D01*
X186576275Y-124613760D01*
X186580086Y-124588064D01*
X186586398Y-124562866D01*
X186595150Y-124538407D01*
X186606256Y-124514924D01*
X186619611Y-124492643D01*
X186635085Y-124471778D01*
X186652531Y-124452531D01*
X186671778Y-124435085D01*
X186692643Y-124419611D01*
X186714924Y-124406256D01*
X186738407Y-124395150D01*
X186762866Y-124386398D01*
X186788064Y-124380086D01*
X186813760Y-124376275D01*
X186839706Y-124375000D01*
X188410294Y-124375000D01*
X188436240Y-124376275D01*
G37*
%TD*%
D18*
%TO.C,U2*%
X167875000Y-142975000D03*
X168825000Y-141075000D03*
X167875000Y-141075000D03*
X168825000Y-142975000D03*
D19*
X168350000Y-142025000D03*
%TD*%
D11*
%TO.C,R2*%
G36*
X187607592Y-131451294D02*
G01*
X187633681Y-131455164D01*
X187659264Y-131461572D01*
X187684096Y-131470457D01*
X187707938Y-131481734D01*
X187730560Y-131495293D01*
X187751743Y-131511003D01*
X187771285Y-131528715D01*
X187788997Y-131548257D01*
X187804707Y-131569440D01*
X187818266Y-131592062D01*
X187829543Y-131615904D01*
X187838428Y-131640736D01*
X187844836Y-131666319D01*
X187848706Y-131692408D01*
X187850000Y-131718750D01*
X187850000Y-132256250D01*
X187848706Y-132282592D01*
X187844836Y-132308681D01*
X187838428Y-132334264D01*
X187829543Y-132359096D01*
X187818266Y-132382938D01*
X187804707Y-132405560D01*
X187788997Y-132426743D01*
X187771285Y-132446285D01*
X187751743Y-132463997D01*
X187730560Y-132479707D01*
X187707938Y-132493266D01*
X187684096Y-132504543D01*
X187659264Y-132513428D01*
X187633681Y-132519836D01*
X187607592Y-132523706D01*
X187581250Y-132525000D01*
X186618750Y-132525000D01*
X186592408Y-132523706D01*
X186566319Y-132519836D01*
X186540736Y-132513428D01*
X186515904Y-132504543D01*
X186492062Y-132493266D01*
X186469440Y-132479707D01*
X186448257Y-132463997D01*
X186428715Y-132446285D01*
X186411003Y-132426743D01*
X186395293Y-132405560D01*
X186381734Y-132382938D01*
X186370457Y-132359096D01*
X186361572Y-132334264D01*
X186355164Y-132308681D01*
X186351294Y-132282592D01*
X186350000Y-132256250D01*
X186350000Y-131718750D01*
X186351294Y-131692408D01*
X186355164Y-131666319D01*
X186361572Y-131640736D01*
X186370457Y-131615904D01*
X186381734Y-131592062D01*
X186395293Y-131569440D01*
X186411003Y-131548257D01*
X186428715Y-131528715D01*
X186448257Y-131511003D01*
X186469440Y-131495293D01*
X186492062Y-131481734D01*
X186515904Y-131470457D01*
X186540736Y-131461572D01*
X186566319Y-131455164D01*
X186592408Y-131451294D01*
X186618750Y-131450000D01*
X187581250Y-131450000D01*
X187607592Y-131451294D01*
G37*
G36*
X187607592Y-133326294D02*
G01*
X187633681Y-133330164D01*
X187659264Y-133336572D01*
X187684096Y-133345457D01*
X187707938Y-133356734D01*
X187730560Y-133370293D01*
X187751743Y-133386003D01*
X187771285Y-133403715D01*
X187788997Y-133423257D01*
X187804707Y-133444440D01*
X187818266Y-133467062D01*
X187829543Y-133490904D01*
X187838428Y-133515736D01*
X187844836Y-133541319D01*
X187848706Y-133567408D01*
X187850000Y-133593750D01*
X187850000Y-134131250D01*
X187848706Y-134157592D01*
X187844836Y-134183681D01*
X187838428Y-134209264D01*
X187829543Y-134234096D01*
X187818266Y-134257938D01*
X187804707Y-134280560D01*
X187788997Y-134301743D01*
X187771285Y-134321285D01*
X187751743Y-134338997D01*
X187730560Y-134354707D01*
X187707938Y-134368266D01*
X187684096Y-134379543D01*
X187659264Y-134388428D01*
X187633681Y-134394836D01*
X187607592Y-134398706D01*
X187581250Y-134400000D01*
X186618750Y-134400000D01*
X186592408Y-134398706D01*
X186566319Y-134394836D01*
X186540736Y-134388428D01*
X186515904Y-134379543D01*
X186492062Y-134368266D01*
X186469440Y-134354707D01*
X186448257Y-134338997D01*
X186428715Y-134321285D01*
X186411003Y-134301743D01*
X186395293Y-134280560D01*
X186381734Y-134257938D01*
X186370457Y-134234096D01*
X186361572Y-134209264D01*
X186355164Y-134183681D01*
X186351294Y-134157592D01*
X186350000Y-134131250D01*
X186350000Y-133593750D01*
X186351294Y-133567408D01*
X186355164Y-133541319D01*
X186361572Y-133515736D01*
X186370457Y-133490904D01*
X186381734Y-133467062D01*
X186395293Y-133444440D01*
X186411003Y-133423257D01*
X186428715Y-133403715D01*
X186448257Y-133386003D01*
X186469440Y-133370293D01*
X186492062Y-133356734D01*
X186515904Y-133345457D01*
X186540736Y-133336572D01*
X186566319Y-133330164D01*
X186592408Y-133326294D01*
X186618750Y-133325000D01*
X187581250Y-133325000D01*
X187607592Y-133326294D01*
G37*
%TD*%
%TO.C,R1*%
G36*
X182207592Y-122376294D02*
G01*
X182233681Y-122380164D01*
X182259264Y-122386572D01*
X182284096Y-122395457D01*
X182307938Y-122406734D01*
X182330560Y-122420293D01*
X182351743Y-122436003D01*
X182371285Y-122453715D01*
X182388997Y-122473257D01*
X182404707Y-122494440D01*
X182418266Y-122517062D01*
X182429543Y-122540904D01*
X182438428Y-122565736D01*
X182444836Y-122591319D01*
X182448706Y-122617408D01*
X182450000Y-122643750D01*
X182450000Y-123181250D01*
X182448706Y-123207592D01*
X182444836Y-123233681D01*
X182438428Y-123259264D01*
X182429543Y-123284096D01*
X182418266Y-123307938D01*
X182404707Y-123330560D01*
X182388997Y-123351743D01*
X182371285Y-123371285D01*
X182351743Y-123388997D01*
X182330560Y-123404707D01*
X182307938Y-123418266D01*
X182284096Y-123429543D01*
X182259264Y-123438428D01*
X182233681Y-123444836D01*
X182207592Y-123448706D01*
X182181250Y-123450000D01*
X181218750Y-123450000D01*
X181192408Y-123448706D01*
X181166319Y-123444836D01*
X181140736Y-123438428D01*
X181115904Y-123429543D01*
X181092062Y-123418266D01*
X181069440Y-123404707D01*
X181048257Y-123388997D01*
X181028715Y-123371285D01*
X181011003Y-123351743D01*
X180995293Y-123330560D01*
X180981734Y-123307938D01*
X180970457Y-123284096D01*
X180961572Y-123259264D01*
X180955164Y-123233681D01*
X180951294Y-123207592D01*
X180950000Y-123181250D01*
X180950000Y-122643750D01*
X180951294Y-122617408D01*
X180955164Y-122591319D01*
X180961572Y-122565736D01*
X180970457Y-122540904D01*
X180981734Y-122517062D01*
X180995293Y-122494440D01*
X181011003Y-122473257D01*
X181028715Y-122453715D01*
X181048257Y-122436003D01*
X181069440Y-122420293D01*
X181092062Y-122406734D01*
X181115904Y-122395457D01*
X181140736Y-122386572D01*
X181166319Y-122380164D01*
X181192408Y-122376294D01*
X181218750Y-122375000D01*
X182181250Y-122375000D01*
X182207592Y-122376294D01*
G37*
G36*
X182207592Y-120501294D02*
G01*
X182233681Y-120505164D01*
X182259264Y-120511572D01*
X182284096Y-120520457D01*
X182307938Y-120531734D01*
X182330560Y-120545293D01*
X182351743Y-120561003D01*
X182371285Y-120578715D01*
X182388997Y-120598257D01*
X182404707Y-120619440D01*
X182418266Y-120642062D01*
X182429543Y-120665904D01*
X182438428Y-120690736D01*
X182444836Y-120716319D01*
X182448706Y-120742408D01*
X182450000Y-120768750D01*
X182450000Y-121306250D01*
X182448706Y-121332592D01*
X182444836Y-121358681D01*
X182438428Y-121384264D01*
X182429543Y-121409096D01*
X182418266Y-121432938D01*
X182404707Y-121455560D01*
X182388997Y-121476743D01*
X182371285Y-121496285D01*
X182351743Y-121513997D01*
X182330560Y-121529707D01*
X182307938Y-121543266D01*
X182284096Y-121554543D01*
X182259264Y-121563428D01*
X182233681Y-121569836D01*
X182207592Y-121573706D01*
X182181250Y-121575000D01*
X181218750Y-121575000D01*
X181192408Y-121573706D01*
X181166319Y-121569836D01*
X181140736Y-121563428D01*
X181115904Y-121554543D01*
X181092062Y-121543266D01*
X181069440Y-121529707D01*
X181048257Y-121513997D01*
X181028715Y-121496285D01*
X181011003Y-121476743D01*
X180995293Y-121455560D01*
X180981734Y-121432938D01*
X180970457Y-121409096D01*
X180961572Y-121384264D01*
X180955164Y-121358681D01*
X180951294Y-121332592D01*
X180950000Y-121306250D01*
X180950000Y-120768750D01*
X180951294Y-120742408D01*
X180955164Y-120716319D01*
X180961572Y-120690736D01*
X180970457Y-120665904D01*
X180981734Y-120642062D01*
X180995293Y-120619440D01*
X181011003Y-120598257D01*
X181028715Y-120578715D01*
X181048257Y-120561003D01*
X181069440Y-120545293D01*
X181092062Y-120531734D01*
X181115904Y-120520457D01*
X181140736Y-120511572D01*
X181166319Y-120505164D01*
X181192408Y-120501294D01*
X181218750Y-120500000D01*
X182181250Y-120500000D01*
X182207592Y-120501294D01*
G37*
%TD*%
%TO.C,JP5*%
G36*
X147542529Y-132874398D02*
G01*
X147524106Y-132874398D01*
X147519205Y-132874157D01*
X147470374Y-132869347D01*
X147465521Y-132868627D01*
X147417396Y-132859055D01*
X147412635Y-132857863D01*
X147365680Y-132843619D01*
X147361061Y-132841966D01*
X147315728Y-132823189D01*
X147311291Y-132821091D01*
X147268018Y-132797960D01*
X147263811Y-132795438D01*
X147223012Y-132768178D01*
X147219070Y-132765254D01*
X147181141Y-132734126D01*
X147177506Y-132730831D01*
X147142809Y-132696134D01*
X147139514Y-132692499D01*
X147108386Y-132654570D01*
X147105462Y-132650628D01*
X147078202Y-132609829D01*
X147075680Y-132605622D01*
X147052549Y-132562349D01*
X147050451Y-132557912D01*
X147031674Y-132512579D01*
X147030021Y-132507960D01*
X147015777Y-132461005D01*
X147014585Y-132456244D01*
X147005013Y-132408119D01*
X147004293Y-132403266D01*
X146999483Y-132354435D01*
X146999242Y-132349534D01*
X146999242Y-132331111D01*
X146998640Y-132325000D01*
X146998640Y-131825000D01*
X146999242Y-131818889D01*
X146999242Y-131800466D01*
X146999483Y-131795565D01*
X147004293Y-131746734D01*
X147005013Y-131741881D01*
X147014585Y-131693756D01*
X147015777Y-131688995D01*
X147030021Y-131642040D01*
X147031674Y-131637421D01*
X147050451Y-131592088D01*
X147052549Y-131587651D01*
X147075680Y-131544378D01*
X147078202Y-131540171D01*
X147105462Y-131499372D01*
X147108386Y-131495430D01*
X147139514Y-131457501D01*
X147142809Y-131453866D01*
X147177506Y-131419169D01*
X147181141Y-131415874D01*
X147219070Y-131384746D01*
X147223012Y-131381822D01*
X147263811Y-131354562D01*
X147268018Y-131352040D01*
X147311291Y-131328909D01*
X147315728Y-131326811D01*
X147361061Y-131308034D01*
X147365680Y-131306381D01*
X147412635Y-131292137D01*
X147417396Y-131290945D01*
X147465521Y-131281373D01*
X147470374Y-131280653D01*
X147519205Y-131275843D01*
X147524106Y-131275602D01*
X147542529Y-131275602D01*
X147548640Y-131275000D01*
X148048640Y-131275000D01*
X148058395Y-131275961D01*
X148067774Y-131278806D01*
X148076419Y-131283427D01*
X148083995Y-131289645D01*
X148090213Y-131297221D01*
X148094834Y-131305866D01*
X148097679Y-131315245D01*
X148098640Y-131325000D01*
X148098640Y-132825000D01*
X148097679Y-132834755D01*
X148094834Y-132844134D01*
X148090213Y-132852779D01*
X148083995Y-132860355D01*
X148076419Y-132866573D01*
X148067774Y-132871194D01*
X148058395Y-132874039D01*
X148048640Y-132875000D01*
X147548640Y-132875000D01*
X147542529Y-132874398D01*
G37*
G36*
X148338885Y-132874039D02*
G01*
X148329506Y-132871194D01*
X148320861Y-132866573D01*
X148313285Y-132860355D01*
X148307067Y-132852779D01*
X148302446Y-132844134D01*
X148299601Y-132834755D01*
X148298640Y-132825000D01*
X148298640Y-131325000D01*
X148299601Y-131315245D01*
X148302446Y-131305866D01*
X148307067Y-131297221D01*
X148313285Y-131289645D01*
X148320861Y-131283427D01*
X148329506Y-131278806D01*
X148338885Y-131275961D01*
X148348640Y-131275000D01*
X148848640Y-131275000D01*
X148854751Y-131275602D01*
X148873174Y-131275602D01*
X148878075Y-131275843D01*
X148926906Y-131280653D01*
X148931759Y-131281373D01*
X148979884Y-131290945D01*
X148984645Y-131292137D01*
X149031600Y-131306381D01*
X149036219Y-131308034D01*
X149081552Y-131326811D01*
X149085989Y-131328909D01*
X149129262Y-131352040D01*
X149133469Y-131354562D01*
X149174268Y-131381822D01*
X149178210Y-131384746D01*
X149216139Y-131415874D01*
X149219774Y-131419169D01*
X149254471Y-131453866D01*
X149257766Y-131457501D01*
X149288894Y-131495430D01*
X149291818Y-131499372D01*
X149319078Y-131540171D01*
X149321600Y-131544378D01*
X149344731Y-131587651D01*
X149346829Y-131592088D01*
X149365606Y-131637421D01*
X149367259Y-131642040D01*
X149381503Y-131688995D01*
X149382695Y-131693756D01*
X149392267Y-131741881D01*
X149392987Y-131746734D01*
X149397797Y-131795565D01*
X149398038Y-131800466D01*
X149398038Y-131818889D01*
X149398640Y-131825000D01*
X149398640Y-132325000D01*
X149398038Y-132331111D01*
X149398038Y-132349534D01*
X149397797Y-132354435D01*
X149392987Y-132403266D01*
X149392267Y-132408119D01*
X149382695Y-132456244D01*
X149381503Y-132461005D01*
X149367259Y-132507960D01*
X149365606Y-132512579D01*
X149346829Y-132557912D01*
X149344731Y-132562349D01*
X149321600Y-132605622D01*
X149319078Y-132609829D01*
X149291818Y-132650628D01*
X149288894Y-132654570D01*
X149257766Y-132692499D01*
X149254471Y-132696134D01*
X149219774Y-132730831D01*
X149216139Y-132734126D01*
X149178210Y-132765254D01*
X149174268Y-132768178D01*
X149133469Y-132795438D01*
X149129262Y-132797960D01*
X149085989Y-132821091D01*
X149081552Y-132823189D01*
X149036219Y-132841966D01*
X149031600Y-132843619D01*
X148984645Y-132857863D01*
X148979884Y-132859055D01*
X148931759Y-132868627D01*
X148926906Y-132869347D01*
X148878075Y-132874157D01*
X148873174Y-132874398D01*
X148854751Y-132874398D01*
X148848640Y-132875000D01*
X148348640Y-132875000D01*
X148338885Y-132874039D01*
G37*
%TD*%
%TO.C,JP4*%
G36*
X147542529Y-130299398D02*
G01*
X147524106Y-130299398D01*
X147519205Y-130299157D01*
X147470374Y-130294347D01*
X147465521Y-130293627D01*
X147417396Y-130284055D01*
X147412635Y-130282863D01*
X147365680Y-130268619D01*
X147361061Y-130266966D01*
X147315728Y-130248189D01*
X147311291Y-130246091D01*
X147268018Y-130222960D01*
X147263811Y-130220438D01*
X147223012Y-130193178D01*
X147219070Y-130190254D01*
X147181141Y-130159126D01*
X147177506Y-130155831D01*
X147142809Y-130121134D01*
X147139514Y-130117499D01*
X147108386Y-130079570D01*
X147105462Y-130075628D01*
X147078202Y-130034829D01*
X147075680Y-130030622D01*
X147052549Y-129987349D01*
X147050451Y-129982912D01*
X147031674Y-129937579D01*
X147030021Y-129932960D01*
X147015777Y-129886005D01*
X147014585Y-129881244D01*
X147005013Y-129833119D01*
X147004293Y-129828266D01*
X146999483Y-129779435D01*
X146999242Y-129774534D01*
X146999242Y-129756111D01*
X146998640Y-129750000D01*
X146998640Y-129250000D01*
X146999242Y-129243889D01*
X146999242Y-129225466D01*
X146999483Y-129220565D01*
X147004293Y-129171734D01*
X147005013Y-129166881D01*
X147014585Y-129118756D01*
X147015777Y-129113995D01*
X147030021Y-129067040D01*
X147031674Y-129062421D01*
X147050451Y-129017088D01*
X147052549Y-129012651D01*
X147075680Y-128969378D01*
X147078202Y-128965171D01*
X147105462Y-128924372D01*
X147108386Y-128920430D01*
X147139514Y-128882501D01*
X147142809Y-128878866D01*
X147177506Y-128844169D01*
X147181141Y-128840874D01*
X147219070Y-128809746D01*
X147223012Y-128806822D01*
X147263811Y-128779562D01*
X147268018Y-128777040D01*
X147311291Y-128753909D01*
X147315728Y-128751811D01*
X147361061Y-128733034D01*
X147365680Y-128731381D01*
X147412635Y-128717137D01*
X147417396Y-128715945D01*
X147465521Y-128706373D01*
X147470374Y-128705653D01*
X147519205Y-128700843D01*
X147524106Y-128700602D01*
X147542529Y-128700602D01*
X147548640Y-128700000D01*
X148048640Y-128700000D01*
X148058395Y-128700961D01*
X148067774Y-128703806D01*
X148076419Y-128708427D01*
X148083995Y-128714645D01*
X148090213Y-128722221D01*
X148094834Y-128730866D01*
X148097679Y-128740245D01*
X148098640Y-128750000D01*
X148098640Y-130250000D01*
X148097679Y-130259755D01*
X148094834Y-130269134D01*
X148090213Y-130277779D01*
X148083995Y-130285355D01*
X148076419Y-130291573D01*
X148067774Y-130296194D01*
X148058395Y-130299039D01*
X148048640Y-130300000D01*
X147548640Y-130300000D01*
X147542529Y-130299398D01*
G37*
G36*
X148338885Y-130299039D02*
G01*
X148329506Y-130296194D01*
X148320861Y-130291573D01*
X148313285Y-130285355D01*
X148307067Y-130277779D01*
X148302446Y-130269134D01*
X148299601Y-130259755D01*
X148298640Y-130250000D01*
X148298640Y-128750000D01*
X148299601Y-128740245D01*
X148302446Y-128730866D01*
X148307067Y-128722221D01*
X148313285Y-128714645D01*
X148320861Y-128708427D01*
X148329506Y-128703806D01*
X148338885Y-128700961D01*
X148348640Y-128700000D01*
X148848640Y-128700000D01*
X148854751Y-128700602D01*
X148873174Y-128700602D01*
X148878075Y-128700843D01*
X148926906Y-128705653D01*
X148931759Y-128706373D01*
X148979884Y-128715945D01*
X148984645Y-128717137D01*
X149031600Y-128731381D01*
X149036219Y-128733034D01*
X149081552Y-128751811D01*
X149085989Y-128753909D01*
X149129262Y-128777040D01*
X149133469Y-128779562D01*
X149174268Y-128806822D01*
X149178210Y-128809746D01*
X149216139Y-128840874D01*
X149219774Y-128844169D01*
X149254471Y-128878866D01*
X149257766Y-128882501D01*
X149288894Y-128920430D01*
X149291818Y-128924372D01*
X149319078Y-128965171D01*
X149321600Y-128969378D01*
X149344731Y-129012651D01*
X149346829Y-129017088D01*
X149365606Y-129062421D01*
X149367259Y-129067040D01*
X149381503Y-129113995D01*
X149382695Y-129118756D01*
X149392267Y-129166881D01*
X149392987Y-129171734D01*
X149397797Y-129220565D01*
X149398038Y-129225466D01*
X149398038Y-129243889D01*
X149398640Y-129250000D01*
X149398640Y-129750000D01*
X149398038Y-129756111D01*
X149398038Y-129774534D01*
X149397797Y-129779435D01*
X149392987Y-129828266D01*
X149392267Y-129833119D01*
X149382695Y-129881244D01*
X149381503Y-129886005D01*
X149367259Y-129932960D01*
X149365606Y-129937579D01*
X149346829Y-129982912D01*
X149344731Y-129987349D01*
X149321600Y-130030622D01*
X149319078Y-130034829D01*
X149291818Y-130075628D01*
X149288894Y-130079570D01*
X149257766Y-130117499D01*
X149254471Y-130121134D01*
X149219774Y-130155831D01*
X149216139Y-130159126D01*
X149178210Y-130190254D01*
X149174268Y-130193178D01*
X149133469Y-130220438D01*
X149129262Y-130222960D01*
X149085989Y-130246091D01*
X149081552Y-130248189D01*
X149036219Y-130266966D01*
X149031600Y-130268619D01*
X148984645Y-130282863D01*
X148979884Y-130284055D01*
X148931759Y-130293627D01*
X148926906Y-130294347D01*
X148878075Y-130299157D01*
X148873174Y-130299398D01*
X148854751Y-130299398D01*
X148848640Y-130300000D01*
X148348640Y-130300000D01*
X148338885Y-130299039D01*
G37*
%TD*%
%TO.C,JP3*%
G36*
X147542529Y-127724398D02*
G01*
X147524106Y-127724398D01*
X147519205Y-127724157D01*
X147470374Y-127719347D01*
X147465521Y-127718627D01*
X147417396Y-127709055D01*
X147412635Y-127707863D01*
X147365680Y-127693619D01*
X147361061Y-127691966D01*
X147315728Y-127673189D01*
X147311291Y-127671091D01*
X147268018Y-127647960D01*
X147263811Y-127645438D01*
X147223012Y-127618178D01*
X147219070Y-127615254D01*
X147181141Y-127584126D01*
X147177506Y-127580831D01*
X147142809Y-127546134D01*
X147139514Y-127542499D01*
X147108386Y-127504570D01*
X147105462Y-127500628D01*
X147078202Y-127459829D01*
X147075680Y-127455622D01*
X147052549Y-127412349D01*
X147050451Y-127407912D01*
X147031674Y-127362579D01*
X147030021Y-127357960D01*
X147015777Y-127311005D01*
X147014585Y-127306244D01*
X147005013Y-127258119D01*
X147004293Y-127253266D01*
X146999483Y-127204435D01*
X146999242Y-127199534D01*
X146999242Y-127181111D01*
X146998640Y-127175000D01*
X146998640Y-126675000D01*
X146999242Y-126668889D01*
X146999242Y-126650466D01*
X146999483Y-126645565D01*
X147004293Y-126596734D01*
X147005013Y-126591881D01*
X147014585Y-126543756D01*
X147015777Y-126538995D01*
X147030021Y-126492040D01*
X147031674Y-126487421D01*
X147050451Y-126442088D01*
X147052549Y-126437651D01*
X147075680Y-126394378D01*
X147078202Y-126390171D01*
X147105462Y-126349372D01*
X147108386Y-126345430D01*
X147139514Y-126307501D01*
X147142809Y-126303866D01*
X147177506Y-126269169D01*
X147181141Y-126265874D01*
X147219070Y-126234746D01*
X147223012Y-126231822D01*
X147263811Y-126204562D01*
X147268018Y-126202040D01*
X147311291Y-126178909D01*
X147315728Y-126176811D01*
X147361061Y-126158034D01*
X147365680Y-126156381D01*
X147412635Y-126142137D01*
X147417396Y-126140945D01*
X147465521Y-126131373D01*
X147470374Y-126130653D01*
X147519205Y-126125843D01*
X147524106Y-126125602D01*
X147542529Y-126125602D01*
X147548640Y-126125000D01*
X148048640Y-126125000D01*
X148058395Y-126125961D01*
X148067774Y-126128806D01*
X148076419Y-126133427D01*
X148083995Y-126139645D01*
X148090213Y-126147221D01*
X148094834Y-126155866D01*
X148097679Y-126165245D01*
X148098640Y-126175000D01*
X148098640Y-127675000D01*
X148097679Y-127684755D01*
X148094834Y-127694134D01*
X148090213Y-127702779D01*
X148083995Y-127710355D01*
X148076419Y-127716573D01*
X148067774Y-127721194D01*
X148058395Y-127724039D01*
X148048640Y-127725000D01*
X147548640Y-127725000D01*
X147542529Y-127724398D01*
G37*
G36*
X148338885Y-127724039D02*
G01*
X148329506Y-127721194D01*
X148320861Y-127716573D01*
X148313285Y-127710355D01*
X148307067Y-127702779D01*
X148302446Y-127694134D01*
X148299601Y-127684755D01*
X148298640Y-127675000D01*
X148298640Y-126175000D01*
X148299601Y-126165245D01*
X148302446Y-126155866D01*
X148307067Y-126147221D01*
X148313285Y-126139645D01*
X148320861Y-126133427D01*
X148329506Y-126128806D01*
X148338885Y-126125961D01*
X148348640Y-126125000D01*
X148848640Y-126125000D01*
X148854751Y-126125602D01*
X148873174Y-126125602D01*
X148878075Y-126125843D01*
X148926906Y-126130653D01*
X148931759Y-126131373D01*
X148979884Y-126140945D01*
X148984645Y-126142137D01*
X149031600Y-126156381D01*
X149036219Y-126158034D01*
X149081552Y-126176811D01*
X149085989Y-126178909D01*
X149129262Y-126202040D01*
X149133469Y-126204562D01*
X149174268Y-126231822D01*
X149178210Y-126234746D01*
X149216139Y-126265874D01*
X149219774Y-126269169D01*
X149254471Y-126303866D01*
X149257766Y-126307501D01*
X149288894Y-126345430D01*
X149291818Y-126349372D01*
X149319078Y-126390171D01*
X149321600Y-126394378D01*
X149344731Y-126437651D01*
X149346829Y-126442088D01*
X149365606Y-126487421D01*
X149367259Y-126492040D01*
X149381503Y-126538995D01*
X149382695Y-126543756D01*
X149392267Y-126591881D01*
X149392987Y-126596734D01*
X149397797Y-126645565D01*
X149398038Y-126650466D01*
X149398038Y-126668889D01*
X149398640Y-126675000D01*
X149398640Y-127175000D01*
X149398038Y-127181111D01*
X149398038Y-127199534D01*
X149397797Y-127204435D01*
X149392987Y-127253266D01*
X149392267Y-127258119D01*
X149382695Y-127306244D01*
X149381503Y-127311005D01*
X149367259Y-127357960D01*
X149365606Y-127362579D01*
X149346829Y-127407912D01*
X149344731Y-127412349D01*
X149321600Y-127455622D01*
X149319078Y-127459829D01*
X149291818Y-127500628D01*
X149288894Y-127504570D01*
X149257766Y-127542499D01*
X149254471Y-127546134D01*
X149219774Y-127580831D01*
X149216139Y-127584126D01*
X149178210Y-127615254D01*
X149174268Y-127618178D01*
X149133469Y-127645438D01*
X149129262Y-127647960D01*
X149085989Y-127671091D01*
X149081552Y-127673189D01*
X149036219Y-127691966D01*
X149031600Y-127693619D01*
X148984645Y-127707863D01*
X148979884Y-127709055D01*
X148931759Y-127718627D01*
X148926906Y-127719347D01*
X148878075Y-127724157D01*
X148873174Y-127724398D01*
X148854751Y-127724398D01*
X148848640Y-127725000D01*
X148348640Y-127725000D01*
X148338885Y-127724039D01*
G37*
%TD*%
%TO.C,JP2*%
G36*
X147529829Y-125149398D02*
G01*
X147511406Y-125149398D01*
X147506505Y-125149157D01*
X147457674Y-125144347D01*
X147452821Y-125143627D01*
X147404696Y-125134055D01*
X147399935Y-125132863D01*
X147352980Y-125118619D01*
X147348361Y-125116966D01*
X147303028Y-125098189D01*
X147298591Y-125096091D01*
X147255318Y-125072960D01*
X147251111Y-125070438D01*
X147210312Y-125043178D01*
X147206370Y-125040254D01*
X147168441Y-125009126D01*
X147164806Y-125005831D01*
X147130109Y-124971134D01*
X147126814Y-124967499D01*
X147095686Y-124929570D01*
X147092762Y-124925628D01*
X147065502Y-124884829D01*
X147062980Y-124880622D01*
X147039849Y-124837349D01*
X147037751Y-124832912D01*
X147018974Y-124787579D01*
X147017321Y-124782960D01*
X147003077Y-124736005D01*
X147001885Y-124731244D01*
X146992313Y-124683119D01*
X146991593Y-124678266D01*
X146986783Y-124629435D01*
X146986542Y-124624534D01*
X146986542Y-124606111D01*
X146985940Y-124600000D01*
X146985940Y-124100000D01*
X146986542Y-124093889D01*
X146986542Y-124075466D01*
X146986783Y-124070565D01*
X146991593Y-124021734D01*
X146992313Y-124016881D01*
X147001885Y-123968756D01*
X147003077Y-123963995D01*
X147017321Y-123917040D01*
X147018974Y-123912421D01*
X147037751Y-123867088D01*
X147039849Y-123862651D01*
X147062980Y-123819378D01*
X147065502Y-123815171D01*
X147092762Y-123774372D01*
X147095686Y-123770430D01*
X147126814Y-123732501D01*
X147130109Y-123728866D01*
X147164806Y-123694169D01*
X147168441Y-123690874D01*
X147206370Y-123659746D01*
X147210312Y-123656822D01*
X147251111Y-123629562D01*
X147255318Y-123627040D01*
X147298591Y-123603909D01*
X147303028Y-123601811D01*
X147348361Y-123583034D01*
X147352980Y-123581381D01*
X147399935Y-123567137D01*
X147404696Y-123565945D01*
X147452821Y-123556373D01*
X147457674Y-123555653D01*
X147506505Y-123550843D01*
X147511406Y-123550602D01*
X147529829Y-123550602D01*
X147535940Y-123550000D01*
X148035940Y-123550000D01*
X148045695Y-123550961D01*
X148055074Y-123553806D01*
X148063719Y-123558427D01*
X148071295Y-123564645D01*
X148077513Y-123572221D01*
X148082134Y-123580866D01*
X148084979Y-123590245D01*
X148085940Y-123600000D01*
X148085940Y-125100000D01*
X148084979Y-125109755D01*
X148082134Y-125119134D01*
X148077513Y-125127779D01*
X148071295Y-125135355D01*
X148063719Y-125141573D01*
X148055074Y-125146194D01*
X148045695Y-125149039D01*
X148035940Y-125150000D01*
X147535940Y-125150000D01*
X147529829Y-125149398D01*
G37*
G36*
X148326185Y-125149039D02*
G01*
X148316806Y-125146194D01*
X148308161Y-125141573D01*
X148300585Y-125135355D01*
X148294367Y-125127779D01*
X148289746Y-125119134D01*
X148286901Y-125109755D01*
X148285940Y-125100000D01*
X148285940Y-123600000D01*
X148286901Y-123590245D01*
X148289746Y-123580866D01*
X148294367Y-123572221D01*
X148300585Y-123564645D01*
X148308161Y-123558427D01*
X148316806Y-123553806D01*
X148326185Y-123550961D01*
X148335940Y-123550000D01*
X148835940Y-123550000D01*
X148842051Y-123550602D01*
X148860474Y-123550602D01*
X148865375Y-123550843D01*
X148914206Y-123555653D01*
X148919059Y-123556373D01*
X148967184Y-123565945D01*
X148971945Y-123567137D01*
X149018900Y-123581381D01*
X149023519Y-123583034D01*
X149068852Y-123601811D01*
X149073289Y-123603909D01*
X149116562Y-123627040D01*
X149120769Y-123629562D01*
X149161568Y-123656822D01*
X149165510Y-123659746D01*
X149203439Y-123690874D01*
X149207074Y-123694169D01*
X149241771Y-123728866D01*
X149245066Y-123732501D01*
X149276194Y-123770430D01*
X149279118Y-123774372D01*
X149306378Y-123815171D01*
X149308900Y-123819378D01*
X149332031Y-123862651D01*
X149334129Y-123867088D01*
X149352906Y-123912421D01*
X149354559Y-123917040D01*
X149368803Y-123963995D01*
X149369995Y-123968756D01*
X149379567Y-124016881D01*
X149380287Y-124021734D01*
X149385097Y-124070565D01*
X149385338Y-124075466D01*
X149385338Y-124093889D01*
X149385940Y-124100000D01*
X149385940Y-124600000D01*
X149385338Y-124606111D01*
X149385338Y-124624534D01*
X149385097Y-124629435D01*
X149380287Y-124678266D01*
X149379567Y-124683119D01*
X149369995Y-124731244D01*
X149368803Y-124736005D01*
X149354559Y-124782960D01*
X149352906Y-124787579D01*
X149334129Y-124832912D01*
X149332031Y-124837349D01*
X149308900Y-124880622D01*
X149306378Y-124884829D01*
X149279118Y-124925628D01*
X149276194Y-124929570D01*
X149245066Y-124967499D01*
X149241771Y-124971134D01*
X149207074Y-125005831D01*
X149203439Y-125009126D01*
X149165510Y-125040254D01*
X149161568Y-125043178D01*
X149120769Y-125070438D01*
X149116562Y-125072960D01*
X149073289Y-125096091D01*
X149068852Y-125098189D01*
X149023519Y-125116966D01*
X149018900Y-125118619D01*
X148971945Y-125132863D01*
X148967184Y-125134055D01*
X148919059Y-125143627D01*
X148914206Y-125144347D01*
X148865375Y-125149157D01*
X148860474Y-125149398D01*
X148842051Y-125149398D01*
X148835940Y-125150000D01*
X148335940Y-125150000D01*
X148326185Y-125149039D01*
G37*
%TD*%
%TO.C,JP1*%
G36*
X173820098Y-115331591D02*
G01*
X173820098Y-115350014D01*
X173819857Y-115354915D01*
X173815047Y-115403746D01*
X173814327Y-115408599D01*
X173804755Y-115456724D01*
X173803563Y-115461485D01*
X173789319Y-115508440D01*
X173787666Y-115513059D01*
X173768889Y-115558392D01*
X173766791Y-115562829D01*
X173743660Y-115606102D01*
X173741138Y-115610309D01*
X173713878Y-115651108D01*
X173710954Y-115655050D01*
X173679826Y-115692979D01*
X173676531Y-115696614D01*
X173641834Y-115731311D01*
X173638199Y-115734606D01*
X173600270Y-115765734D01*
X173596328Y-115768658D01*
X173555529Y-115795918D01*
X173551322Y-115798440D01*
X173508049Y-115821571D01*
X173503612Y-115823669D01*
X173458279Y-115842446D01*
X173453660Y-115844099D01*
X173406705Y-115858343D01*
X173401944Y-115859535D01*
X173353819Y-115869107D01*
X173348966Y-115869827D01*
X173300135Y-115874637D01*
X173295234Y-115874878D01*
X173276811Y-115874878D01*
X173270700Y-115875480D01*
X172770700Y-115875480D01*
X172764589Y-115874878D01*
X172746166Y-115874878D01*
X172741265Y-115874637D01*
X172692434Y-115869827D01*
X172687581Y-115869107D01*
X172639456Y-115859535D01*
X172634695Y-115858343D01*
X172587740Y-115844099D01*
X172583121Y-115842446D01*
X172537788Y-115823669D01*
X172533351Y-115821571D01*
X172490078Y-115798440D01*
X172485871Y-115795918D01*
X172445072Y-115768658D01*
X172441130Y-115765734D01*
X172403201Y-115734606D01*
X172399566Y-115731311D01*
X172364869Y-115696614D01*
X172361574Y-115692979D01*
X172330446Y-115655050D01*
X172327522Y-115651108D01*
X172300262Y-115610309D01*
X172297740Y-115606102D01*
X172274609Y-115562829D01*
X172272511Y-115558392D01*
X172253734Y-115513059D01*
X172252081Y-115508440D01*
X172237837Y-115461485D01*
X172236645Y-115456724D01*
X172227073Y-115408599D01*
X172226353Y-115403746D01*
X172221543Y-115354915D01*
X172221302Y-115350014D01*
X172221302Y-115331591D01*
X172220700Y-115325480D01*
X172220700Y-114825480D01*
X172221661Y-114815725D01*
X172224506Y-114806346D01*
X172229127Y-114797701D01*
X172235345Y-114790125D01*
X172242921Y-114783907D01*
X172251566Y-114779286D01*
X172260945Y-114776441D01*
X172270700Y-114775480D01*
X173770700Y-114775480D01*
X173780455Y-114776441D01*
X173789834Y-114779286D01*
X173798479Y-114783907D01*
X173806055Y-114790125D01*
X173812273Y-114797701D01*
X173816894Y-114806346D01*
X173819739Y-114815725D01*
X173820700Y-114825480D01*
X173820700Y-115325480D01*
X173820098Y-115331591D01*
G37*
G36*
X173819739Y-114535235D02*
G01*
X173816894Y-114544614D01*
X173812273Y-114553259D01*
X173806055Y-114560835D01*
X173798479Y-114567053D01*
X173789834Y-114571674D01*
X173780455Y-114574519D01*
X173770700Y-114575480D01*
X172270700Y-114575480D01*
X172260945Y-114574519D01*
X172251566Y-114571674D01*
X172242921Y-114567053D01*
X172235345Y-114560835D01*
X172229127Y-114553259D01*
X172224506Y-114544614D01*
X172221661Y-114535235D01*
X172220700Y-114525480D01*
X172220700Y-114025480D01*
X172221302Y-114019369D01*
X172221302Y-114000946D01*
X172221543Y-113996045D01*
X172226353Y-113947214D01*
X172227073Y-113942361D01*
X172236645Y-113894236D01*
X172237837Y-113889475D01*
X172252081Y-113842520D01*
X172253734Y-113837901D01*
X172272511Y-113792568D01*
X172274609Y-113788131D01*
X172297740Y-113744858D01*
X172300262Y-113740651D01*
X172327522Y-113699852D01*
X172330446Y-113695910D01*
X172361574Y-113657981D01*
X172364869Y-113654346D01*
X172399566Y-113619649D01*
X172403201Y-113616354D01*
X172441130Y-113585226D01*
X172445072Y-113582302D01*
X172485871Y-113555042D01*
X172490078Y-113552520D01*
X172533351Y-113529389D01*
X172537788Y-113527291D01*
X172583121Y-113508514D01*
X172587740Y-113506861D01*
X172634695Y-113492617D01*
X172639456Y-113491425D01*
X172687581Y-113481853D01*
X172692434Y-113481133D01*
X172741265Y-113476323D01*
X172746166Y-113476082D01*
X172764589Y-113476082D01*
X172770700Y-113475480D01*
X173270700Y-113475480D01*
X173276811Y-113476082D01*
X173295234Y-113476082D01*
X173300135Y-113476323D01*
X173348966Y-113481133D01*
X173353819Y-113481853D01*
X173401944Y-113491425D01*
X173406705Y-113492617D01*
X173453660Y-113506861D01*
X173458279Y-113508514D01*
X173503612Y-113527291D01*
X173508049Y-113529389D01*
X173551322Y-113552520D01*
X173555529Y-113555042D01*
X173596328Y-113582302D01*
X173600270Y-113585226D01*
X173638199Y-113616354D01*
X173641834Y-113619649D01*
X173676531Y-113654346D01*
X173679826Y-113657981D01*
X173710954Y-113695910D01*
X173713878Y-113699852D01*
X173741138Y-113740651D01*
X173743660Y-113744858D01*
X173766791Y-113788131D01*
X173768889Y-113792568D01*
X173787666Y-113837901D01*
X173789319Y-113842520D01*
X173803563Y-113889475D01*
X173804755Y-113894236D01*
X173814327Y-113942361D01*
X173815047Y-113947214D01*
X173819857Y-113996045D01*
X173820098Y-114000946D01*
X173820098Y-114019369D01*
X173820700Y-114025480D01*
X173820700Y-114525480D01*
X173819739Y-114535235D01*
G37*
%TD*%
D16*
%TO.C,J7*%
X183235180Y-143762760D03*
D20*
X187335180Y-141762760D03*
D11*
G36*
X185496420Y-140714035D02*
G01*
X185522116Y-140717846D01*
X185547314Y-140724158D01*
X185571773Y-140732910D01*
X185595256Y-140744016D01*
X185617537Y-140757371D01*
X185638402Y-140772845D01*
X185657649Y-140790291D01*
X185675095Y-140809538D01*
X185690569Y-140830403D01*
X185703924Y-140852684D01*
X185715030Y-140876167D01*
X185723782Y-140900626D01*
X185730094Y-140925824D01*
X185733905Y-140951520D01*
X185735180Y-140977466D01*
X185735180Y-142548054D01*
X185733905Y-142574000D01*
X185730094Y-142599696D01*
X185723782Y-142624894D01*
X185715030Y-142649353D01*
X185703924Y-142672836D01*
X185690569Y-142695117D01*
X185675095Y-142715982D01*
X185657649Y-142735229D01*
X185638402Y-142752675D01*
X185617537Y-142768149D01*
X185595256Y-142781504D01*
X185571773Y-142792610D01*
X185547314Y-142801362D01*
X185522116Y-142807674D01*
X185496420Y-142811485D01*
X185470474Y-142812760D01*
X184199886Y-142812760D01*
X184173940Y-142811485D01*
X184148244Y-142807674D01*
X184123046Y-142801362D01*
X184098587Y-142792610D01*
X184075104Y-142781504D01*
X184052823Y-142768149D01*
X184031958Y-142752675D01*
X184012711Y-142735229D01*
X183995265Y-142715982D01*
X183979791Y-142695117D01*
X183966436Y-142672836D01*
X183955330Y-142649353D01*
X183946578Y-142624894D01*
X183940266Y-142599696D01*
X183936455Y-142574000D01*
X183935180Y-142548054D01*
X183935180Y-140977466D01*
X183936455Y-140951520D01*
X183940266Y-140925824D01*
X183946578Y-140900626D01*
X183955330Y-140876167D01*
X183966436Y-140852684D01*
X183979791Y-140830403D01*
X183995265Y-140809538D01*
X184012711Y-140790291D01*
X184031958Y-140772845D01*
X184052823Y-140757371D01*
X184075104Y-140744016D01*
X184098587Y-140732910D01*
X184123046Y-140724158D01*
X184148244Y-140717846D01*
X184173940Y-140714035D01*
X184199886Y-140712760D01*
X185470474Y-140712760D01*
X185496420Y-140714035D01*
G37*
%TD*%
D16*
%TO.C,J6*%
X189049920Y-112972120D03*
D20*
X184949920Y-114972120D03*
D11*
G36*
X188111160Y-113923395D02*
G01*
X188136856Y-113927206D01*
X188162054Y-113933518D01*
X188186513Y-113942270D01*
X188209996Y-113953376D01*
X188232277Y-113966731D01*
X188253142Y-113982205D01*
X188272389Y-113999651D01*
X188289835Y-114018898D01*
X188305309Y-114039763D01*
X188318664Y-114062044D01*
X188329770Y-114085527D01*
X188338522Y-114109986D01*
X188344834Y-114135184D01*
X188348645Y-114160880D01*
X188349920Y-114186826D01*
X188349920Y-115757414D01*
X188348645Y-115783360D01*
X188344834Y-115809056D01*
X188338522Y-115834254D01*
X188329770Y-115858713D01*
X188318664Y-115882196D01*
X188305309Y-115904477D01*
X188289835Y-115925342D01*
X188272389Y-115944589D01*
X188253142Y-115962035D01*
X188232277Y-115977509D01*
X188209996Y-115990864D01*
X188186513Y-116001970D01*
X188162054Y-116010722D01*
X188136856Y-116017034D01*
X188111160Y-116020845D01*
X188085214Y-116022120D01*
X186814626Y-116022120D01*
X186788680Y-116020845D01*
X186762984Y-116017034D01*
X186737786Y-116010722D01*
X186713327Y-116001970D01*
X186689844Y-115990864D01*
X186667563Y-115977509D01*
X186646698Y-115962035D01*
X186627451Y-115944589D01*
X186610005Y-115925342D01*
X186594531Y-115904477D01*
X186581176Y-115882196D01*
X186570070Y-115858713D01*
X186561318Y-115834254D01*
X186555006Y-115809056D01*
X186551195Y-115783360D01*
X186549920Y-115757414D01*
X186549920Y-114186826D01*
X186551195Y-114160880D01*
X186555006Y-114135184D01*
X186561318Y-114109986D01*
X186570070Y-114085527D01*
X186581176Y-114062044D01*
X186594531Y-114039763D01*
X186610005Y-114018898D01*
X186627451Y-113999651D01*
X186646698Y-113982205D01*
X186667563Y-113966731D01*
X186689844Y-113953376D01*
X186713327Y-113942270D01*
X186737786Y-113933518D01*
X186762984Y-113927206D01*
X186788680Y-113923395D01*
X186814626Y-113922120D01*
X188085214Y-113922120D01*
X188111160Y-113923395D01*
G37*
%TD*%
D21*
%TO.C,J2*%
X168425000Y-119010000D03*
X172325000Y-119010000D03*
X168425000Y-120280000D03*
X172325000Y-120280000D03*
X168425000Y-121550000D03*
X172325000Y-121550000D03*
X168425000Y-122820000D03*
X172325000Y-122820000D03*
X168425000Y-124090000D03*
X172325000Y-124090000D03*
%TD*%
D11*
%TO.C,C2*%
G36*
X178888792Y-119349674D02*
G01*
X178914881Y-119353544D01*
X178940464Y-119359952D01*
X178965296Y-119368837D01*
X178989138Y-119380114D01*
X179011760Y-119393673D01*
X179032943Y-119409383D01*
X179052485Y-119427095D01*
X179070197Y-119446637D01*
X179085907Y-119467820D01*
X179099466Y-119490442D01*
X179110743Y-119514284D01*
X179119628Y-119539116D01*
X179126036Y-119564699D01*
X179129906Y-119590788D01*
X179131200Y-119617130D01*
X179131200Y-120579630D01*
X179129906Y-120605972D01*
X179126036Y-120632061D01*
X179119628Y-120657644D01*
X179110743Y-120682476D01*
X179099466Y-120706318D01*
X179085907Y-120728940D01*
X179070197Y-120750123D01*
X179052485Y-120769665D01*
X179032943Y-120787377D01*
X179011760Y-120803087D01*
X178989138Y-120816646D01*
X178965296Y-120827923D01*
X178940464Y-120836808D01*
X178914881Y-120843216D01*
X178888792Y-120847086D01*
X178862450Y-120848380D01*
X178324950Y-120848380D01*
X178298608Y-120847086D01*
X178272519Y-120843216D01*
X178246936Y-120836808D01*
X178222104Y-120827923D01*
X178198262Y-120816646D01*
X178175640Y-120803087D01*
X178154457Y-120787377D01*
X178134915Y-120769665D01*
X178117203Y-120750123D01*
X178101493Y-120728940D01*
X178087934Y-120706318D01*
X178076657Y-120682476D01*
X178067772Y-120657644D01*
X178061364Y-120632061D01*
X178057494Y-120605972D01*
X178056200Y-120579630D01*
X178056200Y-119617130D01*
X178057494Y-119590788D01*
X178061364Y-119564699D01*
X178067772Y-119539116D01*
X178076657Y-119514284D01*
X178087934Y-119490442D01*
X178101493Y-119467820D01*
X178117203Y-119446637D01*
X178134915Y-119427095D01*
X178154457Y-119409383D01*
X178175640Y-119393673D01*
X178198262Y-119380114D01*
X178222104Y-119368837D01*
X178246936Y-119359952D01*
X178272519Y-119353544D01*
X178298608Y-119349674D01*
X178324950Y-119348380D01*
X178862450Y-119348380D01*
X178888792Y-119349674D01*
G37*
G36*
X177013792Y-119349674D02*
G01*
X177039881Y-119353544D01*
X177065464Y-119359952D01*
X177090296Y-119368837D01*
X177114138Y-119380114D01*
X177136760Y-119393673D01*
X177157943Y-119409383D01*
X177177485Y-119427095D01*
X177195197Y-119446637D01*
X177210907Y-119467820D01*
X177224466Y-119490442D01*
X177235743Y-119514284D01*
X177244628Y-119539116D01*
X177251036Y-119564699D01*
X177254906Y-119590788D01*
X177256200Y-119617130D01*
X177256200Y-120579630D01*
X177254906Y-120605972D01*
X177251036Y-120632061D01*
X177244628Y-120657644D01*
X177235743Y-120682476D01*
X177224466Y-120706318D01*
X177210907Y-120728940D01*
X177195197Y-120750123D01*
X177177485Y-120769665D01*
X177157943Y-120787377D01*
X177136760Y-120803087D01*
X177114138Y-120816646D01*
X177090296Y-120827923D01*
X177065464Y-120836808D01*
X177039881Y-120843216D01*
X177013792Y-120847086D01*
X176987450Y-120848380D01*
X176449950Y-120848380D01*
X176423608Y-120847086D01*
X176397519Y-120843216D01*
X176371936Y-120836808D01*
X176347104Y-120827923D01*
X176323262Y-120816646D01*
X176300640Y-120803087D01*
X176279457Y-120787377D01*
X176259915Y-120769665D01*
X176242203Y-120750123D01*
X176226493Y-120728940D01*
X176212934Y-120706318D01*
X176201657Y-120682476D01*
X176192772Y-120657644D01*
X176186364Y-120632061D01*
X176182494Y-120605972D01*
X176181200Y-120579630D01*
X176181200Y-119617130D01*
X176182494Y-119590788D01*
X176186364Y-119564699D01*
X176192772Y-119539116D01*
X176201657Y-119514284D01*
X176212934Y-119490442D01*
X176226493Y-119467820D01*
X176242203Y-119446637D01*
X176259915Y-119427095D01*
X176279457Y-119409383D01*
X176300640Y-119393673D01*
X176323262Y-119380114D01*
X176347104Y-119368837D01*
X176371936Y-119359952D01*
X176397519Y-119353544D01*
X176423608Y-119349674D01*
X176449950Y-119348380D01*
X176987450Y-119348380D01*
X177013792Y-119349674D01*
G37*
%TD*%
%TO.C,C1*%
G36*
X181077172Y-117652334D02*
G01*
X181103261Y-117656204D01*
X181128844Y-117662612D01*
X181153676Y-117671497D01*
X181177518Y-117682774D01*
X181200140Y-117696333D01*
X181221323Y-117712043D01*
X181240865Y-117729755D01*
X181258577Y-117749297D01*
X181274287Y-117770480D01*
X181287846Y-117793102D01*
X181299123Y-117816944D01*
X181308008Y-117841776D01*
X181314416Y-117867359D01*
X181318286Y-117893448D01*
X181319580Y-117919790D01*
X181319580Y-118457290D01*
X181318286Y-118483632D01*
X181314416Y-118509721D01*
X181308008Y-118535304D01*
X181299123Y-118560136D01*
X181287846Y-118583978D01*
X181274287Y-118606600D01*
X181258577Y-118627783D01*
X181240865Y-118647325D01*
X181221323Y-118665037D01*
X181200140Y-118680747D01*
X181177518Y-118694306D01*
X181153676Y-118705583D01*
X181128844Y-118714468D01*
X181103261Y-118720876D01*
X181077172Y-118724746D01*
X181050830Y-118726040D01*
X180088330Y-118726040D01*
X180061988Y-118724746D01*
X180035899Y-118720876D01*
X180010316Y-118714468D01*
X179985484Y-118705583D01*
X179961642Y-118694306D01*
X179939020Y-118680747D01*
X179917837Y-118665037D01*
X179898295Y-118647325D01*
X179880583Y-118627783D01*
X179864873Y-118606600D01*
X179851314Y-118583978D01*
X179840037Y-118560136D01*
X179831152Y-118535304D01*
X179824744Y-118509721D01*
X179820874Y-118483632D01*
X179819580Y-118457290D01*
X179819580Y-117919790D01*
X179820874Y-117893448D01*
X179824744Y-117867359D01*
X179831152Y-117841776D01*
X179840037Y-117816944D01*
X179851314Y-117793102D01*
X179864873Y-117770480D01*
X179880583Y-117749297D01*
X179898295Y-117729755D01*
X179917837Y-117712043D01*
X179939020Y-117696333D01*
X179961642Y-117682774D01*
X179985484Y-117671497D01*
X180010316Y-117662612D01*
X180035899Y-117656204D01*
X180061988Y-117652334D01*
X180088330Y-117651040D01*
X181050830Y-117651040D01*
X181077172Y-117652334D01*
G37*
G36*
X181077172Y-115777334D02*
G01*
X181103261Y-115781204D01*
X181128844Y-115787612D01*
X181153676Y-115796497D01*
X181177518Y-115807774D01*
X181200140Y-115821333D01*
X181221323Y-115837043D01*
X181240865Y-115854755D01*
X181258577Y-115874297D01*
X181274287Y-115895480D01*
X181287846Y-115918102D01*
X181299123Y-115941944D01*
X181308008Y-115966776D01*
X181314416Y-115992359D01*
X181318286Y-116018448D01*
X181319580Y-116044790D01*
X181319580Y-116582290D01*
X181318286Y-116608632D01*
X181314416Y-116634721D01*
X181308008Y-116660304D01*
X181299123Y-116685136D01*
X181287846Y-116708978D01*
X181274287Y-116731600D01*
X181258577Y-116752783D01*
X181240865Y-116772325D01*
X181221323Y-116790037D01*
X181200140Y-116805747D01*
X181177518Y-116819306D01*
X181153676Y-116830583D01*
X181128844Y-116839468D01*
X181103261Y-116845876D01*
X181077172Y-116849746D01*
X181050830Y-116851040D01*
X180088330Y-116851040D01*
X180061988Y-116849746D01*
X180035899Y-116845876D01*
X180010316Y-116839468D01*
X179985484Y-116830583D01*
X179961642Y-116819306D01*
X179939020Y-116805747D01*
X179917837Y-116790037D01*
X179898295Y-116772325D01*
X179880583Y-116752783D01*
X179864873Y-116731600D01*
X179851314Y-116708978D01*
X179840037Y-116685136D01*
X179831152Y-116660304D01*
X179824744Y-116634721D01*
X179820874Y-116608632D01*
X179819580Y-116582290D01*
X179819580Y-116044790D01*
X179820874Y-116018448D01*
X179824744Y-115992359D01*
X179831152Y-115966776D01*
X179840037Y-115941944D01*
X179851314Y-115918102D01*
X179864873Y-115895480D01*
X179880583Y-115874297D01*
X179898295Y-115854755D01*
X179917837Y-115837043D01*
X179939020Y-115821333D01*
X179961642Y-115807774D01*
X179985484Y-115796497D01*
X180010316Y-115787612D01*
X180035899Y-115781204D01*
X180061988Y-115777334D01*
X180088330Y-115776040D01*
X181050830Y-115776040D01*
X181077172Y-115777334D01*
G37*
%TD*%
M02*
