M48
; DRILL file {KiCad (5.1.5)-3} date 14/08/2020 00:04:16
; FORMAT={-:-/ absolute / inch / decimal}
; #@! TF.CreationDate,2020-08-14T00:04:16+02:00
; #@! TF.GenerationSoftware,Kicad,Pcbnew,(5.1.5)-3
; #@! TF.FileFunction,Plated,1,2,PTH
FMAT,2
INCH
T1C0.0157
T2C0.0374
T3C0.0394
T4C0.1260
%
G90
G05
T1
X6.1496Y-5.0817
X6.3533Y-5.0354
X6.3917Y-5.0079
X6.4262Y-4.9793
X6.4272Y-5.0748
X6.5541Y-5.6289
X6.872Y-4.7854
X6.8927Y-4.935
X6.9006Y-4.5423
X6.9006Y-4.872
X6.9124Y-4.7283
X6.9213Y-5.1693
X7.0295Y-4.7854
X7.0342Y-4.6541
X7.3632Y-5.1378
T2
X6.1181Y-5.4124
X6.2165Y-5.4124
X6.315Y-5.4124
X6.4134Y-5.4124
X6.8228Y-5.0817
X6.9213Y-5.0817
X7.0197Y-5.0817
X6.8228Y-5.3622
X6.9213Y-5.3622
X7.0197Y-5.3622
X6.0984Y-4.6978
X6.1969Y-4.6978
X6.2953Y-4.6978
X6.3937Y-4.6978
T3
X7.2815Y-4.5265
X7.3799Y-4.5265
X7.277Y-5.5812
X7.3754Y-5.5812
X7.3868Y-4.9321
X7.3868Y-5.0305
T4
X5.8169Y-5.5817
X5.8297Y-4.5679
T0
M30
