%TF.GenerationSoftware,KiCad,Pcbnew,(5.1.6)-1*%
%TF.CreationDate,2020-12-06T01:58:00+01:00*%
%TF.ProjectId,HorticultureSensor,486f7274-6963-4756-9c74-75726553656e,1.0*%
%TF.SameCoordinates,Original*%
%TF.FileFunction,Legend,Bot*%
%TF.FilePolarity,Positive*%
%FSLAX46Y46*%
G04 Gerber Fmt 4.6, Leading zero omitted, Abs format (unit mm)*
G04 Created by KiCad (PCBNEW (5.1.6)-1) date 2020-12-06 01:58:00*
%MOMM*%
%LPD*%
G01*
G04 APERTURE LIST*
%ADD10C,0.120000*%
%ADD11C,0.150000*%
G04 APERTURE END LIST*
D10*
%TO.C,J6*%
X150882000Y-132517000D02*
X151832000Y-132517000D01*
X151832000Y-132517000D02*
X151832000Y-131567000D01*
X151832000Y-131567000D02*
X152522000Y-131567000D01*
X150882000Y-125547000D02*
X151832000Y-125547000D01*
X151832000Y-125547000D02*
X151832000Y-126497000D01*
X147912000Y-132147000D02*
X147912000Y-125917000D01*
%TO.C,J2*%
X160795000Y-128392000D02*
X160795000Y-128457000D01*
X164325000Y-128392000D02*
X164325000Y-128457000D01*
X160795000Y-121987000D02*
X160795000Y-122052000D01*
X164325000Y-121987000D02*
X164325000Y-122052000D01*
X165650000Y-122052000D02*
X164325000Y-122052000D01*
X164325000Y-128457000D02*
X160795000Y-128457000D01*
X164325000Y-121987000D02*
X160795000Y-121987000D01*
%TD*%
%TO.C,J6*%
D11*
X153174380Y-128698666D02*
X153888666Y-128698666D01*
X154031523Y-128651047D01*
X154126761Y-128555809D01*
X154174380Y-128412952D01*
X154174380Y-128317714D01*
X153174380Y-129603428D02*
X153174380Y-129412952D01*
X153222000Y-129317714D01*
X153269619Y-129270095D01*
X153412476Y-129174857D01*
X153602952Y-129127238D01*
X153983904Y-129127238D01*
X154079142Y-129174857D01*
X154126761Y-129222476D01*
X154174380Y-129317714D01*
X154174380Y-129508190D01*
X154126761Y-129603428D01*
X154079142Y-129651047D01*
X153983904Y-129698666D01*
X153745809Y-129698666D01*
X153650571Y-129651047D01*
X153602952Y-129603428D01*
X153555333Y-129508190D01*
X153555333Y-129317714D01*
X153602952Y-129222476D01*
X153650571Y-129174857D01*
X153745809Y-129127238D01*
%TO.C,J2*%
X160668333Y-129174380D02*
X160668333Y-129888666D01*
X160715952Y-130031523D01*
X160811190Y-130126761D01*
X160954047Y-130174380D01*
X161049285Y-130174380D01*
X160239761Y-129269619D02*
X160192142Y-129222000D01*
X160096904Y-129174380D01*
X159858809Y-129174380D01*
X159763571Y-129222000D01*
X159715952Y-129269619D01*
X159668333Y-129364857D01*
X159668333Y-129460095D01*
X159715952Y-129602952D01*
X160287380Y-130174380D01*
X159668333Y-130174380D01*
%TD*%
M02*
