M48
; DRILL file {KiCad (5.1.6)-1} date 12/06/20 01:58:19
; FORMAT={-:-/ absolute / inch / decimal}
; #@! TF.CreationDate,2020-12-06T01:58:19+01:00
; #@! TF.GenerationSoftware,Kicad,Pcbnew,(5.1.6)-1
; #@! TF.FileFunction,Plated,1,2,PTH
FMAT,2
INCH
T1C0.0157
T2C0.1260
%
G90
G05
T1
X5.761Y-5.0051
X5.9213Y-5.0878
X5.9583Y-4.8965
X5.9792Y-5.2166
X6.0437Y-5.2217
X6.0728Y-4.7618
X6.1016Y-5.1898
X6.1335Y-5.1061
X6.1752Y-5.1571
X6.1799Y-5.0193
X6.186Y-4.8961
X6.186Y-4.972
X6.2244Y-5.615
X6.2766Y-5.2443
X6.3504Y-5.1157
X6.452Y-5.0953
X6.4748Y-4.763
X6.5693Y-4.8531
X6.6028Y-4.9524
T2
X5.8169Y-5.5817
X5.8169Y-4.68
T0
M30
