%TF.GenerationSoftware,KiCad,Pcbnew,(5.1.6)-1*%
%TF.CreationDate,2020-12-06T01:56:03+01:00*%
%TF.ProjectId,HorticultureSensor,486f7274-6963-4756-9c74-75726553656e,1.0*%
%TF.SameCoordinates,Original*%
%TF.FileFunction,Paste,Bot*%
%TF.FilePolarity,Positive*%
%FSLAX46Y46*%
G04 Gerber Fmt 4.6, Leading zero omitted, Abs format (unit mm)*
G04 Created by KiCad (PCBNEW (5.1.6)-1) date 2020-12-06 01:56:03*
%MOMM*%
%LPD*%
G01*
G04 APERTURE LIST*
%ADD10R,2.400000X0.740000*%
G04 APERTURE END LIST*
%TO.C,J6*%
G36*
G01*
X150372000Y-125657000D02*
X147872000Y-125657000D01*
G75*
G02*
X147622000Y-125407000I0J250000D01*
G01*
X147622000Y-123807000D01*
G75*
G02*
X147872000Y-123557000I250000J0D01*
G01*
X150372000Y-123557000D01*
G75*
G02*
X150622000Y-123807000I0J-250000D01*
G01*
X150622000Y-125407000D01*
G75*
G02*
X150372000Y-125657000I-250000J0D01*
G01*
G37*
G36*
G01*
X150372000Y-134507000D02*
X147872000Y-134507000D01*
G75*
G02*
X147622000Y-134257000I0J250000D01*
G01*
X147622000Y-132657000D01*
G75*
G02*
X147872000Y-132407000I250000J0D01*
G01*
X150372000Y-132407000D01*
G75*
G02*
X150622000Y-132657000I0J-250000D01*
G01*
X150622000Y-134257000D01*
G75*
G02*
X150372000Y-134507000I-250000J0D01*
G01*
G37*
G36*
G01*
X152322000Y-127557000D02*
X151422000Y-127557000D01*
G75*
G02*
X151222000Y-127357000I0J200000D01*
G01*
X151222000Y-126957000D01*
G75*
G02*
X151422000Y-126757000I200000J0D01*
G01*
X152322000Y-126757000D01*
G75*
G02*
X152522000Y-126957000I0J-200000D01*
G01*
X152522000Y-127357000D01*
G75*
G02*
X152322000Y-127557000I-200000J0D01*
G01*
G37*
G36*
G01*
X152322000Y-128807000D02*
X151422000Y-128807000D01*
G75*
G02*
X151222000Y-128607000I0J200000D01*
G01*
X151222000Y-128207000D01*
G75*
G02*
X151422000Y-128007000I200000J0D01*
G01*
X152322000Y-128007000D01*
G75*
G02*
X152522000Y-128207000I0J-200000D01*
G01*
X152522000Y-128607000D01*
G75*
G02*
X152322000Y-128807000I-200000J0D01*
G01*
G37*
G36*
G01*
X152322000Y-130057000D02*
X151422000Y-130057000D01*
G75*
G02*
X151222000Y-129857000I0J200000D01*
G01*
X151222000Y-129457000D01*
G75*
G02*
X151422000Y-129257000I200000J0D01*
G01*
X152322000Y-129257000D01*
G75*
G02*
X152522000Y-129457000I0J-200000D01*
G01*
X152522000Y-129857000D01*
G75*
G02*
X152322000Y-130057000I-200000J0D01*
G01*
G37*
G36*
G01*
X152322000Y-131307000D02*
X151422000Y-131307000D01*
G75*
G02*
X151222000Y-131107000I0J200000D01*
G01*
X151222000Y-130707000D01*
G75*
G02*
X151422000Y-130507000I200000J0D01*
G01*
X152322000Y-130507000D01*
G75*
G02*
X152522000Y-130707000I0J-200000D01*
G01*
X152522000Y-131107000D01*
G75*
G02*
X152322000Y-131307000I-200000J0D01*
G01*
G37*
%TD*%
D10*
%TO.C,J2*%
X160610000Y-127762000D03*
X164510000Y-127762000D03*
X160610000Y-126492000D03*
X164510000Y-126492000D03*
X160610000Y-125222000D03*
X164510000Y-125222000D03*
X160610000Y-123952000D03*
X164510000Y-123952000D03*
X160610000Y-122682000D03*
X164510000Y-122682000D03*
%TD*%
M02*
