%TF.GenerationSoftware,KiCad,Pcbnew,(5.1.5)-3*%
%TF.CreationDate,2020-08-14T00:04:13+02:00*%
%TF.ProjectId,HorticultureSensor,486f7274-6963-4756-9c74-75726553656e,rev?*%
%TF.SameCoordinates,Original*%
%TF.FileFunction,Paste,Top*%
%TF.FilePolarity,Positive*%
%FSLAX46Y46*%
G04 Gerber Fmt 4.6, Leading zero omitted, Abs format (unit mm)*
G04 Created by KiCad (PCBNEW (5.1.5)-3) date 2020-08-14 00:04:13*
%MOMM*%
%LPD*%
G04 APERTURE LIST*
%ADD10R,0.900000X0.800000*%
%ADD11R,1.450000X0.450000*%
%ADD12R,0.800000X0.900000*%
%ADD13R,0.300000X0.500000*%
%ADD14R,0.800000X0.350000*%
%ADD15C,0.100000*%
%ADD16R,2.400000X0.740000*%
G04 APERTURE END LIST*
D10*
%TO.C,U3*%
X178675000Y-116325000D03*
X176675000Y-117275000D03*
X176675000Y-115375000D03*
%TD*%
D11*
%TO.C,U1*%
X153525000Y-131675000D03*
X153525000Y-131025000D03*
X153525000Y-130375000D03*
X153525000Y-129725000D03*
X153525000Y-129075000D03*
X153525000Y-128425000D03*
X153525000Y-127775000D03*
X153525000Y-127125000D03*
X153525000Y-126475000D03*
X153525000Y-125825000D03*
X159425000Y-125825000D03*
X159425000Y-126475000D03*
X159425000Y-127125000D03*
X159425000Y-127775000D03*
X159425000Y-128425000D03*
X159425000Y-129075000D03*
X159425000Y-129725000D03*
X159425000Y-130375000D03*
X159425000Y-131025000D03*
X159425000Y-131675000D03*
%TD*%
D12*
%TO.C,Q2*%
X187283740Y-137783380D03*
X186333740Y-135783380D03*
X188233740Y-135783380D03*
%TD*%
%TO.C,Q1*%
X184950560Y-119044500D03*
X185900560Y-121044500D03*
X184000560Y-121044500D03*
%TD*%
D13*
%TO.C,U2*%
X167875000Y-142975000D03*
X168825000Y-141075000D03*
X167875000Y-141075000D03*
X168825000Y-142975000D03*
D14*
X168350000Y-142025000D03*
%TD*%
D15*
%TO.C,R2*%
G36*
X187580142Y-131501174D02*
G01*
X187603803Y-131504684D01*
X187627007Y-131510496D01*
X187649529Y-131518554D01*
X187671153Y-131528782D01*
X187691670Y-131541079D01*
X187710883Y-131555329D01*
X187728607Y-131571393D01*
X187744671Y-131589117D01*
X187758921Y-131608330D01*
X187771218Y-131628847D01*
X187781446Y-131650471D01*
X187789504Y-131672993D01*
X187795316Y-131696197D01*
X187798826Y-131719858D01*
X187800000Y-131743750D01*
X187800000Y-132231250D01*
X187798826Y-132255142D01*
X187795316Y-132278803D01*
X187789504Y-132302007D01*
X187781446Y-132324529D01*
X187771218Y-132346153D01*
X187758921Y-132366670D01*
X187744671Y-132385883D01*
X187728607Y-132403607D01*
X187710883Y-132419671D01*
X187691670Y-132433921D01*
X187671153Y-132446218D01*
X187649529Y-132456446D01*
X187627007Y-132464504D01*
X187603803Y-132470316D01*
X187580142Y-132473826D01*
X187556250Y-132475000D01*
X186643750Y-132475000D01*
X186619858Y-132473826D01*
X186596197Y-132470316D01*
X186572993Y-132464504D01*
X186550471Y-132456446D01*
X186528847Y-132446218D01*
X186508330Y-132433921D01*
X186489117Y-132419671D01*
X186471393Y-132403607D01*
X186455329Y-132385883D01*
X186441079Y-132366670D01*
X186428782Y-132346153D01*
X186418554Y-132324529D01*
X186410496Y-132302007D01*
X186404684Y-132278803D01*
X186401174Y-132255142D01*
X186400000Y-132231250D01*
X186400000Y-131743750D01*
X186401174Y-131719858D01*
X186404684Y-131696197D01*
X186410496Y-131672993D01*
X186418554Y-131650471D01*
X186428782Y-131628847D01*
X186441079Y-131608330D01*
X186455329Y-131589117D01*
X186471393Y-131571393D01*
X186489117Y-131555329D01*
X186508330Y-131541079D01*
X186528847Y-131528782D01*
X186550471Y-131518554D01*
X186572993Y-131510496D01*
X186596197Y-131504684D01*
X186619858Y-131501174D01*
X186643750Y-131500000D01*
X187556250Y-131500000D01*
X187580142Y-131501174D01*
G37*
G36*
X187580142Y-133376174D02*
G01*
X187603803Y-133379684D01*
X187627007Y-133385496D01*
X187649529Y-133393554D01*
X187671153Y-133403782D01*
X187691670Y-133416079D01*
X187710883Y-133430329D01*
X187728607Y-133446393D01*
X187744671Y-133464117D01*
X187758921Y-133483330D01*
X187771218Y-133503847D01*
X187781446Y-133525471D01*
X187789504Y-133547993D01*
X187795316Y-133571197D01*
X187798826Y-133594858D01*
X187800000Y-133618750D01*
X187800000Y-134106250D01*
X187798826Y-134130142D01*
X187795316Y-134153803D01*
X187789504Y-134177007D01*
X187781446Y-134199529D01*
X187771218Y-134221153D01*
X187758921Y-134241670D01*
X187744671Y-134260883D01*
X187728607Y-134278607D01*
X187710883Y-134294671D01*
X187691670Y-134308921D01*
X187671153Y-134321218D01*
X187649529Y-134331446D01*
X187627007Y-134339504D01*
X187603803Y-134345316D01*
X187580142Y-134348826D01*
X187556250Y-134350000D01*
X186643750Y-134350000D01*
X186619858Y-134348826D01*
X186596197Y-134345316D01*
X186572993Y-134339504D01*
X186550471Y-134331446D01*
X186528847Y-134321218D01*
X186508330Y-134308921D01*
X186489117Y-134294671D01*
X186471393Y-134278607D01*
X186455329Y-134260883D01*
X186441079Y-134241670D01*
X186428782Y-134221153D01*
X186418554Y-134199529D01*
X186410496Y-134177007D01*
X186404684Y-134153803D01*
X186401174Y-134130142D01*
X186400000Y-134106250D01*
X186400000Y-133618750D01*
X186401174Y-133594858D01*
X186404684Y-133571197D01*
X186410496Y-133547993D01*
X186418554Y-133525471D01*
X186428782Y-133503847D01*
X186441079Y-133483330D01*
X186455329Y-133464117D01*
X186471393Y-133446393D01*
X186489117Y-133430329D01*
X186508330Y-133416079D01*
X186528847Y-133403782D01*
X186550471Y-133393554D01*
X186572993Y-133385496D01*
X186596197Y-133379684D01*
X186619858Y-133376174D01*
X186643750Y-133375000D01*
X187556250Y-133375000D01*
X187580142Y-133376174D01*
G37*
%TD*%
%TO.C,R1*%
G36*
X182180142Y-122426174D02*
G01*
X182203803Y-122429684D01*
X182227007Y-122435496D01*
X182249529Y-122443554D01*
X182271153Y-122453782D01*
X182291670Y-122466079D01*
X182310883Y-122480329D01*
X182328607Y-122496393D01*
X182344671Y-122514117D01*
X182358921Y-122533330D01*
X182371218Y-122553847D01*
X182381446Y-122575471D01*
X182389504Y-122597993D01*
X182395316Y-122621197D01*
X182398826Y-122644858D01*
X182400000Y-122668750D01*
X182400000Y-123156250D01*
X182398826Y-123180142D01*
X182395316Y-123203803D01*
X182389504Y-123227007D01*
X182381446Y-123249529D01*
X182371218Y-123271153D01*
X182358921Y-123291670D01*
X182344671Y-123310883D01*
X182328607Y-123328607D01*
X182310883Y-123344671D01*
X182291670Y-123358921D01*
X182271153Y-123371218D01*
X182249529Y-123381446D01*
X182227007Y-123389504D01*
X182203803Y-123395316D01*
X182180142Y-123398826D01*
X182156250Y-123400000D01*
X181243750Y-123400000D01*
X181219858Y-123398826D01*
X181196197Y-123395316D01*
X181172993Y-123389504D01*
X181150471Y-123381446D01*
X181128847Y-123371218D01*
X181108330Y-123358921D01*
X181089117Y-123344671D01*
X181071393Y-123328607D01*
X181055329Y-123310883D01*
X181041079Y-123291670D01*
X181028782Y-123271153D01*
X181018554Y-123249529D01*
X181010496Y-123227007D01*
X181004684Y-123203803D01*
X181001174Y-123180142D01*
X181000000Y-123156250D01*
X181000000Y-122668750D01*
X181001174Y-122644858D01*
X181004684Y-122621197D01*
X181010496Y-122597993D01*
X181018554Y-122575471D01*
X181028782Y-122553847D01*
X181041079Y-122533330D01*
X181055329Y-122514117D01*
X181071393Y-122496393D01*
X181089117Y-122480329D01*
X181108330Y-122466079D01*
X181128847Y-122453782D01*
X181150471Y-122443554D01*
X181172993Y-122435496D01*
X181196197Y-122429684D01*
X181219858Y-122426174D01*
X181243750Y-122425000D01*
X182156250Y-122425000D01*
X182180142Y-122426174D01*
G37*
G36*
X182180142Y-120551174D02*
G01*
X182203803Y-120554684D01*
X182227007Y-120560496D01*
X182249529Y-120568554D01*
X182271153Y-120578782D01*
X182291670Y-120591079D01*
X182310883Y-120605329D01*
X182328607Y-120621393D01*
X182344671Y-120639117D01*
X182358921Y-120658330D01*
X182371218Y-120678847D01*
X182381446Y-120700471D01*
X182389504Y-120722993D01*
X182395316Y-120746197D01*
X182398826Y-120769858D01*
X182400000Y-120793750D01*
X182400000Y-121281250D01*
X182398826Y-121305142D01*
X182395316Y-121328803D01*
X182389504Y-121352007D01*
X182381446Y-121374529D01*
X182371218Y-121396153D01*
X182358921Y-121416670D01*
X182344671Y-121435883D01*
X182328607Y-121453607D01*
X182310883Y-121469671D01*
X182291670Y-121483921D01*
X182271153Y-121496218D01*
X182249529Y-121506446D01*
X182227007Y-121514504D01*
X182203803Y-121520316D01*
X182180142Y-121523826D01*
X182156250Y-121525000D01*
X181243750Y-121525000D01*
X181219858Y-121523826D01*
X181196197Y-121520316D01*
X181172993Y-121514504D01*
X181150471Y-121506446D01*
X181128847Y-121496218D01*
X181108330Y-121483921D01*
X181089117Y-121469671D01*
X181071393Y-121453607D01*
X181055329Y-121435883D01*
X181041079Y-121416670D01*
X181028782Y-121396153D01*
X181018554Y-121374529D01*
X181010496Y-121352007D01*
X181004684Y-121328803D01*
X181001174Y-121305142D01*
X181000000Y-121281250D01*
X181000000Y-120793750D01*
X181001174Y-120769858D01*
X181004684Y-120746197D01*
X181010496Y-120722993D01*
X181018554Y-120700471D01*
X181028782Y-120678847D01*
X181041079Y-120658330D01*
X181055329Y-120639117D01*
X181071393Y-120621393D01*
X181089117Y-120605329D01*
X181108330Y-120591079D01*
X181128847Y-120578782D01*
X181150471Y-120568554D01*
X181172993Y-120560496D01*
X181196197Y-120554684D01*
X181219858Y-120551174D01*
X181243750Y-120550000D01*
X182156250Y-120550000D01*
X182180142Y-120551174D01*
G37*
%TD*%
D16*
%TO.C,J2*%
X168425000Y-119010000D03*
X172325000Y-119010000D03*
X168425000Y-120280000D03*
X172325000Y-120280000D03*
X168425000Y-121550000D03*
X172325000Y-121550000D03*
X168425000Y-122820000D03*
X172325000Y-122820000D03*
X168425000Y-124090000D03*
X172325000Y-124090000D03*
%TD*%
D15*
%TO.C,C2*%
G36*
X178861342Y-119399554D02*
G01*
X178885003Y-119403064D01*
X178908207Y-119408876D01*
X178930729Y-119416934D01*
X178952353Y-119427162D01*
X178972870Y-119439459D01*
X178992083Y-119453709D01*
X179009807Y-119469773D01*
X179025871Y-119487497D01*
X179040121Y-119506710D01*
X179052418Y-119527227D01*
X179062646Y-119548851D01*
X179070704Y-119571373D01*
X179076516Y-119594577D01*
X179080026Y-119618238D01*
X179081200Y-119642130D01*
X179081200Y-120554630D01*
X179080026Y-120578522D01*
X179076516Y-120602183D01*
X179070704Y-120625387D01*
X179062646Y-120647909D01*
X179052418Y-120669533D01*
X179040121Y-120690050D01*
X179025871Y-120709263D01*
X179009807Y-120726987D01*
X178992083Y-120743051D01*
X178972870Y-120757301D01*
X178952353Y-120769598D01*
X178930729Y-120779826D01*
X178908207Y-120787884D01*
X178885003Y-120793696D01*
X178861342Y-120797206D01*
X178837450Y-120798380D01*
X178349950Y-120798380D01*
X178326058Y-120797206D01*
X178302397Y-120793696D01*
X178279193Y-120787884D01*
X178256671Y-120779826D01*
X178235047Y-120769598D01*
X178214530Y-120757301D01*
X178195317Y-120743051D01*
X178177593Y-120726987D01*
X178161529Y-120709263D01*
X178147279Y-120690050D01*
X178134982Y-120669533D01*
X178124754Y-120647909D01*
X178116696Y-120625387D01*
X178110884Y-120602183D01*
X178107374Y-120578522D01*
X178106200Y-120554630D01*
X178106200Y-119642130D01*
X178107374Y-119618238D01*
X178110884Y-119594577D01*
X178116696Y-119571373D01*
X178124754Y-119548851D01*
X178134982Y-119527227D01*
X178147279Y-119506710D01*
X178161529Y-119487497D01*
X178177593Y-119469773D01*
X178195317Y-119453709D01*
X178214530Y-119439459D01*
X178235047Y-119427162D01*
X178256671Y-119416934D01*
X178279193Y-119408876D01*
X178302397Y-119403064D01*
X178326058Y-119399554D01*
X178349950Y-119398380D01*
X178837450Y-119398380D01*
X178861342Y-119399554D01*
G37*
G36*
X176986342Y-119399554D02*
G01*
X177010003Y-119403064D01*
X177033207Y-119408876D01*
X177055729Y-119416934D01*
X177077353Y-119427162D01*
X177097870Y-119439459D01*
X177117083Y-119453709D01*
X177134807Y-119469773D01*
X177150871Y-119487497D01*
X177165121Y-119506710D01*
X177177418Y-119527227D01*
X177187646Y-119548851D01*
X177195704Y-119571373D01*
X177201516Y-119594577D01*
X177205026Y-119618238D01*
X177206200Y-119642130D01*
X177206200Y-120554630D01*
X177205026Y-120578522D01*
X177201516Y-120602183D01*
X177195704Y-120625387D01*
X177187646Y-120647909D01*
X177177418Y-120669533D01*
X177165121Y-120690050D01*
X177150871Y-120709263D01*
X177134807Y-120726987D01*
X177117083Y-120743051D01*
X177097870Y-120757301D01*
X177077353Y-120769598D01*
X177055729Y-120779826D01*
X177033207Y-120787884D01*
X177010003Y-120793696D01*
X176986342Y-120797206D01*
X176962450Y-120798380D01*
X176474950Y-120798380D01*
X176451058Y-120797206D01*
X176427397Y-120793696D01*
X176404193Y-120787884D01*
X176381671Y-120779826D01*
X176360047Y-120769598D01*
X176339530Y-120757301D01*
X176320317Y-120743051D01*
X176302593Y-120726987D01*
X176286529Y-120709263D01*
X176272279Y-120690050D01*
X176259982Y-120669533D01*
X176249754Y-120647909D01*
X176241696Y-120625387D01*
X176235884Y-120602183D01*
X176232374Y-120578522D01*
X176231200Y-120554630D01*
X176231200Y-119642130D01*
X176232374Y-119618238D01*
X176235884Y-119594577D01*
X176241696Y-119571373D01*
X176249754Y-119548851D01*
X176259982Y-119527227D01*
X176272279Y-119506710D01*
X176286529Y-119487497D01*
X176302593Y-119469773D01*
X176320317Y-119453709D01*
X176339530Y-119439459D01*
X176360047Y-119427162D01*
X176381671Y-119416934D01*
X176404193Y-119408876D01*
X176427397Y-119403064D01*
X176451058Y-119399554D01*
X176474950Y-119398380D01*
X176962450Y-119398380D01*
X176986342Y-119399554D01*
G37*
%TD*%
%TO.C,C1*%
G36*
X181049722Y-117702214D02*
G01*
X181073383Y-117705724D01*
X181096587Y-117711536D01*
X181119109Y-117719594D01*
X181140733Y-117729822D01*
X181161250Y-117742119D01*
X181180463Y-117756369D01*
X181198187Y-117772433D01*
X181214251Y-117790157D01*
X181228501Y-117809370D01*
X181240798Y-117829887D01*
X181251026Y-117851511D01*
X181259084Y-117874033D01*
X181264896Y-117897237D01*
X181268406Y-117920898D01*
X181269580Y-117944790D01*
X181269580Y-118432290D01*
X181268406Y-118456182D01*
X181264896Y-118479843D01*
X181259084Y-118503047D01*
X181251026Y-118525569D01*
X181240798Y-118547193D01*
X181228501Y-118567710D01*
X181214251Y-118586923D01*
X181198187Y-118604647D01*
X181180463Y-118620711D01*
X181161250Y-118634961D01*
X181140733Y-118647258D01*
X181119109Y-118657486D01*
X181096587Y-118665544D01*
X181073383Y-118671356D01*
X181049722Y-118674866D01*
X181025830Y-118676040D01*
X180113330Y-118676040D01*
X180089438Y-118674866D01*
X180065777Y-118671356D01*
X180042573Y-118665544D01*
X180020051Y-118657486D01*
X179998427Y-118647258D01*
X179977910Y-118634961D01*
X179958697Y-118620711D01*
X179940973Y-118604647D01*
X179924909Y-118586923D01*
X179910659Y-118567710D01*
X179898362Y-118547193D01*
X179888134Y-118525569D01*
X179880076Y-118503047D01*
X179874264Y-118479843D01*
X179870754Y-118456182D01*
X179869580Y-118432290D01*
X179869580Y-117944790D01*
X179870754Y-117920898D01*
X179874264Y-117897237D01*
X179880076Y-117874033D01*
X179888134Y-117851511D01*
X179898362Y-117829887D01*
X179910659Y-117809370D01*
X179924909Y-117790157D01*
X179940973Y-117772433D01*
X179958697Y-117756369D01*
X179977910Y-117742119D01*
X179998427Y-117729822D01*
X180020051Y-117719594D01*
X180042573Y-117711536D01*
X180065777Y-117705724D01*
X180089438Y-117702214D01*
X180113330Y-117701040D01*
X181025830Y-117701040D01*
X181049722Y-117702214D01*
G37*
G36*
X181049722Y-115827214D02*
G01*
X181073383Y-115830724D01*
X181096587Y-115836536D01*
X181119109Y-115844594D01*
X181140733Y-115854822D01*
X181161250Y-115867119D01*
X181180463Y-115881369D01*
X181198187Y-115897433D01*
X181214251Y-115915157D01*
X181228501Y-115934370D01*
X181240798Y-115954887D01*
X181251026Y-115976511D01*
X181259084Y-115999033D01*
X181264896Y-116022237D01*
X181268406Y-116045898D01*
X181269580Y-116069790D01*
X181269580Y-116557290D01*
X181268406Y-116581182D01*
X181264896Y-116604843D01*
X181259084Y-116628047D01*
X181251026Y-116650569D01*
X181240798Y-116672193D01*
X181228501Y-116692710D01*
X181214251Y-116711923D01*
X181198187Y-116729647D01*
X181180463Y-116745711D01*
X181161250Y-116759961D01*
X181140733Y-116772258D01*
X181119109Y-116782486D01*
X181096587Y-116790544D01*
X181073383Y-116796356D01*
X181049722Y-116799866D01*
X181025830Y-116801040D01*
X180113330Y-116801040D01*
X180089438Y-116799866D01*
X180065777Y-116796356D01*
X180042573Y-116790544D01*
X180020051Y-116782486D01*
X179998427Y-116772258D01*
X179977910Y-116759961D01*
X179958697Y-116745711D01*
X179940973Y-116729647D01*
X179924909Y-116711923D01*
X179910659Y-116692710D01*
X179898362Y-116672193D01*
X179888134Y-116650569D01*
X179880076Y-116628047D01*
X179874264Y-116604843D01*
X179870754Y-116581182D01*
X179869580Y-116557290D01*
X179869580Y-116069790D01*
X179870754Y-116045898D01*
X179874264Y-116022237D01*
X179880076Y-115999033D01*
X179888134Y-115976511D01*
X179898362Y-115954887D01*
X179910659Y-115934370D01*
X179924909Y-115915157D01*
X179940973Y-115897433D01*
X179958697Y-115881369D01*
X179977910Y-115867119D01*
X179998427Y-115854822D01*
X180020051Y-115844594D01*
X180042573Y-115836536D01*
X180065777Y-115830724D01*
X180089438Y-115827214D01*
X180113330Y-115826040D01*
X181025830Y-115826040D01*
X181049722Y-115827214D01*
G37*
%TD*%
M02*
