%TF.GenerationSoftware,KiCad,Pcbnew,(5.1.6)-1*%
%TF.CreationDate,2020-12-06T01:58:00+01:00*%
%TF.ProjectId,HorticultureSensor,486f7274-6963-4756-9c74-75726553656e,1.0*%
%TF.SameCoordinates,Original*%
%TF.FileFunction,Legend,Top*%
%TF.FilePolarity,Positive*%
%FSLAX46Y46*%
G04 Gerber Fmt 4.6, Leading zero omitted, Abs format (unit mm)*
G04 Created by KiCad (PCBNEW (5.1.6)-1) date 2020-12-06 01:58:00*
%MOMM*%
%LPD*%
G01*
G04 APERTURE LIST*
%ADD10C,0.120000*%
%ADD11C,0.300000*%
%ADD12C,0.250000*%
%ADD13C,0.150000*%
G04 APERTURE END LIST*
D10*
X161070000Y-132460000D02*
G75*
G03*
X161070000Y-132460000I-254000J0D01*
G01*
D11*
X144491428Y-134540000D02*
X145205714Y-134540000D01*
X144348571Y-134968571D02*
X144848571Y-133468571D01*
X145348571Y-134968571D01*
X146491428Y-134968571D02*
X146491428Y-133468571D01*
X146491428Y-134897142D02*
X146348571Y-134968571D01*
X146062857Y-134968571D01*
X145920000Y-134897142D01*
X145848571Y-134825714D01*
X145777142Y-134682857D01*
X145777142Y-134254285D01*
X145848571Y-134111428D01*
X145920000Y-134040000D01*
X146062857Y-133968571D01*
X146348571Y-133968571D01*
X146491428Y-134040000D01*
X147848571Y-134968571D02*
X147848571Y-133468571D01*
X147848571Y-134897142D02*
X147705714Y-134968571D01*
X147420000Y-134968571D01*
X147277142Y-134897142D01*
X147205714Y-134825714D01*
X147134285Y-134682857D01*
X147134285Y-134254285D01*
X147205714Y-134111428D01*
X147277142Y-134040000D01*
X147420000Y-133968571D01*
X147705714Y-133968571D01*
X147848571Y-134040000D01*
X148562857Y-134968571D02*
X148562857Y-133968571D01*
X148562857Y-134254285D02*
X148634285Y-134111428D01*
X148705714Y-134040000D01*
X148848571Y-133968571D01*
X148991428Y-133968571D01*
D12*
X158154761Y-115257619D02*
X158154761Y-115924285D01*
X158154761Y-116257619D02*
X158202380Y-116210000D01*
X158154761Y-116162380D01*
X158107142Y-116210000D01*
X158154761Y-116257619D01*
X158154761Y-116162380D01*
X157726190Y-116162380D02*
X157678571Y-116210000D01*
X157583333Y-116257619D01*
X157345238Y-116257619D01*
X157250000Y-116210000D01*
X157202380Y-116162380D01*
X157154761Y-116067142D01*
X157154761Y-115971904D01*
X157202380Y-115829047D01*
X157773809Y-115257619D01*
X157154761Y-115257619D01*
X156297619Y-115305238D02*
X156392857Y-115257619D01*
X156583333Y-115257619D01*
X156678571Y-115305238D01*
X156726190Y-115352857D01*
X156773809Y-115448095D01*
X156773809Y-115733809D01*
X156726190Y-115829047D01*
X156678571Y-115876666D01*
X156583333Y-115924285D01*
X156392857Y-115924285D01*
X156297619Y-115876666D01*
X156325238Y-145012380D02*
X156325238Y-144345714D01*
X156325238Y-144012380D02*
X156277619Y-144060000D01*
X156325238Y-144107619D01*
X156372857Y-144060000D01*
X156325238Y-144012380D01*
X156325238Y-144107619D01*
X156753809Y-144107619D02*
X156801428Y-144060000D01*
X156896666Y-144012380D01*
X157134761Y-144012380D01*
X157230000Y-144060000D01*
X157277619Y-144107619D01*
X157325238Y-144202857D01*
X157325238Y-144298095D01*
X157277619Y-144440952D01*
X156706190Y-145012380D01*
X157325238Y-145012380D01*
X158182380Y-144964761D02*
X158087142Y-145012380D01*
X157896666Y-145012380D01*
X157801428Y-144964761D01*
X157753809Y-144917142D01*
X157706190Y-144821904D01*
X157706190Y-144536190D01*
X157753809Y-144440952D01*
X157801428Y-144393333D01*
X157896666Y-144345714D01*
X158087142Y-144345714D01*
X158182380Y-144393333D01*
X162641666Y-132229523D02*
X162641666Y-131753333D01*
X162927380Y-132324761D02*
X161927380Y-131991428D01*
X162927380Y-131658095D01*
X162260714Y-131324761D02*
X162927380Y-131324761D01*
X162355952Y-131324761D02*
X162308333Y-131277142D01*
X162260714Y-131181904D01*
X162260714Y-131039047D01*
X162308333Y-130943809D01*
X162403571Y-130896190D01*
X162927380Y-130896190D01*
X162927380Y-129991428D02*
X162403571Y-129991428D01*
X162308333Y-130039047D01*
X162260714Y-130134285D01*
X162260714Y-130324761D01*
X162308333Y-130420000D01*
X162879761Y-129991428D02*
X162927380Y-130086666D01*
X162927380Y-130324761D01*
X162879761Y-130420000D01*
X162784523Y-130467619D01*
X162689285Y-130467619D01*
X162594047Y-130420000D01*
X162546428Y-130324761D01*
X162546428Y-130086666D01*
X162498809Y-129991428D01*
X162927380Y-129372380D02*
X162879761Y-129467619D01*
X162784523Y-129515238D01*
X161927380Y-129515238D01*
X162927380Y-128848571D02*
X162879761Y-128943809D01*
X162832142Y-128991428D01*
X162736904Y-129039047D01*
X162451190Y-129039047D01*
X162355952Y-128991428D01*
X162308333Y-128943809D01*
X162260714Y-128848571D01*
X162260714Y-128705714D01*
X162308333Y-128610476D01*
X162355952Y-128562857D01*
X162451190Y-128515238D01*
X162736904Y-128515238D01*
X162832142Y-128562857D01*
X162879761Y-128610476D01*
X162927380Y-128705714D01*
X162927380Y-128848571D01*
X162260714Y-127658095D02*
X163070238Y-127658095D01*
X163165476Y-127705714D01*
X163213095Y-127753333D01*
X163260714Y-127848571D01*
X163260714Y-127991428D01*
X163213095Y-128086666D01*
X162879761Y-127658095D02*
X162927380Y-127753333D01*
X162927380Y-127943809D01*
X162879761Y-128039047D01*
X162832142Y-128086666D01*
X162736904Y-128134285D01*
X162451190Y-128134285D01*
X162355952Y-128086666D01*
X162308333Y-128039047D01*
X162260714Y-127943809D01*
X162260714Y-127753333D01*
X162308333Y-127658095D01*
X163677380Y-132491428D02*
X163677380Y-132396190D01*
X163725000Y-132300952D01*
X163772619Y-132253333D01*
X163867857Y-132205714D01*
X164058333Y-132158095D01*
X164296428Y-132158095D01*
X164486904Y-132205714D01*
X164582142Y-132253333D01*
X164629761Y-132300952D01*
X164677380Y-132396190D01*
X164677380Y-132491428D01*
X164629761Y-132586666D01*
X164582142Y-132634285D01*
X164486904Y-132681904D01*
X164296428Y-132729523D01*
X164058333Y-132729523D01*
X163867857Y-132681904D01*
X163772619Y-132634285D01*
X163725000Y-132586666D01*
X163677380Y-132491428D01*
X163629761Y-129491428D02*
X164915476Y-130348571D01*
X164677380Y-127110476D02*
X164677380Y-127681904D01*
X164677380Y-127396190D02*
X163677380Y-127396190D01*
X163820238Y-127491428D01*
X163915476Y-127586666D01*
X163963095Y-127681904D01*
X150908571Y-134412380D02*
X150908571Y-133412380D01*
X150908571Y-133888571D02*
X151480000Y-133888571D01*
X151480000Y-134412380D02*
X151480000Y-133412380D01*
X152099047Y-134412380D02*
X152003809Y-134364761D01*
X151956190Y-134317142D01*
X151908571Y-134221904D01*
X151908571Y-133936190D01*
X151956190Y-133840952D01*
X152003809Y-133793333D01*
X152099047Y-133745714D01*
X152241904Y-133745714D01*
X152337142Y-133793333D01*
X152384761Y-133840952D01*
X152432380Y-133936190D01*
X152432380Y-134221904D01*
X152384761Y-134317142D01*
X152337142Y-134364761D01*
X152241904Y-134412380D01*
X152099047Y-134412380D01*
X152860952Y-134412380D02*
X152860952Y-133745714D01*
X152860952Y-133936190D02*
X152908571Y-133840952D01*
X152956190Y-133793333D01*
X153051428Y-133745714D01*
X153146666Y-133745714D01*
X153337142Y-133745714D02*
X153718095Y-133745714D01*
X153480000Y-133412380D02*
X153480000Y-134269523D01*
X153527619Y-134364761D01*
X153622857Y-134412380D01*
X153718095Y-134412380D01*
X154051428Y-134412380D02*
X154051428Y-133745714D01*
X154051428Y-133412380D02*
X154003809Y-133460000D01*
X154051428Y-133507619D01*
X154099047Y-133460000D01*
X154051428Y-133412380D01*
X154051428Y-133507619D01*
X154956190Y-134364761D02*
X154860952Y-134412380D01*
X154670476Y-134412380D01*
X154575238Y-134364761D01*
X154527619Y-134317142D01*
X154480000Y-134221904D01*
X154480000Y-133936190D01*
X154527619Y-133840952D01*
X154575238Y-133793333D01*
X154670476Y-133745714D01*
X154860952Y-133745714D01*
X154956190Y-133793333D01*
X155813333Y-133745714D02*
X155813333Y-134412380D01*
X155384761Y-133745714D02*
X155384761Y-134269523D01*
X155432380Y-134364761D01*
X155527619Y-134412380D01*
X155670476Y-134412380D01*
X155765714Y-134364761D01*
X155813333Y-134317142D01*
X156432380Y-134412380D02*
X156337142Y-134364761D01*
X156289523Y-134269523D01*
X156289523Y-133412380D01*
X156670476Y-133745714D02*
X157051428Y-133745714D01*
X156813333Y-133412380D02*
X156813333Y-134269523D01*
X156860952Y-134364761D01*
X156956190Y-134412380D01*
X157051428Y-134412380D01*
X157813333Y-133745714D02*
X157813333Y-134412380D01*
X157384761Y-133745714D02*
X157384761Y-134269523D01*
X157432380Y-134364761D01*
X157527619Y-134412380D01*
X157670476Y-134412380D01*
X157765714Y-134364761D01*
X157813333Y-134317142D01*
X158289523Y-134412380D02*
X158289523Y-133745714D01*
X158289523Y-133936190D02*
X158337142Y-133840952D01*
X158384761Y-133793333D01*
X158480000Y-133745714D01*
X158575238Y-133745714D01*
X159289523Y-134364761D02*
X159194285Y-134412380D01*
X159003809Y-134412380D01*
X158908571Y-134364761D01*
X158860952Y-134269523D01*
X158860952Y-133888571D01*
X158908571Y-133793333D01*
X159003809Y-133745714D01*
X159194285Y-133745714D01*
X159289523Y-133793333D01*
X159337142Y-133888571D01*
X159337142Y-133983809D01*
X158860952Y-134079047D01*
X151408571Y-136114761D02*
X151551428Y-136162380D01*
X151789523Y-136162380D01*
X151884761Y-136114761D01*
X151932380Y-136067142D01*
X151980000Y-135971904D01*
X151980000Y-135876666D01*
X151932380Y-135781428D01*
X151884761Y-135733809D01*
X151789523Y-135686190D01*
X151599047Y-135638571D01*
X151503809Y-135590952D01*
X151456190Y-135543333D01*
X151408571Y-135448095D01*
X151408571Y-135352857D01*
X151456190Y-135257619D01*
X151503809Y-135210000D01*
X151599047Y-135162380D01*
X151837142Y-135162380D01*
X151980000Y-135210000D01*
X152551428Y-136162380D02*
X152456190Y-136114761D01*
X152408571Y-136067142D01*
X152360952Y-135971904D01*
X152360952Y-135686190D01*
X152408571Y-135590952D01*
X152456190Y-135543333D01*
X152551428Y-135495714D01*
X152694285Y-135495714D01*
X152789523Y-135543333D01*
X152837142Y-135590952D01*
X152884761Y-135686190D01*
X152884761Y-135971904D01*
X152837142Y-136067142D01*
X152789523Y-136114761D01*
X152694285Y-136162380D01*
X152551428Y-136162380D01*
X153313333Y-136162380D02*
X153313333Y-135495714D01*
X153313333Y-135162380D02*
X153265714Y-135210000D01*
X153313333Y-135257619D01*
X153360952Y-135210000D01*
X153313333Y-135162380D01*
X153313333Y-135257619D01*
X153932380Y-136162380D02*
X153837142Y-136114761D01*
X153789523Y-136019523D01*
X153789523Y-135162380D01*
X154265714Y-136114761D02*
X154360952Y-136162380D01*
X154551428Y-136162380D01*
X154646666Y-136114761D01*
X154694285Y-136019523D01*
X154694285Y-135971904D01*
X154646666Y-135876666D01*
X154551428Y-135829047D01*
X154408571Y-135829047D01*
X154313333Y-135781428D01*
X154265714Y-135686190D01*
X154265714Y-135638571D01*
X154313333Y-135543333D01*
X154408571Y-135495714D01*
X154551428Y-135495714D01*
X154646666Y-135543333D01*
X155503809Y-136114761D02*
X155408571Y-136162380D01*
X155218095Y-136162380D01*
X155122857Y-136114761D01*
X155075238Y-136019523D01*
X155075238Y-135638571D01*
X155122857Y-135543333D01*
X155218095Y-135495714D01*
X155408571Y-135495714D01*
X155503809Y-135543333D01*
X155551428Y-135638571D01*
X155551428Y-135733809D01*
X155075238Y-135829047D01*
X155980000Y-135495714D02*
X155980000Y-136162380D01*
X155980000Y-135590952D02*
X156027619Y-135543333D01*
X156122857Y-135495714D01*
X156265714Y-135495714D01*
X156360952Y-135543333D01*
X156408571Y-135638571D01*
X156408571Y-136162380D01*
X156837142Y-136114761D02*
X156932380Y-136162380D01*
X157122857Y-136162380D01*
X157218095Y-136114761D01*
X157265714Y-136019523D01*
X157265714Y-135971904D01*
X157218095Y-135876666D01*
X157122857Y-135829047D01*
X156980000Y-135829047D01*
X156884761Y-135781428D01*
X156837142Y-135686190D01*
X156837142Y-135638571D01*
X156884761Y-135543333D01*
X156980000Y-135495714D01*
X157122857Y-135495714D01*
X157218095Y-135543333D01*
X157837142Y-136162380D02*
X157741904Y-136114761D01*
X157694285Y-136067142D01*
X157646666Y-135971904D01*
X157646666Y-135686190D01*
X157694285Y-135590952D01*
X157741904Y-135543333D01*
X157837142Y-135495714D01*
X157980000Y-135495714D01*
X158075238Y-135543333D01*
X158122857Y-135590952D01*
X158170476Y-135686190D01*
X158170476Y-135971904D01*
X158122857Y-136067142D01*
X158075238Y-136114761D01*
X157980000Y-136162380D01*
X157837142Y-136162380D01*
X158599047Y-136162380D02*
X158599047Y-135495714D01*
X158599047Y-135686190D02*
X158646666Y-135590952D01*
X158694285Y-135543333D01*
X158789523Y-135495714D01*
X158884761Y-135495714D01*
X153027619Y-137912380D02*
X153027619Y-137245714D01*
X153027619Y-137436190D02*
X153075238Y-137340952D01*
X153122857Y-137293333D01*
X153218095Y-137245714D01*
X153313333Y-137245714D01*
X154027619Y-137864761D02*
X153932380Y-137912380D01*
X153741904Y-137912380D01*
X153646666Y-137864761D01*
X153599047Y-137769523D01*
X153599047Y-137388571D01*
X153646666Y-137293333D01*
X153741904Y-137245714D01*
X153932380Y-137245714D01*
X154027619Y-137293333D01*
X154075238Y-137388571D01*
X154075238Y-137483809D01*
X153599047Y-137579047D01*
X154408571Y-137245714D02*
X154646666Y-137912380D01*
X154884761Y-137245714D01*
X156551428Y-137912380D02*
X155980000Y-137912380D01*
X156265714Y-137912380D02*
X156265714Y-136912380D01*
X156170476Y-137055238D01*
X156075238Y-137150476D01*
X155980000Y-137198095D01*
X156980000Y-137817142D02*
X157027619Y-137864761D01*
X156980000Y-137912380D01*
X156932380Y-137864761D01*
X156980000Y-137817142D01*
X156980000Y-137912380D01*
X157646666Y-136912380D02*
X157741904Y-136912380D01*
X157837142Y-136960000D01*
X157884761Y-137007619D01*
X157932380Y-137102857D01*
X157980000Y-137293333D01*
X157980000Y-137531428D01*
X157932380Y-137721904D01*
X157884761Y-137817142D01*
X157837142Y-137864761D01*
X157741904Y-137912380D01*
X157646666Y-137912380D01*
X157551428Y-137864761D01*
X157503809Y-137817142D01*
X157456190Y-137721904D01*
X157408571Y-137531428D01*
X157408571Y-137293333D01*
X157456190Y-137102857D01*
X157503809Y-137007619D01*
X157551428Y-136960000D01*
X157646666Y-136912380D01*
D10*
%TO.C,J3*%
X165856000Y-138242000D02*
X164906000Y-138242000D01*
X164906000Y-138242000D02*
X164906000Y-137292000D01*
X164906000Y-137292000D02*
X164216000Y-137292000D01*
X165856000Y-132522000D02*
X164906000Y-132522000D01*
X164906000Y-132522000D02*
X164906000Y-133472000D01*
X168826000Y-137872000D02*
X168826000Y-132892000D01*
%TO.C,J4*%
X153995000Y-140710000D02*
X153995000Y-139760000D01*
X153995000Y-139760000D02*
X154945000Y-139760000D01*
X154945000Y-139760000D02*
X154945000Y-139070000D01*
X160965000Y-140710000D02*
X160965000Y-139760000D01*
X160965000Y-139760000D02*
X160015000Y-139760000D01*
X154365000Y-143680000D02*
X160595000Y-143680000D01*
%TO.C,J1*%
X160965000Y-119894000D02*
X160965000Y-120844000D01*
X160965000Y-120844000D02*
X160015000Y-120844000D01*
X160015000Y-120844000D02*
X160015000Y-121534000D01*
X153995000Y-119894000D02*
X153995000Y-120844000D01*
X153995000Y-120844000D02*
X154945000Y-120844000D01*
X160595000Y-116924000D02*
X154365000Y-116924000D01*
%TO.C,R1*%
X159885000Y-135857064D02*
X159885000Y-135402936D01*
X161355000Y-135857064D02*
X161355000Y-135402936D01*
%TO.C,C1*%
X150649000Y-129547252D02*
X150649000Y-129024748D01*
X152119000Y-129547252D02*
X152119000Y-129024748D01*
%TO.C,J5*%
X165856000Y-127390000D02*
X164906000Y-127390000D01*
X164906000Y-127390000D02*
X164906000Y-126440000D01*
X164906000Y-126440000D02*
X164216000Y-126440000D01*
X165856000Y-121670000D02*
X164906000Y-121670000D01*
X164906000Y-121670000D02*
X164906000Y-122620000D01*
X168826000Y-127020000D02*
X168826000Y-122040000D01*
D13*
%TO.C,U1*%
X160225000Y-132200000D02*
X154250000Y-132200000D01*
X158700000Y-125300000D02*
X154250000Y-125300000D01*
D10*
%TO.C,JP5*%
X148898640Y-133075000D02*
X147498640Y-133075000D01*
X146798640Y-132375000D02*
X146798640Y-131775000D01*
X147498640Y-131075000D02*
X148898640Y-131075000D01*
X149598640Y-131775000D02*
X149598640Y-132375000D01*
X149598640Y-132375000D02*
G75*
G02*
X148898640Y-133075000I-700000J0D01*
G01*
X148898640Y-131075000D02*
G75*
G02*
X149598640Y-131775000I0J-700000D01*
G01*
X146798640Y-131775000D02*
G75*
G02*
X147498640Y-131075000I700000J0D01*
G01*
X147498640Y-133075000D02*
G75*
G02*
X146798640Y-132375000I0J700000D01*
G01*
%TO.C,JP4*%
X148898640Y-130500000D02*
X147498640Y-130500000D01*
X146798640Y-129800000D02*
X146798640Y-129200000D01*
X147498640Y-128500000D02*
X148898640Y-128500000D01*
X149598640Y-129200000D02*
X149598640Y-129800000D01*
X149598640Y-129800000D02*
G75*
G02*
X148898640Y-130500000I-700000J0D01*
G01*
X148898640Y-128500000D02*
G75*
G02*
X149598640Y-129200000I0J-700000D01*
G01*
X146798640Y-129200000D02*
G75*
G02*
X147498640Y-128500000I700000J0D01*
G01*
X147498640Y-130500000D02*
G75*
G02*
X146798640Y-129800000I0J700000D01*
G01*
%TO.C,JP3*%
X148898640Y-127925000D02*
X147498640Y-127925000D01*
X146798640Y-127225000D02*
X146798640Y-126625000D01*
X147498640Y-125925000D02*
X148898640Y-125925000D01*
X149598640Y-126625000D02*
X149598640Y-127225000D01*
X149598640Y-127225000D02*
G75*
G02*
X148898640Y-127925000I-700000J0D01*
G01*
X148898640Y-125925000D02*
G75*
G02*
X149598640Y-126625000I0J-700000D01*
G01*
X146798640Y-126625000D02*
G75*
G02*
X147498640Y-125925000I700000J0D01*
G01*
X147498640Y-127925000D02*
G75*
G02*
X146798640Y-127225000I0J700000D01*
G01*
%TO.C,JP2*%
X148885940Y-125350000D02*
X147485940Y-125350000D01*
X146785940Y-124650000D02*
X146785940Y-124050000D01*
X147485940Y-123350000D02*
X148885940Y-123350000D01*
X149585940Y-124050000D02*
X149585940Y-124650000D01*
X149585940Y-124650000D02*
G75*
G02*
X148885940Y-125350000I-700000J0D01*
G01*
X148885940Y-123350000D02*
G75*
G02*
X149585940Y-124050000I0J-700000D01*
G01*
X146785940Y-124050000D02*
G75*
G02*
X147485940Y-123350000I700000J0D01*
G01*
X147485940Y-125350000D02*
G75*
G02*
X146785940Y-124650000I0J700000D01*
G01*
%TD*%
%TO.C,J3*%
D13*
X165972380Y-135713333D02*
X166686666Y-135713333D01*
X166829523Y-135760952D01*
X166924761Y-135856190D01*
X166972380Y-135999047D01*
X166972380Y-136094285D01*
X165972380Y-135332380D02*
X165972380Y-134713333D01*
X166353333Y-135046666D01*
X166353333Y-134903809D01*
X166400952Y-134808571D01*
X166448571Y-134760952D01*
X166543809Y-134713333D01*
X166781904Y-134713333D01*
X166877142Y-134760952D01*
X166924761Y-134808571D01*
X166972380Y-134903809D01*
X166972380Y-135189523D01*
X166924761Y-135284761D01*
X166877142Y-135332380D01*
%TO.C,J4*%
X157136666Y-140792380D02*
X157136666Y-141506666D01*
X157089047Y-141649523D01*
X156993809Y-141744761D01*
X156850952Y-141792380D01*
X156755714Y-141792380D01*
X158041428Y-141125714D02*
X158041428Y-141792380D01*
X157803333Y-140744761D02*
X157565238Y-141459047D01*
X158184285Y-141459047D01*
%TO.C,J1*%
X157146666Y-118692380D02*
X157146666Y-119406666D01*
X157099047Y-119549523D01*
X157003809Y-119644761D01*
X156860952Y-119692380D01*
X156765714Y-119692380D01*
X158146666Y-119692380D02*
X157575238Y-119692380D01*
X157860952Y-119692380D02*
X157860952Y-118692380D01*
X157765714Y-118835238D01*
X157670476Y-118930476D01*
X157575238Y-118978095D01*
%TO.C,R1*%
X162792380Y-135716666D02*
X162316190Y-136050000D01*
X162792380Y-136288095D02*
X161792380Y-136288095D01*
X161792380Y-135907142D01*
X161840000Y-135811904D01*
X161887619Y-135764285D01*
X161982857Y-135716666D01*
X162125714Y-135716666D01*
X162220952Y-135764285D01*
X162268571Y-135811904D01*
X162316190Y-135907142D01*
X162316190Y-136288095D01*
X162792380Y-134764285D02*
X162792380Y-135335714D01*
X162792380Y-135050000D02*
X161792380Y-135050000D01*
X161935238Y-135145238D01*
X162030476Y-135240476D01*
X162078095Y-135335714D01*
%TO.C,C1*%
X151143333Y-127247142D02*
X151095714Y-127294761D01*
X150952857Y-127342380D01*
X150857619Y-127342380D01*
X150714761Y-127294761D01*
X150619523Y-127199523D01*
X150571904Y-127104285D01*
X150524285Y-126913809D01*
X150524285Y-126770952D01*
X150571904Y-126580476D01*
X150619523Y-126485238D01*
X150714761Y-126390000D01*
X150857619Y-126342380D01*
X150952857Y-126342380D01*
X151095714Y-126390000D01*
X151143333Y-126437619D01*
X152095714Y-127342380D02*
X151524285Y-127342380D01*
X151810000Y-127342380D02*
X151810000Y-126342380D01*
X151714761Y-126485238D01*
X151619523Y-126580476D01*
X151524285Y-126628095D01*
%TO.C,J5*%
X165962380Y-124863333D02*
X166676666Y-124863333D01*
X166819523Y-124910952D01*
X166914761Y-125006190D01*
X166962380Y-125149047D01*
X166962380Y-125244285D01*
X165962380Y-123910952D02*
X165962380Y-124387142D01*
X166438571Y-124434761D01*
X166390952Y-124387142D01*
X166343333Y-124291904D01*
X166343333Y-124053809D01*
X166390952Y-123958571D01*
X166438571Y-123910952D01*
X166533809Y-123863333D01*
X166771904Y-123863333D01*
X166867142Y-123910952D01*
X166914761Y-123958571D01*
X166962380Y-124053809D01*
X166962380Y-124291904D01*
X166914761Y-124387142D01*
X166867142Y-124434761D01*
%TO.C,U1*%
X153148095Y-124012380D02*
X153148095Y-124821904D01*
X153195714Y-124917142D01*
X153243333Y-124964761D01*
X153338571Y-125012380D01*
X153529047Y-125012380D01*
X153624285Y-124964761D01*
X153671904Y-124917142D01*
X153719523Y-124821904D01*
X153719523Y-124012380D01*
X154719523Y-125012380D02*
X154148095Y-125012380D01*
X154433809Y-125012380D02*
X154433809Y-124012380D01*
X154338571Y-124155238D01*
X154243333Y-124250476D01*
X154148095Y-124298095D01*
%TO.C,JP5*%
X144548446Y-131766140D02*
X144548446Y-132480426D01*
X144500827Y-132623283D01*
X144405589Y-132718521D01*
X144262732Y-132766140D01*
X144167494Y-132766140D01*
X145024637Y-132766140D02*
X145024637Y-131766140D01*
X145405589Y-131766140D01*
X145500827Y-131813760D01*
X145548446Y-131861379D01*
X145596065Y-131956617D01*
X145596065Y-132099474D01*
X145548446Y-132194712D01*
X145500827Y-132242331D01*
X145405589Y-132289950D01*
X145024637Y-132289950D01*
X146500827Y-131766140D02*
X146024637Y-131766140D01*
X145977018Y-132242331D01*
X146024637Y-132194712D01*
X146119875Y-132147093D01*
X146357970Y-132147093D01*
X146453208Y-132194712D01*
X146500827Y-132242331D01*
X146548446Y-132337569D01*
X146548446Y-132575664D01*
X146500827Y-132670902D01*
X146453208Y-132718521D01*
X146357970Y-132766140D01*
X146119875Y-132766140D01*
X146024637Y-132718521D01*
X145977018Y-132670902D01*
%TO.C,JP4*%
X144670366Y-128990480D02*
X144670366Y-129704766D01*
X144622747Y-129847623D01*
X144527509Y-129942861D01*
X144384652Y-129990480D01*
X144289414Y-129990480D01*
X145146557Y-129990480D02*
X145146557Y-128990480D01*
X145527509Y-128990480D01*
X145622747Y-129038100D01*
X145670366Y-129085719D01*
X145717985Y-129180957D01*
X145717985Y-129323814D01*
X145670366Y-129419052D01*
X145622747Y-129466671D01*
X145527509Y-129514290D01*
X145146557Y-129514290D01*
X146575128Y-129323814D02*
X146575128Y-129990480D01*
X146337033Y-128942861D02*
X146098938Y-129657147D01*
X146717985Y-129657147D01*
%TO.C,JP3*%
X144609406Y-126387540D02*
X144609406Y-127101826D01*
X144561787Y-127244683D01*
X144466549Y-127339921D01*
X144323692Y-127387540D01*
X144228454Y-127387540D01*
X145085597Y-127387540D02*
X145085597Y-126387540D01*
X145466549Y-126387540D01*
X145561787Y-126435160D01*
X145609406Y-126482779D01*
X145657025Y-126578017D01*
X145657025Y-126720874D01*
X145609406Y-126816112D01*
X145561787Y-126863731D01*
X145466549Y-126911350D01*
X145085597Y-126911350D01*
X145990359Y-126387540D02*
X146609406Y-126387540D01*
X146276073Y-126768493D01*
X146418930Y-126768493D01*
X146514168Y-126816112D01*
X146561787Y-126863731D01*
X146609406Y-126958969D01*
X146609406Y-127197064D01*
X146561787Y-127292302D01*
X146514168Y-127339921D01*
X146418930Y-127387540D01*
X146133216Y-127387540D01*
X146037978Y-127339921D01*
X145990359Y-127292302D01*
%TO.C,JP2*%
X144568766Y-123937000D02*
X144568766Y-124651286D01*
X144521147Y-124794143D01*
X144425909Y-124889381D01*
X144283052Y-124937000D01*
X144187814Y-124937000D01*
X145044957Y-124937000D02*
X145044957Y-123937000D01*
X145425909Y-123937000D01*
X145521147Y-123984620D01*
X145568766Y-124032239D01*
X145616385Y-124127477D01*
X145616385Y-124270334D01*
X145568766Y-124365572D01*
X145521147Y-124413191D01*
X145425909Y-124460810D01*
X145044957Y-124460810D01*
X145997338Y-124032239D02*
X146044957Y-123984620D01*
X146140195Y-123937000D01*
X146378290Y-123937000D01*
X146473528Y-123984620D01*
X146521147Y-124032239D01*
X146568766Y-124127477D01*
X146568766Y-124222715D01*
X146521147Y-124365572D01*
X145949719Y-124937000D01*
X146568766Y-124937000D01*
%TD*%
M02*
