%TF.GenerationSoftware,KiCad,Pcbnew,(5.1.6)-1*%
%TF.CreationDate,2020-12-06T01:56:03+01:00*%
%TF.ProjectId,HorticultureSensor,486f7274-6963-4756-9c74-75726553656e,1.0*%
%TF.SameCoordinates,Original*%
%TF.FileFunction,Paste,Top*%
%TF.FilePolarity,Positive*%
%FSLAX46Y46*%
G04 Gerber Fmt 4.6, Leading zero omitted, Abs format (unit mm)*
G04 Created by KiCad (PCBNEW (5.1.6)-1) date 2020-12-06 01:56:03*
%MOMM*%
%LPD*%
G01*
G04 APERTURE LIST*
%ADD10R,1.450000X0.450000*%
G04 APERTURE END LIST*
%TO.C,J3*%
G36*
G01*
X168866000Y-132632000D02*
X166366000Y-132632000D01*
G75*
G02*
X166116000Y-132382000I0J250000D01*
G01*
X166116000Y-130782000D01*
G75*
G02*
X166366000Y-130532000I250000J0D01*
G01*
X168866000Y-130532000D01*
G75*
G02*
X169116000Y-130782000I0J-250000D01*
G01*
X169116000Y-132382000D01*
G75*
G02*
X168866000Y-132632000I-250000J0D01*
G01*
G37*
G36*
G01*
X168866000Y-140232000D02*
X166366000Y-140232000D01*
G75*
G02*
X166116000Y-139982000I0J250000D01*
G01*
X166116000Y-138382000D01*
G75*
G02*
X166366000Y-138132000I250000J0D01*
G01*
X168866000Y-138132000D01*
G75*
G02*
X169116000Y-138382000I0J-250000D01*
G01*
X169116000Y-139982000D01*
G75*
G02*
X168866000Y-140232000I-250000J0D01*
G01*
G37*
G36*
G01*
X165316000Y-134532000D02*
X164416000Y-134532000D01*
G75*
G02*
X164216000Y-134332000I0J200000D01*
G01*
X164216000Y-133932000D01*
G75*
G02*
X164416000Y-133732000I200000J0D01*
G01*
X165316000Y-133732000D01*
G75*
G02*
X165516000Y-133932000I0J-200000D01*
G01*
X165516000Y-134332000D01*
G75*
G02*
X165316000Y-134532000I-200000J0D01*
G01*
G37*
G36*
G01*
X165316000Y-135782000D02*
X164416000Y-135782000D01*
G75*
G02*
X164216000Y-135582000I0J200000D01*
G01*
X164216000Y-135182000D01*
G75*
G02*
X164416000Y-134982000I200000J0D01*
G01*
X165316000Y-134982000D01*
G75*
G02*
X165516000Y-135182000I0J-200000D01*
G01*
X165516000Y-135582000D01*
G75*
G02*
X165316000Y-135782000I-200000J0D01*
G01*
G37*
G36*
G01*
X165316000Y-137032000D02*
X164416000Y-137032000D01*
G75*
G02*
X164216000Y-136832000I0J200000D01*
G01*
X164216000Y-136432000D01*
G75*
G02*
X164416000Y-136232000I200000J0D01*
G01*
X165316000Y-136232000D01*
G75*
G02*
X165516000Y-136432000I0J-200000D01*
G01*
X165516000Y-136832000D01*
G75*
G02*
X165316000Y-137032000I-200000J0D01*
G01*
G37*
%TD*%
%TO.C,J4*%
G36*
G01*
X160855000Y-143720000D02*
X160855000Y-141220000D01*
G75*
G02*
X161105000Y-140970000I250000J0D01*
G01*
X162705000Y-140970000D01*
G75*
G02*
X162955000Y-141220000I0J-250000D01*
G01*
X162955000Y-143720000D01*
G75*
G02*
X162705000Y-143970000I-250000J0D01*
G01*
X161105000Y-143970000D01*
G75*
G02*
X160855000Y-143720000I0J250000D01*
G01*
G37*
G36*
G01*
X152005000Y-143720000D02*
X152005000Y-141220000D01*
G75*
G02*
X152255000Y-140970000I250000J0D01*
G01*
X153855000Y-140970000D01*
G75*
G02*
X154105000Y-141220000I0J-250000D01*
G01*
X154105000Y-143720000D01*
G75*
G02*
X153855000Y-143970000I-250000J0D01*
G01*
X152255000Y-143970000D01*
G75*
G02*
X152005000Y-143720000I0J250000D01*
G01*
G37*
G36*
G01*
X158955000Y-140170000D02*
X158955000Y-139270000D01*
G75*
G02*
X159155000Y-139070000I200000J0D01*
G01*
X159555000Y-139070000D01*
G75*
G02*
X159755000Y-139270000I0J-200000D01*
G01*
X159755000Y-140170000D01*
G75*
G02*
X159555000Y-140370000I-200000J0D01*
G01*
X159155000Y-140370000D01*
G75*
G02*
X158955000Y-140170000I0J200000D01*
G01*
G37*
G36*
G01*
X157705000Y-140170000D02*
X157705000Y-139270000D01*
G75*
G02*
X157905000Y-139070000I200000J0D01*
G01*
X158305000Y-139070000D01*
G75*
G02*
X158505000Y-139270000I0J-200000D01*
G01*
X158505000Y-140170000D01*
G75*
G02*
X158305000Y-140370000I-200000J0D01*
G01*
X157905000Y-140370000D01*
G75*
G02*
X157705000Y-140170000I0J200000D01*
G01*
G37*
G36*
G01*
X156455000Y-140170000D02*
X156455000Y-139270000D01*
G75*
G02*
X156655000Y-139070000I200000J0D01*
G01*
X157055000Y-139070000D01*
G75*
G02*
X157255000Y-139270000I0J-200000D01*
G01*
X157255000Y-140170000D01*
G75*
G02*
X157055000Y-140370000I-200000J0D01*
G01*
X156655000Y-140370000D01*
G75*
G02*
X156455000Y-140170000I0J200000D01*
G01*
G37*
G36*
G01*
X155205000Y-140170000D02*
X155205000Y-139270000D01*
G75*
G02*
X155405000Y-139070000I200000J0D01*
G01*
X155805000Y-139070000D01*
G75*
G02*
X156005000Y-139270000I0J-200000D01*
G01*
X156005000Y-140170000D01*
G75*
G02*
X155805000Y-140370000I-200000J0D01*
G01*
X155405000Y-140370000D01*
G75*
G02*
X155205000Y-140170000I0J200000D01*
G01*
G37*
%TD*%
%TO.C,J1*%
G36*
G01*
X154105000Y-116884000D02*
X154105000Y-119384000D01*
G75*
G02*
X153855000Y-119634000I-250000J0D01*
G01*
X152255000Y-119634000D01*
G75*
G02*
X152005000Y-119384000I0J250000D01*
G01*
X152005000Y-116884000D01*
G75*
G02*
X152255000Y-116634000I250000J0D01*
G01*
X153855000Y-116634000D01*
G75*
G02*
X154105000Y-116884000I0J-250000D01*
G01*
G37*
G36*
G01*
X162955000Y-116884000D02*
X162955000Y-119384000D01*
G75*
G02*
X162705000Y-119634000I-250000J0D01*
G01*
X161105000Y-119634000D01*
G75*
G02*
X160855000Y-119384000I0J250000D01*
G01*
X160855000Y-116884000D01*
G75*
G02*
X161105000Y-116634000I250000J0D01*
G01*
X162705000Y-116634000D01*
G75*
G02*
X162955000Y-116884000I0J-250000D01*
G01*
G37*
G36*
G01*
X156005000Y-120434000D02*
X156005000Y-121334000D01*
G75*
G02*
X155805000Y-121534000I-200000J0D01*
G01*
X155405000Y-121534000D01*
G75*
G02*
X155205000Y-121334000I0J200000D01*
G01*
X155205000Y-120434000D01*
G75*
G02*
X155405000Y-120234000I200000J0D01*
G01*
X155805000Y-120234000D01*
G75*
G02*
X156005000Y-120434000I0J-200000D01*
G01*
G37*
G36*
G01*
X157255000Y-120434000D02*
X157255000Y-121334000D01*
G75*
G02*
X157055000Y-121534000I-200000J0D01*
G01*
X156655000Y-121534000D01*
G75*
G02*
X156455000Y-121334000I0J200000D01*
G01*
X156455000Y-120434000D01*
G75*
G02*
X156655000Y-120234000I200000J0D01*
G01*
X157055000Y-120234000D01*
G75*
G02*
X157255000Y-120434000I0J-200000D01*
G01*
G37*
G36*
G01*
X158505000Y-120434000D02*
X158505000Y-121334000D01*
G75*
G02*
X158305000Y-121534000I-200000J0D01*
G01*
X157905000Y-121534000D01*
G75*
G02*
X157705000Y-121334000I0J200000D01*
G01*
X157705000Y-120434000D01*
G75*
G02*
X157905000Y-120234000I200000J0D01*
G01*
X158305000Y-120234000D01*
G75*
G02*
X158505000Y-120434000I0J-200000D01*
G01*
G37*
G36*
G01*
X159755000Y-120434000D02*
X159755000Y-121334000D01*
G75*
G02*
X159555000Y-121534000I-200000J0D01*
G01*
X159155000Y-121534000D01*
G75*
G02*
X158955000Y-121334000I0J200000D01*
G01*
X158955000Y-120434000D01*
G75*
G02*
X159155000Y-120234000I200000J0D01*
G01*
X159555000Y-120234000D01*
G75*
G02*
X159755000Y-120434000I0J-200000D01*
G01*
G37*
%TD*%
%TO.C,R1*%
G36*
G01*
X161070001Y-135230000D02*
X160169999Y-135230000D01*
G75*
G02*
X159920000Y-134980001I0J249999D01*
G01*
X159920000Y-134454999D01*
G75*
G02*
X160169999Y-134205000I249999J0D01*
G01*
X161070001Y-134205000D01*
G75*
G02*
X161320000Y-134454999I0J-249999D01*
G01*
X161320000Y-134980001D01*
G75*
G02*
X161070001Y-135230000I-249999J0D01*
G01*
G37*
G36*
G01*
X161070001Y-137055000D02*
X160169999Y-137055000D01*
G75*
G02*
X159920000Y-136805001I0J249999D01*
G01*
X159920000Y-136279999D01*
G75*
G02*
X160169999Y-136030000I249999J0D01*
G01*
X161070001Y-136030000D01*
G75*
G02*
X161320000Y-136279999I0J-249999D01*
G01*
X161320000Y-136805001D01*
G75*
G02*
X161070001Y-137055000I-249999J0D01*
G01*
G37*
%TD*%
%TO.C,C1*%
G36*
G01*
X151859000Y-128836000D02*
X150909000Y-128836000D01*
G75*
G02*
X150659000Y-128586000I0J250000D01*
G01*
X150659000Y-128086000D01*
G75*
G02*
X150909000Y-127836000I250000J0D01*
G01*
X151859000Y-127836000D01*
G75*
G02*
X152109000Y-128086000I0J-250000D01*
G01*
X152109000Y-128586000D01*
G75*
G02*
X151859000Y-128836000I-250000J0D01*
G01*
G37*
G36*
G01*
X151859000Y-130736000D02*
X150909000Y-130736000D01*
G75*
G02*
X150659000Y-130486000I0J250000D01*
G01*
X150659000Y-129986000D01*
G75*
G02*
X150909000Y-129736000I250000J0D01*
G01*
X151859000Y-129736000D01*
G75*
G02*
X152109000Y-129986000I0J-250000D01*
G01*
X152109000Y-130486000D01*
G75*
G02*
X151859000Y-130736000I-250000J0D01*
G01*
G37*
%TD*%
%TO.C,J5*%
G36*
G01*
X168866000Y-121780000D02*
X166366000Y-121780000D01*
G75*
G02*
X166116000Y-121530000I0J250000D01*
G01*
X166116000Y-119930000D01*
G75*
G02*
X166366000Y-119680000I250000J0D01*
G01*
X168866000Y-119680000D01*
G75*
G02*
X169116000Y-119930000I0J-250000D01*
G01*
X169116000Y-121530000D01*
G75*
G02*
X168866000Y-121780000I-250000J0D01*
G01*
G37*
G36*
G01*
X168866000Y-129380000D02*
X166366000Y-129380000D01*
G75*
G02*
X166116000Y-129130000I0J250000D01*
G01*
X166116000Y-127530000D01*
G75*
G02*
X166366000Y-127280000I250000J0D01*
G01*
X168866000Y-127280000D01*
G75*
G02*
X169116000Y-127530000I0J-250000D01*
G01*
X169116000Y-129130000D01*
G75*
G02*
X168866000Y-129380000I-250000J0D01*
G01*
G37*
G36*
G01*
X165316000Y-123680000D02*
X164416000Y-123680000D01*
G75*
G02*
X164216000Y-123480000I0J200000D01*
G01*
X164216000Y-123080000D01*
G75*
G02*
X164416000Y-122880000I200000J0D01*
G01*
X165316000Y-122880000D01*
G75*
G02*
X165516000Y-123080000I0J-200000D01*
G01*
X165516000Y-123480000D01*
G75*
G02*
X165316000Y-123680000I-200000J0D01*
G01*
G37*
G36*
G01*
X165316000Y-124930000D02*
X164416000Y-124930000D01*
G75*
G02*
X164216000Y-124730000I0J200000D01*
G01*
X164216000Y-124330000D01*
G75*
G02*
X164416000Y-124130000I200000J0D01*
G01*
X165316000Y-124130000D01*
G75*
G02*
X165516000Y-124330000I0J-200000D01*
G01*
X165516000Y-124730000D01*
G75*
G02*
X165316000Y-124930000I-200000J0D01*
G01*
G37*
G36*
G01*
X165316000Y-126180000D02*
X164416000Y-126180000D01*
G75*
G02*
X164216000Y-125980000I0J200000D01*
G01*
X164216000Y-125580000D01*
G75*
G02*
X164416000Y-125380000I200000J0D01*
G01*
X165316000Y-125380000D01*
G75*
G02*
X165516000Y-125580000I0J-200000D01*
G01*
X165516000Y-125980000D01*
G75*
G02*
X165316000Y-126180000I-200000J0D01*
G01*
G37*
%TD*%
D10*
%TO.C,U1*%
X153525000Y-131675000D03*
X153525000Y-131025000D03*
X153525000Y-130375000D03*
X153525000Y-129725000D03*
X153525000Y-129075000D03*
X153525000Y-128425000D03*
X153525000Y-127775000D03*
X153525000Y-127125000D03*
X153525000Y-126475000D03*
X153525000Y-125825000D03*
X159425000Y-125825000D03*
X159425000Y-126475000D03*
X159425000Y-127125000D03*
X159425000Y-127775000D03*
X159425000Y-128425000D03*
X159425000Y-129075000D03*
X159425000Y-129725000D03*
X159425000Y-130375000D03*
X159425000Y-131025000D03*
X159425000Y-131675000D03*
%TD*%
M02*
