%TF.GenerationSoftware,KiCad,Pcbnew,(5.1.6)-1*%
%TF.CreationDate,2020-12-06T01:58:00+01:00*%
%TF.ProjectId,HorticultureSensor,486f7274-6963-4756-9c74-75726553656e,1.0*%
%TF.SameCoordinates,Original*%
%TF.FileFunction,Soldermask,Top*%
%TF.FilePolarity,Negative*%
%FSLAX46Y46*%
G04 Gerber Fmt 4.6, Leading zero omitted, Abs format (unit mm)*
G04 Created by KiCad (PCBNEW (5.1.6)-1) date 2020-12-06 01:58:00*
%MOMM*%
%LPD*%
G01*
G04 APERTURE LIST*
%ADD10C,6.500000*%
%ADD11R,1.550000X0.550000*%
%ADD12C,0.100000*%
G04 APERTURE END LIST*
%TO.C,J3*%
G36*
G01*
X168904095Y-132682000D02*
X166327905Y-132682000D01*
G75*
G02*
X166066000Y-132420095I0J261905D01*
G01*
X166066000Y-130743905D01*
G75*
G02*
X166327905Y-130482000I261905J0D01*
G01*
X168904095Y-130482000D01*
G75*
G02*
X169166000Y-130743905I0J-261905D01*
G01*
X169166000Y-132420095D01*
G75*
G02*
X168904095Y-132682000I-261905J0D01*
G01*
G37*
G36*
G01*
X168904095Y-140282000D02*
X166327905Y-140282000D01*
G75*
G02*
X166066000Y-140020095I0J261905D01*
G01*
X166066000Y-138343905D01*
G75*
G02*
X166327905Y-138082000I261905J0D01*
G01*
X168904095Y-138082000D01*
G75*
G02*
X169166000Y-138343905I0J-261905D01*
G01*
X169166000Y-140020095D01*
G75*
G02*
X168904095Y-140282000I-261905J0D01*
G01*
G37*
G36*
G01*
X165341000Y-134582000D02*
X164391000Y-134582000D01*
G75*
G02*
X164166000Y-134357000I0J225000D01*
G01*
X164166000Y-133907000D01*
G75*
G02*
X164391000Y-133682000I225000J0D01*
G01*
X165341000Y-133682000D01*
G75*
G02*
X165566000Y-133907000I0J-225000D01*
G01*
X165566000Y-134357000D01*
G75*
G02*
X165341000Y-134582000I-225000J0D01*
G01*
G37*
G36*
G01*
X165341000Y-135832000D02*
X164391000Y-135832000D01*
G75*
G02*
X164166000Y-135607000I0J225000D01*
G01*
X164166000Y-135157000D01*
G75*
G02*
X164391000Y-134932000I225000J0D01*
G01*
X165341000Y-134932000D01*
G75*
G02*
X165566000Y-135157000I0J-225000D01*
G01*
X165566000Y-135607000D01*
G75*
G02*
X165341000Y-135832000I-225000J0D01*
G01*
G37*
G36*
G01*
X165341000Y-137082000D02*
X164391000Y-137082000D01*
G75*
G02*
X164166000Y-136857000I0J225000D01*
G01*
X164166000Y-136407000D01*
G75*
G02*
X164391000Y-136182000I225000J0D01*
G01*
X165341000Y-136182000D01*
G75*
G02*
X165566000Y-136407000I0J-225000D01*
G01*
X165566000Y-136857000D01*
G75*
G02*
X165341000Y-137082000I-225000J0D01*
G01*
G37*
%TD*%
%TO.C,J4*%
G36*
G01*
X160805000Y-143758095D02*
X160805000Y-141181905D01*
G75*
G02*
X161066905Y-140920000I261905J0D01*
G01*
X162743095Y-140920000D01*
G75*
G02*
X163005000Y-141181905I0J-261905D01*
G01*
X163005000Y-143758095D01*
G75*
G02*
X162743095Y-144020000I-261905J0D01*
G01*
X161066905Y-144020000D01*
G75*
G02*
X160805000Y-143758095I0J261905D01*
G01*
G37*
G36*
G01*
X151955000Y-143758095D02*
X151955000Y-141181905D01*
G75*
G02*
X152216905Y-140920000I261905J0D01*
G01*
X153893095Y-140920000D01*
G75*
G02*
X154155000Y-141181905I0J-261905D01*
G01*
X154155000Y-143758095D01*
G75*
G02*
X153893095Y-144020000I-261905J0D01*
G01*
X152216905Y-144020000D01*
G75*
G02*
X151955000Y-143758095I0J261905D01*
G01*
G37*
G36*
G01*
X158905000Y-140195000D02*
X158905000Y-139245000D01*
G75*
G02*
X159130000Y-139020000I225000J0D01*
G01*
X159580000Y-139020000D01*
G75*
G02*
X159805000Y-139245000I0J-225000D01*
G01*
X159805000Y-140195000D01*
G75*
G02*
X159580000Y-140420000I-225000J0D01*
G01*
X159130000Y-140420000D01*
G75*
G02*
X158905000Y-140195000I0J225000D01*
G01*
G37*
G36*
G01*
X157655000Y-140195000D02*
X157655000Y-139245000D01*
G75*
G02*
X157880000Y-139020000I225000J0D01*
G01*
X158330000Y-139020000D01*
G75*
G02*
X158555000Y-139245000I0J-225000D01*
G01*
X158555000Y-140195000D01*
G75*
G02*
X158330000Y-140420000I-225000J0D01*
G01*
X157880000Y-140420000D01*
G75*
G02*
X157655000Y-140195000I0J225000D01*
G01*
G37*
G36*
G01*
X156405000Y-140195000D02*
X156405000Y-139245000D01*
G75*
G02*
X156630000Y-139020000I225000J0D01*
G01*
X157080000Y-139020000D01*
G75*
G02*
X157305000Y-139245000I0J-225000D01*
G01*
X157305000Y-140195000D01*
G75*
G02*
X157080000Y-140420000I-225000J0D01*
G01*
X156630000Y-140420000D01*
G75*
G02*
X156405000Y-140195000I0J225000D01*
G01*
G37*
G36*
G01*
X155155000Y-140195000D02*
X155155000Y-139245000D01*
G75*
G02*
X155380000Y-139020000I225000J0D01*
G01*
X155830000Y-139020000D01*
G75*
G02*
X156055000Y-139245000I0J-225000D01*
G01*
X156055000Y-140195000D01*
G75*
G02*
X155830000Y-140420000I-225000J0D01*
G01*
X155380000Y-140420000D01*
G75*
G02*
X155155000Y-140195000I0J225000D01*
G01*
G37*
%TD*%
%TO.C,J1*%
G36*
G01*
X154155000Y-116845905D02*
X154155000Y-119422095D01*
G75*
G02*
X153893095Y-119684000I-261905J0D01*
G01*
X152216905Y-119684000D01*
G75*
G02*
X151955000Y-119422095I0J261905D01*
G01*
X151955000Y-116845905D01*
G75*
G02*
X152216905Y-116584000I261905J0D01*
G01*
X153893095Y-116584000D01*
G75*
G02*
X154155000Y-116845905I0J-261905D01*
G01*
G37*
G36*
G01*
X163005000Y-116845905D02*
X163005000Y-119422095D01*
G75*
G02*
X162743095Y-119684000I-261905J0D01*
G01*
X161066905Y-119684000D01*
G75*
G02*
X160805000Y-119422095I0J261905D01*
G01*
X160805000Y-116845905D01*
G75*
G02*
X161066905Y-116584000I261905J0D01*
G01*
X162743095Y-116584000D01*
G75*
G02*
X163005000Y-116845905I0J-261905D01*
G01*
G37*
G36*
G01*
X156055000Y-120409000D02*
X156055000Y-121359000D01*
G75*
G02*
X155830000Y-121584000I-225000J0D01*
G01*
X155380000Y-121584000D01*
G75*
G02*
X155155000Y-121359000I0J225000D01*
G01*
X155155000Y-120409000D01*
G75*
G02*
X155380000Y-120184000I225000J0D01*
G01*
X155830000Y-120184000D01*
G75*
G02*
X156055000Y-120409000I0J-225000D01*
G01*
G37*
G36*
G01*
X157305000Y-120409000D02*
X157305000Y-121359000D01*
G75*
G02*
X157080000Y-121584000I-225000J0D01*
G01*
X156630000Y-121584000D01*
G75*
G02*
X156405000Y-121359000I0J225000D01*
G01*
X156405000Y-120409000D01*
G75*
G02*
X156630000Y-120184000I225000J0D01*
G01*
X157080000Y-120184000D01*
G75*
G02*
X157305000Y-120409000I0J-225000D01*
G01*
G37*
G36*
G01*
X158555000Y-120409000D02*
X158555000Y-121359000D01*
G75*
G02*
X158330000Y-121584000I-225000J0D01*
G01*
X157880000Y-121584000D01*
G75*
G02*
X157655000Y-121359000I0J225000D01*
G01*
X157655000Y-120409000D01*
G75*
G02*
X157880000Y-120184000I225000J0D01*
G01*
X158330000Y-120184000D01*
G75*
G02*
X158555000Y-120409000I0J-225000D01*
G01*
G37*
G36*
G01*
X159805000Y-120409000D02*
X159805000Y-121359000D01*
G75*
G02*
X159580000Y-121584000I-225000J0D01*
G01*
X159130000Y-121584000D01*
G75*
G02*
X158905000Y-121359000I0J225000D01*
G01*
X158905000Y-120409000D01*
G75*
G02*
X159130000Y-120184000I225000J0D01*
G01*
X159580000Y-120184000D01*
G75*
G02*
X159805000Y-120409000I0J-225000D01*
G01*
G37*
%TD*%
%TO.C,R1*%
G36*
G01*
X161095611Y-135280000D02*
X160144389Y-135280000D01*
G75*
G02*
X159870000Y-135005611I0J274389D01*
G01*
X159870000Y-134429389D01*
G75*
G02*
X160144389Y-134155000I274389J0D01*
G01*
X161095611Y-134155000D01*
G75*
G02*
X161370000Y-134429389I0J-274389D01*
G01*
X161370000Y-135005611D01*
G75*
G02*
X161095611Y-135280000I-274389J0D01*
G01*
G37*
G36*
G01*
X161095611Y-137105000D02*
X160144389Y-137105000D01*
G75*
G02*
X159870000Y-136830611I0J274389D01*
G01*
X159870000Y-136254389D01*
G75*
G02*
X160144389Y-135980000I274389J0D01*
G01*
X161095611Y-135980000D01*
G75*
G02*
X161370000Y-136254389I0J-274389D01*
G01*
X161370000Y-136830611D01*
G75*
G02*
X161095611Y-137105000I-274389J0D01*
G01*
G37*
%TD*%
%TO.C,C1*%
G36*
G01*
X151884000Y-128886000D02*
X150884000Y-128886000D01*
G75*
G02*
X150609000Y-128611000I0J275000D01*
G01*
X150609000Y-128061000D01*
G75*
G02*
X150884000Y-127786000I275000J0D01*
G01*
X151884000Y-127786000D01*
G75*
G02*
X152159000Y-128061000I0J-275000D01*
G01*
X152159000Y-128611000D01*
G75*
G02*
X151884000Y-128886000I-275000J0D01*
G01*
G37*
G36*
G01*
X151884000Y-130786000D02*
X150884000Y-130786000D01*
G75*
G02*
X150609000Y-130511000I0J275000D01*
G01*
X150609000Y-129961000D01*
G75*
G02*
X150884000Y-129686000I275000J0D01*
G01*
X151884000Y-129686000D01*
G75*
G02*
X152159000Y-129961000I0J-275000D01*
G01*
X152159000Y-130511000D01*
G75*
G02*
X151884000Y-130786000I-275000J0D01*
G01*
G37*
%TD*%
%TO.C,J5*%
G36*
G01*
X168904095Y-121830000D02*
X166327905Y-121830000D01*
G75*
G02*
X166066000Y-121568095I0J261905D01*
G01*
X166066000Y-119891905D01*
G75*
G02*
X166327905Y-119630000I261905J0D01*
G01*
X168904095Y-119630000D01*
G75*
G02*
X169166000Y-119891905I0J-261905D01*
G01*
X169166000Y-121568095D01*
G75*
G02*
X168904095Y-121830000I-261905J0D01*
G01*
G37*
G36*
G01*
X168904095Y-129430000D02*
X166327905Y-129430000D01*
G75*
G02*
X166066000Y-129168095I0J261905D01*
G01*
X166066000Y-127491905D01*
G75*
G02*
X166327905Y-127230000I261905J0D01*
G01*
X168904095Y-127230000D01*
G75*
G02*
X169166000Y-127491905I0J-261905D01*
G01*
X169166000Y-129168095D01*
G75*
G02*
X168904095Y-129430000I-261905J0D01*
G01*
G37*
G36*
G01*
X165341000Y-123730000D02*
X164391000Y-123730000D01*
G75*
G02*
X164166000Y-123505000I0J225000D01*
G01*
X164166000Y-123055000D01*
G75*
G02*
X164391000Y-122830000I225000J0D01*
G01*
X165341000Y-122830000D01*
G75*
G02*
X165566000Y-123055000I0J-225000D01*
G01*
X165566000Y-123505000D01*
G75*
G02*
X165341000Y-123730000I-225000J0D01*
G01*
G37*
G36*
G01*
X165341000Y-124980000D02*
X164391000Y-124980000D01*
G75*
G02*
X164166000Y-124755000I0J225000D01*
G01*
X164166000Y-124305000D01*
G75*
G02*
X164391000Y-124080000I225000J0D01*
G01*
X165341000Y-124080000D01*
G75*
G02*
X165566000Y-124305000I0J-225000D01*
G01*
X165566000Y-124755000D01*
G75*
G02*
X165341000Y-124980000I-225000J0D01*
G01*
G37*
G36*
G01*
X165341000Y-126230000D02*
X164391000Y-126230000D01*
G75*
G02*
X164166000Y-126005000I0J225000D01*
G01*
X164166000Y-125555000D01*
G75*
G02*
X164391000Y-125330000I225000J0D01*
G01*
X165341000Y-125330000D01*
G75*
G02*
X165566000Y-125555000I0J-225000D01*
G01*
X165566000Y-126005000D01*
G75*
G02*
X165341000Y-126230000I-225000J0D01*
G01*
G37*
%TD*%
D10*
%TO.C,H2*%
X147750000Y-141775000D03*
%TD*%
%TO.C,H1*%
X147750000Y-118872000D03*
%TD*%
D11*
%TO.C,U1*%
X153525000Y-131675000D03*
X153525000Y-131025000D03*
X153525000Y-130375000D03*
X153525000Y-129725000D03*
X153525000Y-129075000D03*
X153525000Y-128425000D03*
X153525000Y-127775000D03*
X153525000Y-127125000D03*
X153525000Y-126475000D03*
X153525000Y-125825000D03*
X159425000Y-125825000D03*
X159425000Y-126475000D03*
X159425000Y-127125000D03*
X159425000Y-127775000D03*
X159425000Y-128425000D03*
X159425000Y-129075000D03*
X159425000Y-129725000D03*
X159425000Y-130375000D03*
X159425000Y-131025000D03*
X159425000Y-131675000D03*
%TD*%
D12*
%TO.C,JP5*%
G36*
X147542529Y-132874398D02*
G01*
X147524106Y-132874398D01*
X147519205Y-132874157D01*
X147470374Y-132869347D01*
X147465521Y-132868627D01*
X147417396Y-132859055D01*
X147412635Y-132857863D01*
X147365680Y-132843619D01*
X147361061Y-132841966D01*
X147315728Y-132823189D01*
X147311291Y-132821091D01*
X147268018Y-132797960D01*
X147263811Y-132795438D01*
X147223012Y-132768178D01*
X147219070Y-132765254D01*
X147181141Y-132734126D01*
X147177506Y-132730831D01*
X147142809Y-132696134D01*
X147139514Y-132692499D01*
X147108386Y-132654570D01*
X147105462Y-132650628D01*
X147078202Y-132609829D01*
X147075680Y-132605622D01*
X147052549Y-132562349D01*
X147050451Y-132557912D01*
X147031674Y-132512579D01*
X147030021Y-132507960D01*
X147015777Y-132461005D01*
X147014585Y-132456244D01*
X147005013Y-132408119D01*
X147004293Y-132403266D01*
X146999483Y-132354435D01*
X146999242Y-132349534D01*
X146999242Y-132331111D01*
X146998640Y-132325000D01*
X146998640Y-131825000D01*
X146999242Y-131818889D01*
X146999242Y-131800466D01*
X146999483Y-131795565D01*
X147004293Y-131746734D01*
X147005013Y-131741881D01*
X147014585Y-131693756D01*
X147015777Y-131688995D01*
X147030021Y-131642040D01*
X147031674Y-131637421D01*
X147050451Y-131592088D01*
X147052549Y-131587651D01*
X147075680Y-131544378D01*
X147078202Y-131540171D01*
X147105462Y-131499372D01*
X147108386Y-131495430D01*
X147139514Y-131457501D01*
X147142809Y-131453866D01*
X147177506Y-131419169D01*
X147181141Y-131415874D01*
X147219070Y-131384746D01*
X147223012Y-131381822D01*
X147263811Y-131354562D01*
X147268018Y-131352040D01*
X147311291Y-131328909D01*
X147315728Y-131326811D01*
X147361061Y-131308034D01*
X147365680Y-131306381D01*
X147412635Y-131292137D01*
X147417396Y-131290945D01*
X147465521Y-131281373D01*
X147470374Y-131280653D01*
X147519205Y-131275843D01*
X147524106Y-131275602D01*
X147542529Y-131275602D01*
X147548640Y-131275000D01*
X148048640Y-131275000D01*
X148058395Y-131275961D01*
X148067774Y-131278806D01*
X148076419Y-131283427D01*
X148083995Y-131289645D01*
X148090213Y-131297221D01*
X148094834Y-131305866D01*
X148097679Y-131315245D01*
X148098640Y-131325000D01*
X148098640Y-132825000D01*
X148097679Y-132834755D01*
X148094834Y-132844134D01*
X148090213Y-132852779D01*
X148083995Y-132860355D01*
X148076419Y-132866573D01*
X148067774Y-132871194D01*
X148058395Y-132874039D01*
X148048640Y-132875000D01*
X147548640Y-132875000D01*
X147542529Y-132874398D01*
G37*
G36*
X148338885Y-132874039D02*
G01*
X148329506Y-132871194D01*
X148320861Y-132866573D01*
X148313285Y-132860355D01*
X148307067Y-132852779D01*
X148302446Y-132844134D01*
X148299601Y-132834755D01*
X148298640Y-132825000D01*
X148298640Y-131325000D01*
X148299601Y-131315245D01*
X148302446Y-131305866D01*
X148307067Y-131297221D01*
X148313285Y-131289645D01*
X148320861Y-131283427D01*
X148329506Y-131278806D01*
X148338885Y-131275961D01*
X148348640Y-131275000D01*
X148848640Y-131275000D01*
X148854751Y-131275602D01*
X148873174Y-131275602D01*
X148878075Y-131275843D01*
X148926906Y-131280653D01*
X148931759Y-131281373D01*
X148979884Y-131290945D01*
X148984645Y-131292137D01*
X149031600Y-131306381D01*
X149036219Y-131308034D01*
X149081552Y-131326811D01*
X149085989Y-131328909D01*
X149129262Y-131352040D01*
X149133469Y-131354562D01*
X149174268Y-131381822D01*
X149178210Y-131384746D01*
X149216139Y-131415874D01*
X149219774Y-131419169D01*
X149254471Y-131453866D01*
X149257766Y-131457501D01*
X149288894Y-131495430D01*
X149291818Y-131499372D01*
X149319078Y-131540171D01*
X149321600Y-131544378D01*
X149344731Y-131587651D01*
X149346829Y-131592088D01*
X149365606Y-131637421D01*
X149367259Y-131642040D01*
X149381503Y-131688995D01*
X149382695Y-131693756D01*
X149392267Y-131741881D01*
X149392987Y-131746734D01*
X149397797Y-131795565D01*
X149398038Y-131800466D01*
X149398038Y-131818889D01*
X149398640Y-131825000D01*
X149398640Y-132325000D01*
X149398038Y-132331111D01*
X149398038Y-132349534D01*
X149397797Y-132354435D01*
X149392987Y-132403266D01*
X149392267Y-132408119D01*
X149382695Y-132456244D01*
X149381503Y-132461005D01*
X149367259Y-132507960D01*
X149365606Y-132512579D01*
X149346829Y-132557912D01*
X149344731Y-132562349D01*
X149321600Y-132605622D01*
X149319078Y-132609829D01*
X149291818Y-132650628D01*
X149288894Y-132654570D01*
X149257766Y-132692499D01*
X149254471Y-132696134D01*
X149219774Y-132730831D01*
X149216139Y-132734126D01*
X149178210Y-132765254D01*
X149174268Y-132768178D01*
X149133469Y-132795438D01*
X149129262Y-132797960D01*
X149085989Y-132821091D01*
X149081552Y-132823189D01*
X149036219Y-132841966D01*
X149031600Y-132843619D01*
X148984645Y-132857863D01*
X148979884Y-132859055D01*
X148931759Y-132868627D01*
X148926906Y-132869347D01*
X148878075Y-132874157D01*
X148873174Y-132874398D01*
X148854751Y-132874398D01*
X148848640Y-132875000D01*
X148348640Y-132875000D01*
X148338885Y-132874039D01*
G37*
%TD*%
%TO.C,JP4*%
G36*
X147542529Y-130299398D02*
G01*
X147524106Y-130299398D01*
X147519205Y-130299157D01*
X147470374Y-130294347D01*
X147465521Y-130293627D01*
X147417396Y-130284055D01*
X147412635Y-130282863D01*
X147365680Y-130268619D01*
X147361061Y-130266966D01*
X147315728Y-130248189D01*
X147311291Y-130246091D01*
X147268018Y-130222960D01*
X147263811Y-130220438D01*
X147223012Y-130193178D01*
X147219070Y-130190254D01*
X147181141Y-130159126D01*
X147177506Y-130155831D01*
X147142809Y-130121134D01*
X147139514Y-130117499D01*
X147108386Y-130079570D01*
X147105462Y-130075628D01*
X147078202Y-130034829D01*
X147075680Y-130030622D01*
X147052549Y-129987349D01*
X147050451Y-129982912D01*
X147031674Y-129937579D01*
X147030021Y-129932960D01*
X147015777Y-129886005D01*
X147014585Y-129881244D01*
X147005013Y-129833119D01*
X147004293Y-129828266D01*
X146999483Y-129779435D01*
X146999242Y-129774534D01*
X146999242Y-129756111D01*
X146998640Y-129750000D01*
X146998640Y-129250000D01*
X146999242Y-129243889D01*
X146999242Y-129225466D01*
X146999483Y-129220565D01*
X147004293Y-129171734D01*
X147005013Y-129166881D01*
X147014585Y-129118756D01*
X147015777Y-129113995D01*
X147030021Y-129067040D01*
X147031674Y-129062421D01*
X147050451Y-129017088D01*
X147052549Y-129012651D01*
X147075680Y-128969378D01*
X147078202Y-128965171D01*
X147105462Y-128924372D01*
X147108386Y-128920430D01*
X147139514Y-128882501D01*
X147142809Y-128878866D01*
X147177506Y-128844169D01*
X147181141Y-128840874D01*
X147219070Y-128809746D01*
X147223012Y-128806822D01*
X147263811Y-128779562D01*
X147268018Y-128777040D01*
X147311291Y-128753909D01*
X147315728Y-128751811D01*
X147361061Y-128733034D01*
X147365680Y-128731381D01*
X147412635Y-128717137D01*
X147417396Y-128715945D01*
X147465521Y-128706373D01*
X147470374Y-128705653D01*
X147519205Y-128700843D01*
X147524106Y-128700602D01*
X147542529Y-128700602D01*
X147548640Y-128700000D01*
X148048640Y-128700000D01*
X148058395Y-128700961D01*
X148067774Y-128703806D01*
X148076419Y-128708427D01*
X148083995Y-128714645D01*
X148090213Y-128722221D01*
X148094834Y-128730866D01*
X148097679Y-128740245D01*
X148098640Y-128750000D01*
X148098640Y-130250000D01*
X148097679Y-130259755D01*
X148094834Y-130269134D01*
X148090213Y-130277779D01*
X148083995Y-130285355D01*
X148076419Y-130291573D01*
X148067774Y-130296194D01*
X148058395Y-130299039D01*
X148048640Y-130300000D01*
X147548640Y-130300000D01*
X147542529Y-130299398D01*
G37*
G36*
X148338885Y-130299039D02*
G01*
X148329506Y-130296194D01*
X148320861Y-130291573D01*
X148313285Y-130285355D01*
X148307067Y-130277779D01*
X148302446Y-130269134D01*
X148299601Y-130259755D01*
X148298640Y-130250000D01*
X148298640Y-128750000D01*
X148299601Y-128740245D01*
X148302446Y-128730866D01*
X148307067Y-128722221D01*
X148313285Y-128714645D01*
X148320861Y-128708427D01*
X148329506Y-128703806D01*
X148338885Y-128700961D01*
X148348640Y-128700000D01*
X148848640Y-128700000D01*
X148854751Y-128700602D01*
X148873174Y-128700602D01*
X148878075Y-128700843D01*
X148926906Y-128705653D01*
X148931759Y-128706373D01*
X148979884Y-128715945D01*
X148984645Y-128717137D01*
X149031600Y-128731381D01*
X149036219Y-128733034D01*
X149081552Y-128751811D01*
X149085989Y-128753909D01*
X149129262Y-128777040D01*
X149133469Y-128779562D01*
X149174268Y-128806822D01*
X149178210Y-128809746D01*
X149216139Y-128840874D01*
X149219774Y-128844169D01*
X149254471Y-128878866D01*
X149257766Y-128882501D01*
X149288894Y-128920430D01*
X149291818Y-128924372D01*
X149319078Y-128965171D01*
X149321600Y-128969378D01*
X149344731Y-129012651D01*
X149346829Y-129017088D01*
X149365606Y-129062421D01*
X149367259Y-129067040D01*
X149381503Y-129113995D01*
X149382695Y-129118756D01*
X149392267Y-129166881D01*
X149392987Y-129171734D01*
X149397797Y-129220565D01*
X149398038Y-129225466D01*
X149398038Y-129243889D01*
X149398640Y-129250000D01*
X149398640Y-129750000D01*
X149398038Y-129756111D01*
X149398038Y-129774534D01*
X149397797Y-129779435D01*
X149392987Y-129828266D01*
X149392267Y-129833119D01*
X149382695Y-129881244D01*
X149381503Y-129886005D01*
X149367259Y-129932960D01*
X149365606Y-129937579D01*
X149346829Y-129982912D01*
X149344731Y-129987349D01*
X149321600Y-130030622D01*
X149319078Y-130034829D01*
X149291818Y-130075628D01*
X149288894Y-130079570D01*
X149257766Y-130117499D01*
X149254471Y-130121134D01*
X149219774Y-130155831D01*
X149216139Y-130159126D01*
X149178210Y-130190254D01*
X149174268Y-130193178D01*
X149133469Y-130220438D01*
X149129262Y-130222960D01*
X149085989Y-130246091D01*
X149081552Y-130248189D01*
X149036219Y-130266966D01*
X149031600Y-130268619D01*
X148984645Y-130282863D01*
X148979884Y-130284055D01*
X148931759Y-130293627D01*
X148926906Y-130294347D01*
X148878075Y-130299157D01*
X148873174Y-130299398D01*
X148854751Y-130299398D01*
X148848640Y-130300000D01*
X148348640Y-130300000D01*
X148338885Y-130299039D01*
G37*
%TD*%
%TO.C,JP3*%
G36*
X147542529Y-127724398D02*
G01*
X147524106Y-127724398D01*
X147519205Y-127724157D01*
X147470374Y-127719347D01*
X147465521Y-127718627D01*
X147417396Y-127709055D01*
X147412635Y-127707863D01*
X147365680Y-127693619D01*
X147361061Y-127691966D01*
X147315728Y-127673189D01*
X147311291Y-127671091D01*
X147268018Y-127647960D01*
X147263811Y-127645438D01*
X147223012Y-127618178D01*
X147219070Y-127615254D01*
X147181141Y-127584126D01*
X147177506Y-127580831D01*
X147142809Y-127546134D01*
X147139514Y-127542499D01*
X147108386Y-127504570D01*
X147105462Y-127500628D01*
X147078202Y-127459829D01*
X147075680Y-127455622D01*
X147052549Y-127412349D01*
X147050451Y-127407912D01*
X147031674Y-127362579D01*
X147030021Y-127357960D01*
X147015777Y-127311005D01*
X147014585Y-127306244D01*
X147005013Y-127258119D01*
X147004293Y-127253266D01*
X146999483Y-127204435D01*
X146999242Y-127199534D01*
X146999242Y-127181111D01*
X146998640Y-127175000D01*
X146998640Y-126675000D01*
X146999242Y-126668889D01*
X146999242Y-126650466D01*
X146999483Y-126645565D01*
X147004293Y-126596734D01*
X147005013Y-126591881D01*
X147014585Y-126543756D01*
X147015777Y-126538995D01*
X147030021Y-126492040D01*
X147031674Y-126487421D01*
X147050451Y-126442088D01*
X147052549Y-126437651D01*
X147075680Y-126394378D01*
X147078202Y-126390171D01*
X147105462Y-126349372D01*
X147108386Y-126345430D01*
X147139514Y-126307501D01*
X147142809Y-126303866D01*
X147177506Y-126269169D01*
X147181141Y-126265874D01*
X147219070Y-126234746D01*
X147223012Y-126231822D01*
X147263811Y-126204562D01*
X147268018Y-126202040D01*
X147311291Y-126178909D01*
X147315728Y-126176811D01*
X147361061Y-126158034D01*
X147365680Y-126156381D01*
X147412635Y-126142137D01*
X147417396Y-126140945D01*
X147465521Y-126131373D01*
X147470374Y-126130653D01*
X147519205Y-126125843D01*
X147524106Y-126125602D01*
X147542529Y-126125602D01*
X147548640Y-126125000D01*
X148048640Y-126125000D01*
X148058395Y-126125961D01*
X148067774Y-126128806D01*
X148076419Y-126133427D01*
X148083995Y-126139645D01*
X148090213Y-126147221D01*
X148094834Y-126155866D01*
X148097679Y-126165245D01*
X148098640Y-126175000D01*
X148098640Y-127675000D01*
X148097679Y-127684755D01*
X148094834Y-127694134D01*
X148090213Y-127702779D01*
X148083995Y-127710355D01*
X148076419Y-127716573D01*
X148067774Y-127721194D01*
X148058395Y-127724039D01*
X148048640Y-127725000D01*
X147548640Y-127725000D01*
X147542529Y-127724398D01*
G37*
G36*
X148338885Y-127724039D02*
G01*
X148329506Y-127721194D01*
X148320861Y-127716573D01*
X148313285Y-127710355D01*
X148307067Y-127702779D01*
X148302446Y-127694134D01*
X148299601Y-127684755D01*
X148298640Y-127675000D01*
X148298640Y-126175000D01*
X148299601Y-126165245D01*
X148302446Y-126155866D01*
X148307067Y-126147221D01*
X148313285Y-126139645D01*
X148320861Y-126133427D01*
X148329506Y-126128806D01*
X148338885Y-126125961D01*
X148348640Y-126125000D01*
X148848640Y-126125000D01*
X148854751Y-126125602D01*
X148873174Y-126125602D01*
X148878075Y-126125843D01*
X148926906Y-126130653D01*
X148931759Y-126131373D01*
X148979884Y-126140945D01*
X148984645Y-126142137D01*
X149031600Y-126156381D01*
X149036219Y-126158034D01*
X149081552Y-126176811D01*
X149085989Y-126178909D01*
X149129262Y-126202040D01*
X149133469Y-126204562D01*
X149174268Y-126231822D01*
X149178210Y-126234746D01*
X149216139Y-126265874D01*
X149219774Y-126269169D01*
X149254471Y-126303866D01*
X149257766Y-126307501D01*
X149288894Y-126345430D01*
X149291818Y-126349372D01*
X149319078Y-126390171D01*
X149321600Y-126394378D01*
X149344731Y-126437651D01*
X149346829Y-126442088D01*
X149365606Y-126487421D01*
X149367259Y-126492040D01*
X149381503Y-126538995D01*
X149382695Y-126543756D01*
X149392267Y-126591881D01*
X149392987Y-126596734D01*
X149397797Y-126645565D01*
X149398038Y-126650466D01*
X149398038Y-126668889D01*
X149398640Y-126675000D01*
X149398640Y-127175000D01*
X149398038Y-127181111D01*
X149398038Y-127199534D01*
X149397797Y-127204435D01*
X149392987Y-127253266D01*
X149392267Y-127258119D01*
X149382695Y-127306244D01*
X149381503Y-127311005D01*
X149367259Y-127357960D01*
X149365606Y-127362579D01*
X149346829Y-127407912D01*
X149344731Y-127412349D01*
X149321600Y-127455622D01*
X149319078Y-127459829D01*
X149291818Y-127500628D01*
X149288894Y-127504570D01*
X149257766Y-127542499D01*
X149254471Y-127546134D01*
X149219774Y-127580831D01*
X149216139Y-127584126D01*
X149178210Y-127615254D01*
X149174268Y-127618178D01*
X149133469Y-127645438D01*
X149129262Y-127647960D01*
X149085989Y-127671091D01*
X149081552Y-127673189D01*
X149036219Y-127691966D01*
X149031600Y-127693619D01*
X148984645Y-127707863D01*
X148979884Y-127709055D01*
X148931759Y-127718627D01*
X148926906Y-127719347D01*
X148878075Y-127724157D01*
X148873174Y-127724398D01*
X148854751Y-127724398D01*
X148848640Y-127725000D01*
X148348640Y-127725000D01*
X148338885Y-127724039D01*
G37*
%TD*%
%TO.C,JP2*%
G36*
X147529829Y-125149398D02*
G01*
X147511406Y-125149398D01*
X147506505Y-125149157D01*
X147457674Y-125144347D01*
X147452821Y-125143627D01*
X147404696Y-125134055D01*
X147399935Y-125132863D01*
X147352980Y-125118619D01*
X147348361Y-125116966D01*
X147303028Y-125098189D01*
X147298591Y-125096091D01*
X147255318Y-125072960D01*
X147251111Y-125070438D01*
X147210312Y-125043178D01*
X147206370Y-125040254D01*
X147168441Y-125009126D01*
X147164806Y-125005831D01*
X147130109Y-124971134D01*
X147126814Y-124967499D01*
X147095686Y-124929570D01*
X147092762Y-124925628D01*
X147065502Y-124884829D01*
X147062980Y-124880622D01*
X147039849Y-124837349D01*
X147037751Y-124832912D01*
X147018974Y-124787579D01*
X147017321Y-124782960D01*
X147003077Y-124736005D01*
X147001885Y-124731244D01*
X146992313Y-124683119D01*
X146991593Y-124678266D01*
X146986783Y-124629435D01*
X146986542Y-124624534D01*
X146986542Y-124606111D01*
X146985940Y-124600000D01*
X146985940Y-124100000D01*
X146986542Y-124093889D01*
X146986542Y-124075466D01*
X146986783Y-124070565D01*
X146991593Y-124021734D01*
X146992313Y-124016881D01*
X147001885Y-123968756D01*
X147003077Y-123963995D01*
X147017321Y-123917040D01*
X147018974Y-123912421D01*
X147037751Y-123867088D01*
X147039849Y-123862651D01*
X147062980Y-123819378D01*
X147065502Y-123815171D01*
X147092762Y-123774372D01*
X147095686Y-123770430D01*
X147126814Y-123732501D01*
X147130109Y-123728866D01*
X147164806Y-123694169D01*
X147168441Y-123690874D01*
X147206370Y-123659746D01*
X147210312Y-123656822D01*
X147251111Y-123629562D01*
X147255318Y-123627040D01*
X147298591Y-123603909D01*
X147303028Y-123601811D01*
X147348361Y-123583034D01*
X147352980Y-123581381D01*
X147399935Y-123567137D01*
X147404696Y-123565945D01*
X147452821Y-123556373D01*
X147457674Y-123555653D01*
X147506505Y-123550843D01*
X147511406Y-123550602D01*
X147529829Y-123550602D01*
X147535940Y-123550000D01*
X148035940Y-123550000D01*
X148045695Y-123550961D01*
X148055074Y-123553806D01*
X148063719Y-123558427D01*
X148071295Y-123564645D01*
X148077513Y-123572221D01*
X148082134Y-123580866D01*
X148084979Y-123590245D01*
X148085940Y-123600000D01*
X148085940Y-125100000D01*
X148084979Y-125109755D01*
X148082134Y-125119134D01*
X148077513Y-125127779D01*
X148071295Y-125135355D01*
X148063719Y-125141573D01*
X148055074Y-125146194D01*
X148045695Y-125149039D01*
X148035940Y-125150000D01*
X147535940Y-125150000D01*
X147529829Y-125149398D01*
G37*
G36*
X148326185Y-125149039D02*
G01*
X148316806Y-125146194D01*
X148308161Y-125141573D01*
X148300585Y-125135355D01*
X148294367Y-125127779D01*
X148289746Y-125119134D01*
X148286901Y-125109755D01*
X148285940Y-125100000D01*
X148285940Y-123600000D01*
X148286901Y-123590245D01*
X148289746Y-123580866D01*
X148294367Y-123572221D01*
X148300585Y-123564645D01*
X148308161Y-123558427D01*
X148316806Y-123553806D01*
X148326185Y-123550961D01*
X148335940Y-123550000D01*
X148835940Y-123550000D01*
X148842051Y-123550602D01*
X148860474Y-123550602D01*
X148865375Y-123550843D01*
X148914206Y-123555653D01*
X148919059Y-123556373D01*
X148967184Y-123565945D01*
X148971945Y-123567137D01*
X149018900Y-123581381D01*
X149023519Y-123583034D01*
X149068852Y-123601811D01*
X149073289Y-123603909D01*
X149116562Y-123627040D01*
X149120769Y-123629562D01*
X149161568Y-123656822D01*
X149165510Y-123659746D01*
X149203439Y-123690874D01*
X149207074Y-123694169D01*
X149241771Y-123728866D01*
X149245066Y-123732501D01*
X149276194Y-123770430D01*
X149279118Y-123774372D01*
X149306378Y-123815171D01*
X149308900Y-123819378D01*
X149332031Y-123862651D01*
X149334129Y-123867088D01*
X149352906Y-123912421D01*
X149354559Y-123917040D01*
X149368803Y-123963995D01*
X149369995Y-123968756D01*
X149379567Y-124016881D01*
X149380287Y-124021734D01*
X149385097Y-124070565D01*
X149385338Y-124075466D01*
X149385338Y-124093889D01*
X149385940Y-124100000D01*
X149385940Y-124600000D01*
X149385338Y-124606111D01*
X149385338Y-124624534D01*
X149385097Y-124629435D01*
X149380287Y-124678266D01*
X149379567Y-124683119D01*
X149369995Y-124731244D01*
X149368803Y-124736005D01*
X149354559Y-124782960D01*
X149352906Y-124787579D01*
X149334129Y-124832912D01*
X149332031Y-124837349D01*
X149308900Y-124880622D01*
X149306378Y-124884829D01*
X149279118Y-124925628D01*
X149276194Y-124929570D01*
X149245066Y-124967499D01*
X149241771Y-124971134D01*
X149207074Y-125005831D01*
X149203439Y-125009126D01*
X149165510Y-125040254D01*
X149161568Y-125043178D01*
X149120769Y-125070438D01*
X149116562Y-125072960D01*
X149073289Y-125096091D01*
X149068852Y-125098189D01*
X149023519Y-125116966D01*
X149018900Y-125118619D01*
X148971945Y-125132863D01*
X148967184Y-125134055D01*
X148919059Y-125143627D01*
X148914206Y-125144347D01*
X148865375Y-125149157D01*
X148860474Y-125149398D01*
X148842051Y-125149398D01*
X148835940Y-125150000D01*
X148335940Y-125150000D01*
X148326185Y-125149039D01*
G37*
%TD*%
M02*
