%TF.GenerationSoftware,KiCad,Pcbnew,(5.1.5)-3*%
%TF.CreationDate,2020-08-14T00:04:13+02:00*%
%TF.ProjectId,HorticultureSensor,486f7274-6963-4756-9c74-75726553656e,rev?*%
%TF.SameCoordinates,Original*%
%TF.FileFunction,Copper,L1,Top*%
%TF.FilePolarity,Positive*%
%FSLAX46Y46*%
G04 Gerber Fmt 4.6, Leading zero omitted, Abs format (unit mm)*
G04 Created by KiCad (PCBNEW (5.1.5)-3) date 2020-08-14 00:04:13*
%MOMM*%
%LPD*%
G04 APERTURE LIST*
%TA.AperFunction,ComponentPad*%
%ADD10O,1.700000X1.950000*%
%TD*%
%TA.AperFunction,ComponentPad*%
%ADD11C,0.100000*%
%TD*%
%TA.AperFunction,ComponentPad*%
%ADD12C,6.400000*%
%TD*%
%TA.AperFunction,SMDPad,CuDef*%
%ADD13R,0.900000X0.800000*%
%TD*%
%TA.AperFunction,SMDPad,CuDef*%
%ADD14R,1.450000X0.450000*%
%TD*%
%TA.AperFunction,SMDPad,CuDef*%
%ADD15R,0.800000X0.900000*%
%TD*%
%TA.AperFunction,ComponentPad*%
%ADD16O,2.000000X1.700000*%
%TD*%
%TA.AperFunction,SMDPad,CuDef*%
%ADD17R,0.400000X0.600000*%
%TD*%
%TA.AperFunction,SMDPad,CuDef*%
%ADD18R,1.600000X0.700000*%
%TD*%
%TA.AperFunction,SMDPad,CuDef*%
%ADD19C,0.100000*%
%TD*%
%TA.AperFunction,ComponentPad*%
%ADD20O,1.700000X2.000000*%
%TD*%
%TA.AperFunction,SMDPad,CuDef*%
%ADD21R,2.400000X0.740000*%
%TD*%
%TA.AperFunction,ViaPad*%
%ADD22C,0.800000*%
%TD*%
%TA.AperFunction,Conductor*%
%ADD23C,0.250000*%
%TD*%
%TA.AperFunction,Conductor*%
%ADD24C,1.000000*%
%TD*%
%TA.AperFunction,Conductor*%
%ADD25C,0.500000*%
%TD*%
%TA.AperFunction,Conductor*%
%ADD26C,0.254000*%
%TD*%
G04 APERTURE END LIST*
D10*
%TO.P,J5,3*%
%TO.N,12V-*%
X178300000Y-129075000D03*
%TO.P,J5,2*%
%TO.N,AnalogSignal1*%
X175800000Y-129075000D03*
%TA.AperFunction,ComponentPad*%
D11*
%TO.P,J5,1*%
%TO.N,+3V3*%
G36*
X173924504Y-128101204D02*
G01*
X173948773Y-128104804D01*
X173972571Y-128110765D01*
X173995671Y-128119030D01*
X174017849Y-128129520D01*
X174038893Y-128142133D01*
X174058598Y-128156747D01*
X174076777Y-128173223D01*
X174093253Y-128191402D01*
X174107867Y-128211107D01*
X174120480Y-128232151D01*
X174130970Y-128254329D01*
X174139235Y-128277429D01*
X174145196Y-128301227D01*
X174148796Y-128325496D01*
X174150000Y-128350000D01*
X174150000Y-129800000D01*
X174148796Y-129824504D01*
X174145196Y-129848773D01*
X174139235Y-129872571D01*
X174130970Y-129895671D01*
X174120480Y-129917849D01*
X174107867Y-129938893D01*
X174093253Y-129958598D01*
X174076777Y-129976777D01*
X174058598Y-129993253D01*
X174038893Y-130007867D01*
X174017849Y-130020480D01*
X173995671Y-130030970D01*
X173972571Y-130039235D01*
X173948773Y-130045196D01*
X173924504Y-130048796D01*
X173900000Y-130050000D01*
X172700000Y-130050000D01*
X172675496Y-130048796D01*
X172651227Y-130045196D01*
X172627429Y-130039235D01*
X172604329Y-130030970D01*
X172582151Y-130020480D01*
X172561107Y-130007867D01*
X172541402Y-129993253D01*
X172523223Y-129976777D01*
X172506747Y-129958598D01*
X172492133Y-129938893D01*
X172479520Y-129917849D01*
X172469030Y-129895671D01*
X172460765Y-129872571D01*
X172454804Y-129848773D01*
X172451204Y-129824504D01*
X172450000Y-129800000D01*
X172450000Y-128350000D01*
X172451204Y-128325496D01*
X172454804Y-128301227D01*
X172460765Y-128277429D01*
X172469030Y-128254329D01*
X172479520Y-128232151D01*
X172492133Y-128211107D01*
X172506747Y-128191402D01*
X172523223Y-128173223D01*
X172541402Y-128156747D01*
X172561107Y-128142133D01*
X172582151Y-128129520D01*
X172604329Y-128119030D01*
X172627429Y-128110765D01*
X172651227Y-128104804D01*
X172675496Y-128101204D01*
X172700000Y-128100000D01*
X173900000Y-128100000D01*
X173924504Y-128101204D01*
G37*
%TD.AperFunction*%
%TD*%
D10*
%TO.P,J3,3*%
%TO.N,12V-*%
X178300000Y-136200000D03*
%TO.P,J3,2*%
%TO.N,AnalogSignal0*%
X175800000Y-136200000D03*
%TA.AperFunction,ComponentPad*%
D11*
%TO.P,J3,1*%
%TO.N,+3V3*%
G36*
X173924504Y-135226204D02*
G01*
X173948773Y-135229804D01*
X173972571Y-135235765D01*
X173995671Y-135244030D01*
X174017849Y-135254520D01*
X174038893Y-135267133D01*
X174058598Y-135281747D01*
X174076777Y-135298223D01*
X174093253Y-135316402D01*
X174107867Y-135336107D01*
X174120480Y-135357151D01*
X174130970Y-135379329D01*
X174139235Y-135402429D01*
X174145196Y-135426227D01*
X174148796Y-135450496D01*
X174150000Y-135475000D01*
X174150000Y-136925000D01*
X174148796Y-136949504D01*
X174145196Y-136973773D01*
X174139235Y-136997571D01*
X174130970Y-137020671D01*
X174120480Y-137042849D01*
X174107867Y-137063893D01*
X174093253Y-137083598D01*
X174076777Y-137101777D01*
X174058598Y-137118253D01*
X174038893Y-137132867D01*
X174017849Y-137145480D01*
X173995671Y-137155970D01*
X173972571Y-137164235D01*
X173948773Y-137170196D01*
X173924504Y-137173796D01*
X173900000Y-137175000D01*
X172700000Y-137175000D01*
X172675496Y-137173796D01*
X172651227Y-137170196D01*
X172627429Y-137164235D01*
X172604329Y-137155970D01*
X172582151Y-137145480D01*
X172561107Y-137132867D01*
X172541402Y-137118253D01*
X172523223Y-137101777D01*
X172506747Y-137083598D01*
X172492133Y-137063893D01*
X172479520Y-137042849D01*
X172469030Y-137020671D01*
X172460765Y-136997571D01*
X172454804Y-136973773D01*
X172451204Y-136949504D01*
X172450000Y-136925000D01*
X172450000Y-135475000D01*
X172451204Y-135450496D01*
X172454804Y-135426227D01*
X172460765Y-135402429D01*
X172469030Y-135379329D01*
X172479520Y-135357151D01*
X172492133Y-135336107D01*
X172506747Y-135316402D01*
X172523223Y-135298223D01*
X172541402Y-135281747D01*
X172561107Y-135267133D01*
X172582151Y-135254520D01*
X172604329Y-135244030D01*
X172627429Y-135235765D01*
X172651227Y-135229804D01*
X172675496Y-135226204D01*
X172700000Y-135225000D01*
X173900000Y-135225000D01*
X173924504Y-135226204D01*
G37*
%TD.AperFunction*%
%TD*%
D10*
%TO.P,J4,4*%
%TO.N,12V-*%
X162900000Y-137475000D03*
%TO.P,J4,3*%
%TO.N,VCC*%
X160400000Y-137475000D03*
%TO.P,J4,2*%
%TO.N,I2c-SCL*%
X157900000Y-137475000D03*
%TA.AperFunction,ComponentPad*%
D11*
%TO.P,J4,1*%
%TO.N,I2c-SDA*%
G36*
X156024504Y-136501204D02*
G01*
X156048773Y-136504804D01*
X156072571Y-136510765D01*
X156095671Y-136519030D01*
X156117849Y-136529520D01*
X156138893Y-136542133D01*
X156158598Y-136556747D01*
X156176777Y-136573223D01*
X156193253Y-136591402D01*
X156207867Y-136611107D01*
X156220480Y-136632151D01*
X156230970Y-136654329D01*
X156239235Y-136677429D01*
X156245196Y-136701227D01*
X156248796Y-136725496D01*
X156250000Y-136750000D01*
X156250000Y-138200000D01*
X156248796Y-138224504D01*
X156245196Y-138248773D01*
X156239235Y-138272571D01*
X156230970Y-138295671D01*
X156220480Y-138317849D01*
X156207867Y-138338893D01*
X156193253Y-138358598D01*
X156176777Y-138376777D01*
X156158598Y-138393253D01*
X156138893Y-138407867D01*
X156117849Y-138420480D01*
X156095671Y-138430970D01*
X156072571Y-138439235D01*
X156048773Y-138445196D01*
X156024504Y-138448796D01*
X156000000Y-138450000D01*
X154800000Y-138450000D01*
X154775496Y-138448796D01*
X154751227Y-138445196D01*
X154727429Y-138439235D01*
X154704329Y-138430970D01*
X154682151Y-138420480D01*
X154661107Y-138407867D01*
X154641402Y-138393253D01*
X154623223Y-138376777D01*
X154606747Y-138358598D01*
X154592133Y-138338893D01*
X154579520Y-138317849D01*
X154569030Y-138295671D01*
X154560765Y-138272571D01*
X154554804Y-138248773D01*
X154551204Y-138224504D01*
X154550000Y-138200000D01*
X154550000Y-136750000D01*
X154551204Y-136725496D01*
X154554804Y-136701227D01*
X154560765Y-136677429D01*
X154569030Y-136654329D01*
X154579520Y-136632151D01*
X154592133Y-136611107D01*
X154606747Y-136591402D01*
X154623223Y-136573223D01*
X154641402Y-136556747D01*
X154661107Y-136542133D01*
X154682151Y-136529520D01*
X154704329Y-136519030D01*
X154727429Y-136510765D01*
X154751227Y-136504804D01*
X154775496Y-136501204D01*
X154800000Y-136500000D01*
X156000000Y-136500000D01*
X156024504Y-136501204D01*
G37*
%TD.AperFunction*%
%TD*%
D10*
%TO.P,J1,4*%
%TO.N,12V-*%
X154900000Y-119325000D03*
%TO.P,J1,3*%
%TO.N,VCC*%
X157400000Y-119325000D03*
%TO.P,J1,2*%
%TO.N,I2c-SCL*%
X159900000Y-119325000D03*
%TA.AperFunction,ComponentPad*%
D11*
%TO.P,J1,1*%
%TO.N,I2c-SDA*%
G36*
X163024504Y-118351204D02*
G01*
X163048773Y-118354804D01*
X163072571Y-118360765D01*
X163095671Y-118369030D01*
X163117849Y-118379520D01*
X163138893Y-118392133D01*
X163158598Y-118406747D01*
X163176777Y-118423223D01*
X163193253Y-118441402D01*
X163207867Y-118461107D01*
X163220480Y-118482151D01*
X163230970Y-118504329D01*
X163239235Y-118527429D01*
X163245196Y-118551227D01*
X163248796Y-118575496D01*
X163250000Y-118600000D01*
X163250000Y-120050000D01*
X163248796Y-120074504D01*
X163245196Y-120098773D01*
X163239235Y-120122571D01*
X163230970Y-120145671D01*
X163220480Y-120167849D01*
X163207867Y-120188893D01*
X163193253Y-120208598D01*
X163176777Y-120226777D01*
X163158598Y-120243253D01*
X163138893Y-120257867D01*
X163117849Y-120270480D01*
X163095671Y-120280970D01*
X163072571Y-120289235D01*
X163048773Y-120295196D01*
X163024504Y-120298796D01*
X163000000Y-120300000D01*
X161800000Y-120300000D01*
X161775496Y-120298796D01*
X161751227Y-120295196D01*
X161727429Y-120289235D01*
X161704329Y-120280970D01*
X161682151Y-120270480D01*
X161661107Y-120257867D01*
X161641402Y-120243253D01*
X161623223Y-120226777D01*
X161606747Y-120208598D01*
X161592133Y-120188893D01*
X161579520Y-120167849D01*
X161569030Y-120145671D01*
X161560765Y-120122571D01*
X161554804Y-120098773D01*
X161551204Y-120074504D01*
X161550000Y-120050000D01*
X161550000Y-118600000D01*
X161551204Y-118575496D01*
X161554804Y-118551227D01*
X161560765Y-118527429D01*
X161569030Y-118504329D01*
X161579520Y-118482151D01*
X161592133Y-118461107D01*
X161606747Y-118441402D01*
X161623223Y-118423223D01*
X161641402Y-118406747D01*
X161661107Y-118392133D01*
X161682151Y-118379520D01*
X161704329Y-118369030D01*
X161727429Y-118360765D01*
X161751227Y-118354804D01*
X161775496Y-118351204D01*
X161800000Y-118350000D01*
X163000000Y-118350000D01*
X163024504Y-118351204D01*
G37*
%TD.AperFunction*%
%TD*%
D12*
%TO.P,H2,1*%
%TO.N,12V-*%
X147750000Y-141775000D03*
%TD*%
%TO.P,H1,1*%
%TO.N,12V-*%
X148075000Y-116025000D03*
%TD*%
D13*
%TO.P,U3,3*%
%TO.N,VCC*%
X178675000Y-116325000D03*
%TO.P,U3,2*%
%TO.N,+3V3*%
X176675000Y-117275000D03*
%TO.P,U3,1*%
%TO.N,12V-*%
X176675000Y-115375000D03*
%TD*%
D14*
%TO.P,U1,20*%
%TO.N,SWD-SWCLK*%
X153525000Y-131675000D03*
%TO.P,U1,19*%
%TO.N,SWD-SWIO*%
X153525000Y-131025000D03*
%TO.P,U1,18*%
%TO.N,I2c-SDA*%
X153525000Y-130375000D03*
%TO.P,U1,17*%
%TO.N,I2c-SCL*%
X153525000Y-129725000D03*
%TO.P,U1,16*%
%TO.N,+3V3*%
X153525000Y-129075000D03*
%TO.P,U1,15*%
%TO.N,12V-*%
X153525000Y-128425000D03*
%TO.P,U1,14*%
%TO.N,Net-(U1-Pad14)*%
X153525000Y-127775000D03*
%TO.P,U1,13*%
%TO.N,i2c-addr_3*%
X153525000Y-127125000D03*
%TO.P,U1,12*%
%TO.N,i2c-addr_2*%
X153525000Y-126475000D03*
%TO.P,U1,11*%
%TO.N,i2c-addr_1*%
X153525000Y-125825000D03*
%TO.P,U1,10*%
%TO.N,i2c-addr_0*%
X159425000Y-125825000D03*
%TO.P,U1,9*%
%TO.N,mosfet0*%
X159425000Y-126475000D03*
%TO.P,U1,8*%
%TO.N,mosfet1*%
X159425000Y-127125000D03*
%TO.P,U1,7*%
%TO.N,AnalogSignal1*%
X159425000Y-127775000D03*
%TO.P,U1,6*%
%TO.N,AnalogSignal0*%
X159425000Y-128425000D03*
%TO.P,U1,5*%
%TO.N,+3V3*%
X159425000Y-129075000D03*
%TO.P,U1,4*%
%TO.N,nRESET*%
X159425000Y-129725000D03*
%TO.P,U1,3*%
%TO.N,Net-(U1-Pad3)*%
X159425000Y-130375000D03*
%TO.P,U1,2*%
%TO.N,Net-(U1-Pad2)*%
X159425000Y-131025000D03*
%TO.P,U1,1*%
%TO.N,Net-(U1-Pad1)*%
X159425000Y-131675000D03*
%TD*%
D15*
%TO.P,Q2,3*%
%TO.N,control_1*%
X187283740Y-137783380D03*
%TO.P,Q2,2*%
%TO.N,12V-*%
X186333740Y-135783380D03*
%TO.P,Q2,1*%
%TO.N,Net-(Q2-Pad1)*%
X188233740Y-135783380D03*
%TD*%
%TO.P,Q1,3*%
%TO.N,control_0*%
X184950560Y-119044500D03*
%TO.P,Q1,2*%
%TO.N,12V-*%
X185900560Y-121044500D03*
%TO.P,Q1,1*%
%TO.N,Net-(Q1-Pad1)*%
X184000560Y-121044500D03*
%TD*%
D16*
%TO.P,J8,2*%
%TO.N,12V+*%
X187625000Y-127775000D03*
%TA.AperFunction,ComponentPad*%
D11*
%TO.P,J8,1*%
%TO.N,12V-*%
G36*
X188399504Y-124426204D02*
G01*
X188423773Y-124429804D01*
X188447571Y-124435765D01*
X188470671Y-124444030D01*
X188492849Y-124454520D01*
X188513893Y-124467133D01*
X188533598Y-124481747D01*
X188551777Y-124498223D01*
X188568253Y-124516402D01*
X188582867Y-124536107D01*
X188595480Y-124557151D01*
X188605970Y-124579329D01*
X188614235Y-124602429D01*
X188620196Y-124626227D01*
X188623796Y-124650496D01*
X188625000Y-124675000D01*
X188625000Y-125875000D01*
X188623796Y-125899504D01*
X188620196Y-125923773D01*
X188614235Y-125947571D01*
X188605970Y-125970671D01*
X188595480Y-125992849D01*
X188582867Y-126013893D01*
X188568253Y-126033598D01*
X188551777Y-126051777D01*
X188533598Y-126068253D01*
X188513893Y-126082867D01*
X188492849Y-126095480D01*
X188470671Y-126105970D01*
X188447571Y-126114235D01*
X188423773Y-126120196D01*
X188399504Y-126123796D01*
X188375000Y-126125000D01*
X186875000Y-126125000D01*
X186850496Y-126123796D01*
X186826227Y-126120196D01*
X186802429Y-126114235D01*
X186779329Y-126105970D01*
X186757151Y-126095480D01*
X186736107Y-126082867D01*
X186716402Y-126068253D01*
X186698223Y-126051777D01*
X186681747Y-126033598D01*
X186667133Y-126013893D01*
X186654520Y-125992849D01*
X186644030Y-125970671D01*
X186635765Y-125947571D01*
X186629804Y-125923773D01*
X186626204Y-125899504D01*
X186625000Y-125875000D01*
X186625000Y-124675000D01*
X186626204Y-124650496D01*
X186629804Y-124626227D01*
X186635765Y-124602429D01*
X186644030Y-124579329D01*
X186654520Y-124557151D01*
X186667133Y-124536107D01*
X186681747Y-124516402D01*
X186698223Y-124498223D01*
X186716402Y-124481747D01*
X186736107Y-124467133D01*
X186757151Y-124454520D01*
X186779329Y-124444030D01*
X186802429Y-124435765D01*
X186826227Y-124429804D01*
X186850496Y-124426204D01*
X186875000Y-124425000D01*
X188375000Y-124425000D01*
X188399504Y-124426204D01*
G37*
%TD.AperFunction*%
%TD*%
D17*
%TO.P,U2,3*%
%TO.N,I2c-SDA*%
X167875000Y-142975000D03*
%TO.P,U2,1*%
%TO.N,+3V3*%
X168825000Y-141075000D03*
%TO.P,U2,2*%
%TO.N,I2c-SCL*%
X167875000Y-141075000D03*
%TO.P,U2,4*%
%TO.N,12V-*%
X168825000Y-142975000D03*
D18*
%TO.P,U2,5*%
X168350000Y-142025000D03*
%TD*%
%TA.AperFunction,SMDPad,CuDef*%
D19*
%TO.P,R2,2*%
%TO.N,mosfet1*%
G36*
X187580142Y-131501174D02*
G01*
X187603803Y-131504684D01*
X187627007Y-131510496D01*
X187649529Y-131518554D01*
X187671153Y-131528782D01*
X187691670Y-131541079D01*
X187710883Y-131555329D01*
X187728607Y-131571393D01*
X187744671Y-131589117D01*
X187758921Y-131608330D01*
X187771218Y-131628847D01*
X187781446Y-131650471D01*
X187789504Y-131672993D01*
X187795316Y-131696197D01*
X187798826Y-131719858D01*
X187800000Y-131743750D01*
X187800000Y-132231250D01*
X187798826Y-132255142D01*
X187795316Y-132278803D01*
X187789504Y-132302007D01*
X187781446Y-132324529D01*
X187771218Y-132346153D01*
X187758921Y-132366670D01*
X187744671Y-132385883D01*
X187728607Y-132403607D01*
X187710883Y-132419671D01*
X187691670Y-132433921D01*
X187671153Y-132446218D01*
X187649529Y-132456446D01*
X187627007Y-132464504D01*
X187603803Y-132470316D01*
X187580142Y-132473826D01*
X187556250Y-132475000D01*
X186643750Y-132475000D01*
X186619858Y-132473826D01*
X186596197Y-132470316D01*
X186572993Y-132464504D01*
X186550471Y-132456446D01*
X186528847Y-132446218D01*
X186508330Y-132433921D01*
X186489117Y-132419671D01*
X186471393Y-132403607D01*
X186455329Y-132385883D01*
X186441079Y-132366670D01*
X186428782Y-132346153D01*
X186418554Y-132324529D01*
X186410496Y-132302007D01*
X186404684Y-132278803D01*
X186401174Y-132255142D01*
X186400000Y-132231250D01*
X186400000Y-131743750D01*
X186401174Y-131719858D01*
X186404684Y-131696197D01*
X186410496Y-131672993D01*
X186418554Y-131650471D01*
X186428782Y-131628847D01*
X186441079Y-131608330D01*
X186455329Y-131589117D01*
X186471393Y-131571393D01*
X186489117Y-131555329D01*
X186508330Y-131541079D01*
X186528847Y-131528782D01*
X186550471Y-131518554D01*
X186572993Y-131510496D01*
X186596197Y-131504684D01*
X186619858Y-131501174D01*
X186643750Y-131500000D01*
X187556250Y-131500000D01*
X187580142Y-131501174D01*
G37*
%TD.AperFunction*%
%TA.AperFunction,SMDPad,CuDef*%
%TO.P,R2,1*%
%TO.N,Net-(Q2-Pad1)*%
G36*
X187580142Y-133376174D02*
G01*
X187603803Y-133379684D01*
X187627007Y-133385496D01*
X187649529Y-133393554D01*
X187671153Y-133403782D01*
X187691670Y-133416079D01*
X187710883Y-133430329D01*
X187728607Y-133446393D01*
X187744671Y-133464117D01*
X187758921Y-133483330D01*
X187771218Y-133503847D01*
X187781446Y-133525471D01*
X187789504Y-133547993D01*
X187795316Y-133571197D01*
X187798826Y-133594858D01*
X187800000Y-133618750D01*
X187800000Y-134106250D01*
X187798826Y-134130142D01*
X187795316Y-134153803D01*
X187789504Y-134177007D01*
X187781446Y-134199529D01*
X187771218Y-134221153D01*
X187758921Y-134241670D01*
X187744671Y-134260883D01*
X187728607Y-134278607D01*
X187710883Y-134294671D01*
X187691670Y-134308921D01*
X187671153Y-134321218D01*
X187649529Y-134331446D01*
X187627007Y-134339504D01*
X187603803Y-134345316D01*
X187580142Y-134348826D01*
X187556250Y-134350000D01*
X186643750Y-134350000D01*
X186619858Y-134348826D01*
X186596197Y-134345316D01*
X186572993Y-134339504D01*
X186550471Y-134331446D01*
X186528847Y-134321218D01*
X186508330Y-134308921D01*
X186489117Y-134294671D01*
X186471393Y-134278607D01*
X186455329Y-134260883D01*
X186441079Y-134241670D01*
X186428782Y-134221153D01*
X186418554Y-134199529D01*
X186410496Y-134177007D01*
X186404684Y-134153803D01*
X186401174Y-134130142D01*
X186400000Y-134106250D01*
X186400000Y-133618750D01*
X186401174Y-133594858D01*
X186404684Y-133571197D01*
X186410496Y-133547993D01*
X186418554Y-133525471D01*
X186428782Y-133503847D01*
X186441079Y-133483330D01*
X186455329Y-133464117D01*
X186471393Y-133446393D01*
X186489117Y-133430329D01*
X186508330Y-133416079D01*
X186528847Y-133403782D01*
X186550471Y-133393554D01*
X186572993Y-133385496D01*
X186596197Y-133379684D01*
X186619858Y-133376174D01*
X186643750Y-133375000D01*
X187556250Y-133375000D01*
X187580142Y-133376174D01*
G37*
%TD.AperFunction*%
%TD*%
%TA.AperFunction,SMDPad,CuDef*%
%TO.P,R1,2*%
%TO.N,mosfet0*%
G36*
X182180142Y-122426174D02*
G01*
X182203803Y-122429684D01*
X182227007Y-122435496D01*
X182249529Y-122443554D01*
X182271153Y-122453782D01*
X182291670Y-122466079D01*
X182310883Y-122480329D01*
X182328607Y-122496393D01*
X182344671Y-122514117D01*
X182358921Y-122533330D01*
X182371218Y-122553847D01*
X182381446Y-122575471D01*
X182389504Y-122597993D01*
X182395316Y-122621197D01*
X182398826Y-122644858D01*
X182400000Y-122668750D01*
X182400000Y-123156250D01*
X182398826Y-123180142D01*
X182395316Y-123203803D01*
X182389504Y-123227007D01*
X182381446Y-123249529D01*
X182371218Y-123271153D01*
X182358921Y-123291670D01*
X182344671Y-123310883D01*
X182328607Y-123328607D01*
X182310883Y-123344671D01*
X182291670Y-123358921D01*
X182271153Y-123371218D01*
X182249529Y-123381446D01*
X182227007Y-123389504D01*
X182203803Y-123395316D01*
X182180142Y-123398826D01*
X182156250Y-123400000D01*
X181243750Y-123400000D01*
X181219858Y-123398826D01*
X181196197Y-123395316D01*
X181172993Y-123389504D01*
X181150471Y-123381446D01*
X181128847Y-123371218D01*
X181108330Y-123358921D01*
X181089117Y-123344671D01*
X181071393Y-123328607D01*
X181055329Y-123310883D01*
X181041079Y-123291670D01*
X181028782Y-123271153D01*
X181018554Y-123249529D01*
X181010496Y-123227007D01*
X181004684Y-123203803D01*
X181001174Y-123180142D01*
X181000000Y-123156250D01*
X181000000Y-122668750D01*
X181001174Y-122644858D01*
X181004684Y-122621197D01*
X181010496Y-122597993D01*
X181018554Y-122575471D01*
X181028782Y-122553847D01*
X181041079Y-122533330D01*
X181055329Y-122514117D01*
X181071393Y-122496393D01*
X181089117Y-122480329D01*
X181108330Y-122466079D01*
X181128847Y-122453782D01*
X181150471Y-122443554D01*
X181172993Y-122435496D01*
X181196197Y-122429684D01*
X181219858Y-122426174D01*
X181243750Y-122425000D01*
X182156250Y-122425000D01*
X182180142Y-122426174D01*
G37*
%TD.AperFunction*%
%TA.AperFunction,SMDPad,CuDef*%
%TO.P,R1,1*%
%TO.N,Net-(Q1-Pad1)*%
G36*
X182180142Y-120551174D02*
G01*
X182203803Y-120554684D01*
X182227007Y-120560496D01*
X182249529Y-120568554D01*
X182271153Y-120578782D01*
X182291670Y-120591079D01*
X182310883Y-120605329D01*
X182328607Y-120621393D01*
X182344671Y-120639117D01*
X182358921Y-120658330D01*
X182371218Y-120678847D01*
X182381446Y-120700471D01*
X182389504Y-120722993D01*
X182395316Y-120746197D01*
X182398826Y-120769858D01*
X182400000Y-120793750D01*
X182400000Y-121281250D01*
X182398826Y-121305142D01*
X182395316Y-121328803D01*
X182389504Y-121352007D01*
X182381446Y-121374529D01*
X182371218Y-121396153D01*
X182358921Y-121416670D01*
X182344671Y-121435883D01*
X182328607Y-121453607D01*
X182310883Y-121469671D01*
X182291670Y-121483921D01*
X182271153Y-121496218D01*
X182249529Y-121506446D01*
X182227007Y-121514504D01*
X182203803Y-121520316D01*
X182180142Y-121523826D01*
X182156250Y-121525000D01*
X181243750Y-121525000D01*
X181219858Y-121523826D01*
X181196197Y-121520316D01*
X181172993Y-121514504D01*
X181150471Y-121506446D01*
X181128847Y-121496218D01*
X181108330Y-121483921D01*
X181089117Y-121469671D01*
X181071393Y-121453607D01*
X181055329Y-121435883D01*
X181041079Y-121416670D01*
X181028782Y-121396153D01*
X181018554Y-121374529D01*
X181010496Y-121352007D01*
X181004684Y-121328803D01*
X181001174Y-121305142D01*
X181000000Y-121281250D01*
X181000000Y-120793750D01*
X181001174Y-120769858D01*
X181004684Y-120746197D01*
X181010496Y-120722993D01*
X181018554Y-120700471D01*
X181028782Y-120678847D01*
X181041079Y-120658330D01*
X181055329Y-120639117D01*
X181071393Y-120621393D01*
X181089117Y-120605329D01*
X181108330Y-120591079D01*
X181128847Y-120578782D01*
X181150471Y-120568554D01*
X181172993Y-120560496D01*
X181196197Y-120554684D01*
X181219858Y-120551174D01*
X181243750Y-120550000D01*
X182156250Y-120550000D01*
X182180142Y-120551174D01*
G37*
%TD.AperFunction*%
%TD*%
%TA.AperFunction,SMDPad,CuDef*%
%TO.P,JP5,2*%
%TO.N,12V-*%
G36*
X147548640Y-132824398D02*
G01*
X147524106Y-132824398D01*
X147475275Y-132819588D01*
X147427150Y-132810016D01*
X147380195Y-132795772D01*
X147334862Y-132776995D01*
X147291589Y-132753864D01*
X147250790Y-132726604D01*
X147212861Y-132695476D01*
X147178164Y-132660779D01*
X147147036Y-132622850D01*
X147119776Y-132582051D01*
X147096645Y-132538778D01*
X147077868Y-132493445D01*
X147063624Y-132446490D01*
X147054052Y-132398365D01*
X147049242Y-132349534D01*
X147049242Y-132325000D01*
X147048640Y-132325000D01*
X147048640Y-131825000D01*
X147049242Y-131825000D01*
X147049242Y-131800466D01*
X147054052Y-131751635D01*
X147063624Y-131703510D01*
X147077868Y-131656555D01*
X147096645Y-131611222D01*
X147119776Y-131567949D01*
X147147036Y-131527150D01*
X147178164Y-131489221D01*
X147212861Y-131454524D01*
X147250790Y-131423396D01*
X147291589Y-131396136D01*
X147334862Y-131373005D01*
X147380195Y-131354228D01*
X147427150Y-131339984D01*
X147475275Y-131330412D01*
X147524106Y-131325602D01*
X147548640Y-131325602D01*
X147548640Y-131325000D01*
X148048640Y-131325000D01*
X148048640Y-132825000D01*
X147548640Y-132825000D01*
X147548640Y-132824398D01*
G37*
%TD.AperFunction*%
%TA.AperFunction,SMDPad,CuDef*%
%TO.P,JP5,1*%
%TO.N,i2c-addr_3*%
G36*
X148348640Y-131325000D02*
G01*
X148848640Y-131325000D01*
X148848640Y-131325602D01*
X148873174Y-131325602D01*
X148922005Y-131330412D01*
X148970130Y-131339984D01*
X149017085Y-131354228D01*
X149062418Y-131373005D01*
X149105691Y-131396136D01*
X149146490Y-131423396D01*
X149184419Y-131454524D01*
X149219116Y-131489221D01*
X149250244Y-131527150D01*
X149277504Y-131567949D01*
X149300635Y-131611222D01*
X149319412Y-131656555D01*
X149333656Y-131703510D01*
X149343228Y-131751635D01*
X149348038Y-131800466D01*
X149348038Y-131825000D01*
X149348640Y-131825000D01*
X149348640Y-132325000D01*
X149348038Y-132325000D01*
X149348038Y-132349534D01*
X149343228Y-132398365D01*
X149333656Y-132446490D01*
X149319412Y-132493445D01*
X149300635Y-132538778D01*
X149277504Y-132582051D01*
X149250244Y-132622850D01*
X149219116Y-132660779D01*
X149184419Y-132695476D01*
X149146490Y-132726604D01*
X149105691Y-132753864D01*
X149062418Y-132776995D01*
X149017085Y-132795772D01*
X148970130Y-132810016D01*
X148922005Y-132819588D01*
X148873174Y-132824398D01*
X148848640Y-132824398D01*
X148848640Y-132825000D01*
X148348640Y-132825000D01*
X148348640Y-131325000D01*
G37*
%TD.AperFunction*%
%TD*%
%TA.AperFunction,SMDPad,CuDef*%
%TO.P,JP4,2*%
%TO.N,12V-*%
G36*
X147548640Y-130249398D02*
G01*
X147524106Y-130249398D01*
X147475275Y-130244588D01*
X147427150Y-130235016D01*
X147380195Y-130220772D01*
X147334862Y-130201995D01*
X147291589Y-130178864D01*
X147250790Y-130151604D01*
X147212861Y-130120476D01*
X147178164Y-130085779D01*
X147147036Y-130047850D01*
X147119776Y-130007051D01*
X147096645Y-129963778D01*
X147077868Y-129918445D01*
X147063624Y-129871490D01*
X147054052Y-129823365D01*
X147049242Y-129774534D01*
X147049242Y-129750000D01*
X147048640Y-129750000D01*
X147048640Y-129250000D01*
X147049242Y-129250000D01*
X147049242Y-129225466D01*
X147054052Y-129176635D01*
X147063624Y-129128510D01*
X147077868Y-129081555D01*
X147096645Y-129036222D01*
X147119776Y-128992949D01*
X147147036Y-128952150D01*
X147178164Y-128914221D01*
X147212861Y-128879524D01*
X147250790Y-128848396D01*
X147291589Y-128821136D01*
X147334862Y-128798005D01*
X147380195Y-128779228D01*
X147427150Y-128764984D01*
X147475275Y-128755412D01*
X147524106Y-128750602D01*
X147548640Y-128750602D01*
X147548640Y-128750000D01*
X148048640Y-128750000D01*
X148048640Y-130250000D01*
X147548640Y-130250000D01*
X147548640Y-130249398D01*
G37*
%TD.AperFunction*%
%TA.AperFunction,SMDPad,CuDef*%
%TO.P,JP4,1*%
%TO.N,i2c-addr_2*%
G36*
X148348640Y-128750000D02*
G01*
X148848640Y-128750000D01*
X148848640Y-128750602D01*
X148873174Y-128750602D01*
X148922005Y-128755412D01*
X148970130Y-128764984D01*
X149017085Y-128779228D01*
X149062418Y-128798005D01*
X149105691Y-128821136D01*
X149146490Y-128848396D01*
X149184419Y-128879524D01*
X149219116Y-128914221D01*
X149250244Y-128952150D01*
X149277504Y-128992949D01*
X149300635Y-129036222D01*
X149319412Y-129081555D01*
X149333656Y-129128510D01*
X149343228Y-129176635D01*
X149348038Y-129225466D01*
X149348038Y-129250000D01*
X149348640Y-129250000D01*
X149348640Y-129750000D01*
X149348038Y-129750000D01*
X149348038Y-129774534D01*
X149343228Y-129823365D01*
X149333656Y-129871490D01*
X149319412Y-129918445D01*
X149300635Y-129963778D01*
X149277504Y-130007051D01*
X149250244Y-130047850D01*
X149219116Y-130085779D01*
X149184419Y-130120476D01*
X149146490Y-130151604D01*
X149105691Y-130178864D01*
X149062418Y-130201995D01*
X149017085Y-130220772D01*
X148970130Y-130235016D01*
X148922005Y-130244588D01*
X148873174Y-130249398D01*
X148848640Y-130249398D01*
X148848640Y-130250000D01*
X148348640Y-130250000D01*
X148348640Y-128750000D01*
G37*
%TD.AperFunction*%
%TD*%
%TA.AperFunction,SMDPad,CuDef*%
%TO.P,JP3,2*%
%TO.N,12V-*%
G36*
X147548640Y-127674398D02*
G01*
X147524106Y-127674398D01*
X147475275Y-127669588D01*
X147427150Y-127660016D01*
X147380195Y-127645772D01*
X147334862Y-127626995D01*
X147291589Y-127603864D01*
X147250790Y-127576604D01*
X147212861Y-127545476D01*
X147178164Y-127510779D01*
X147147036Y-127472850D01*
X147119776Y-127432051D01*
X147096645Y-127388778D01*
X147077868Y-127343445D01*
X147063624Y-127296490D01*
X147054052Y-127248365D01*
X147049242Y-127199534D01*
X147049242Y-127175000D01*
X147048640Y-127175000D01*
X147048640Y-126675000D01*
X147049242Y-126675000D01*
X147049242Y-126650466D01*
X147054052Y-126601635D01*
X147063624Y-126553510D01*
X147077868Y-126506555D01*
X147096645Y-126461222D01*
X147119776Y-126417949D01*
X147147036Y-126377150D01*
X147178164Y-126339221D01*
X147212861Y-126304524D01*
X147250790Y-126273396D01*
X147291589Y-126246136D01*
X147334862Y-126223005D01*
X147380195Y-126204228D01*
X147427150Y-126189984D01*
X147475275Y-126180412D01*
X147524106Y-126175602D01*
X147548640Y-126175602D01*
X147548640Y-126175000D01*
X148048640Y-126175000D01*
X148048640Y-127675000D01*
X147548640Y-127675000D01*
X147548640Y-127674398D01*
G37*
%TD.AperFunction*%
%TA.AperFunction,SMDPad,CuDef*%
%TO.P,JP3,1*%
%TO.N,i2c-addr_1*%
G36*
X148348640Y-126175000D02*
G01*
X148848640Y-126175000D01*
X148848640Y-126175602D01*
X148873174Y-126175602D01*
X148922005Y-126180412D01*
X148970130Y-126189984D01*
X149017085Y-126204228D01*
X149062418Y-126223005D01*
X149105691Y-126246136D01*
X149146490Y-126273396D01*
X149184419Y-126304524D01*
X149219116Y-126339221D01*
X149250244Y-126377150D01*
X149277504Y-126417949D01*
X149300635Y-126461222D01*
X149319412Y-126506555D01*
X149333656Y-126553510D01*
X149343228Y-126601635D01*
X149348038Y-126650466D01*
X149348038Y-126675000D01*
X149348640Y-126675000D01*
X149348640Y-127175000D01*
X149348038Y-127175000D01*
X149348038Y-127199534D01*
X149343228Y-127248365D01*
X149333656Y-127296490D01*
X149319412Y-127343445D01*
X149300635Y-127388778D01*
X149277504Y-127432051D01*
X149250244Y-127472850D01*
X149219116Y-127510779D01*
X149184419Y-127545476D01*
X149146490Y-127576604D01*
X149105691Y-127603864D01*
X149062418Y-127626995D01*
X149017085Y-127645772D01*
X148970130Y-127660016D01*
X148922005Y-127669588D01*
X148873174Y-127674398D01*
X148848640Y-127674398D01*
X148848640Y-127675000D01*
X148348640Y-127675000D01*
X148348640Y-126175000D01*
G37*
%TD.AperFunction*%
%TD*%
%TA.AperFunction,SMDPad,CuDef*%
%TO.P,JP2,2*%
%TO.N,12V-*%
G36*
X147535940Y-125099398D02*
G01*
X147511406Y-125099398D01*
X147462575Y-125094588D01*
X147414450Y-125085016D01*
X147367495Y-125070772D01*
X147322162Y-125051995D01*
X147278889Y-125028864D01*
X147238090Y-125001604D01*
X147200161Y-124970476D01*
X147165464Y-124935779D01*
X147134336Y-124897850D01*
X147107076Y-124857051D01*
X147083945Y-124813778D01*
X147065168Y-124768445D01*
X147050924Y-124721490D01*
X147041352Y-124673365D01*
X147036542Y-124624534D01*
X147036542Y-124600000D01*
X147035940Y-124600000D01*
X147035940Y-124100000D01*
X147036542Y-124100000D01*
X147036542Y-124075466D01*
X147041352Y-124026635D01*
X147050924Y-123978510D01*
X147065168Y-123931555D01*
X147083945Y-123886222D01*
X147107076Y-123842949D01*
X147134336Y-123802150D01*
X147165464Y-123764221D01*
X147200161Y-123729524D01*
X147238090Y-123698396D01*
X147278889Y-123671136D01*
X147322162Y-123648005D01*
X147367495Y-123629228D01*
X147414450Y-123614984D01*
X147462575Y-123605412D01*
X147511406Y-123600602D01*
X147535940Y-123600602D01*
X147535940Y-123600000D01*
X148035940Y-123600000D01*
X148035940Y-125100000D01*
X147535940Y-125100000D01*
X147535940Y-125099398D01*
G37*
%TD.AperFunction*%
%TA.AperFunction,SMDPad,CuDef*%
%TO.P,JP2,1*%
%TO.N,i2c-addr_0*%
G36*
X148335940Y-123600000D02*
G01*
X148835940Y-123600000D01*
X148835940Y-123600602D01*
X148860474Y-123600602D01*
X148909305Y-123605412D01*
X148957430Y-123614984D01*
X149004385Y-123629228D01*
X149049718Y-123648005D01*
X149092991Y-123671136D01*
X149133790Y-123698396D01*
X149171719Y-123729524D01*
X149206416Y-123764221D01*
X149237544Y-123802150D01*
X149264804Y-123842949D01*
X149287935Y-123886222D01*
X149306712Y-123931555D01*
X149320956Y-123978510D01*
X149330528Y-124026635D01*
X149335338Y-124075466D01*
X149335338Y-124100000D01*
X149335940Y-124100000D01*
X149335940Y-124600000D01*
X149335338Y-124600000D01*
X149335338Y-124624534D01*
X149330528Y-124673365D01*
X149320956Y-124721490D01*
X149306712Y-124768445D01*
X149287935Y-124813778D01*
X149264804Y-124857051D01*
X149237544Y-124897850D01*
X149206416Y-124935779D01*
X149171719Y-124970476D01*
X149133790Y-125001604D01*
X149092991Y-125028864D01*
X149049718Y-125051995D01*
X149004385Y-125070772D01*
X148957430Y-125085016D01*
X148909305Y-125094588D01*
X148860474Y-125099398D01*
X148835940Y-125099398D01*
X148835940Y-125100000D01*
X148335940Y-125100000D01*
X148335940Y-123600000D01*
G37*
%TD.AperFunction*%
%TD*%
%TA.AperFunction,SMDPad,CuDef*%
%TO.P,JP1,2*%
%TO.N,+3V3*%
G36*
X173770098Y-115325480D02*
G01*
X173770098Y-115350014D01*
X173765288Y-115398845D01*
X173755716Y-115446970D01*
X173741472Y-115493925D01*
X173722695Y-115539258D01*
X173699564Y-115582531D01*
X173672304Y-115623330D01*
X173641176Y-115661259D01*
X173606479Y-115695956D01*
X173568550Y-115727084D01*
X173527751Y-115754344D01*
X173484478Y-115777475D01*
X173439145Y-115796252D01*
X173392190Y-115810496D01*
X173344065Y-115820068D01*
X173295234Y-115824878D01*
X173270700Y-115824878D01*
X173270700Y-115825480D01*
X172770700Y-115825480D01*
X172770700Y-115824878D01*
X172746166Y-115824878D01*
X172697335Y-115820068D01*
X172649210Y-115810496D01*
X172602255Y-115796252D01*
X172556922Y-115777475D01*
X172513649Y-115754344D01*
X172472850Y-115727084D01*
X172434921Y-115695956D01*
X172400224Y-115661259D01*
X172369096Y-115623330D01*
X172341836Y-115582531D01*
X172318705Y-115539258D01*
X172299928Y-115493925D01*
X172285684Y-115446970D01*
X172276112Y-115398845D01*
X172271302Y-115350014D01*
X172271302Y-115325480D01*
X172270700Y-115325480D01*
X172270700Y-114825480D01*
X173770700Y-114825480D01*
X173770700Y-115325480D01*
X173770098Y-115325480D01*
G37*
%TD.AperFunction*%
%TA.AperFunction,SMDPad,CuDef*%
%TO.P,JP1,1*%
%TO.N,VCC*%
G36*
X172270700Y-114525480D02*
G01*
X172270700Y-114025480D01*
X172271302Y-114025480D01*
X172271302Y-114000946D01*
X172276112Y-113952115D01*
X172285684Y-113903990D01*
X172299928Y-113857035D01*
X172318705Y-113811702D01*
X172341836Y-113768429D01*
X172369096Y-113727630D01*
X172400224Y-113689701D01*
X172434921Y-113655004D01*
X172472850Y-113623876D01*
X172513649Y-113596616D01*
X172556922Y-113573485D01*
X172602255Y-113554708D01*
X172649210Y-113540464D01*
X172697335Y-113530892D01*
X172746166Y-113526082D01*
X172770700Y-113526082D01*
X172770700Y-113525480D01*
X173270700Y-113525480D01*
X173270700Y-113526082D01*
X173295234Y-113526082D01*
X173344065Y-113530892D01*
X173392190Y-113540464D01*
X173439145Y-113554708D01*
X173484478Y-113573485D01*
X173527751Y-113596616D01*
X173568550Y-113623876D01*
X173606479Y-113655004D01*
X173641176Y-113689701D01*
X173672304Y-113727630D01*
X173699564Y-113768429D01*
X173722695Y-113811702D01*
X173741472Y-113857035D01*
X173755716Y-113903990D01*
X173765288Y-113952115D01*
X173770098Y-114000946D01*
X173770098Y-114025480D01*
X173770700Y-114025480D01*
X173770700Y-114525480D01*
X172270700Y-114525480D01*
G37*
%TD.AperFunction*%
%TD*%
D20*
%TO.P,J7,2*%
%TO.N,control_1*%
X187335180Y-141762760D03*
%TA.AperFunction,ComponentPad*%
D11*
%TO.P,J7,1*%
%TO.N,12V+*%
G36*
X185459684Y-140763964D02*
G01*
X185483953Y-140767564D01*
X185507751Y-140773525D01*
X185530851Y-140781790D01*
X185553029Y-140792280D01*
X185574073Y-140804893D01*
X185593778Y-140819507D01*
X185611957Y-140835983D01*
X185628433Y-140854162D01*
X185643047Y-140873867D01*
X185655660Y-140894911D01*
X185666150Y-140917089D01*
X185674415Y-140940189D01*
X185680376Y-140963987D01*
X185683976Y-140988256D01*
X185685180Y-141012760D01*
X185685180Y-142512760D01*
X185683976Y-142537264D01*
X185680376Y-142561533D01*
X185674415Y-142585331D01*
X185666150Y-142608431D01*
X185655660Y-142630609D01*
X185643047Y-142651653D01*
X185628433Y-142671358D01*
X185611957Y-142689537D01*
X185593778Y-142706013D01*
X185574073Y-142720627D01*
X185553029Y-142733240D01*
X185530851Y-142743730D01*
X185507751Y-142751995D01*
X185483953Y-142757956D01*
X185459684Y-142761556D01*
X185435180Y-142762760D01*
X184235180Y-142762760D01*
X184210676Y-142761556D01*
X184186407Y-142757956D01*
X184162609Y-142751995D01*
X184139509Y-142743730D01*
X184117331Y-142733240D01*
X184096287Y-142720627D01*
X184076582Y-142706013D01*
X184058403Y-142689537D01*
X184041927Y-142671358D01*
X184027313Y-142651653D01*
X184014700Y-142630609D01*
X184004210Y-142608431D01*
X183995945Y-142585331D01*
X183989984Y-142561533D01*
X183986384Y-142537264D01*
X183985180Y-142512760D01*
X183985180Y-141012760D01*
X183986384Y-140988256D01*
X183989984Y-140963987D01*
X183995945Y-140940189D01*
X184004210Y-140917089D01*
X184014700Y-140894911D01*
X184027313Y-140873867D01*
X184041927Y-140854162D01*
X184058403Y-140835983D01*
X184076582Y-140819507D01*
X184096287Y-140804893D01*
X184117331Y-140792280D01*
X184139509Y-140781790D01*
X184162609Y-140773525D01*
X184186407Y-140767564D01*
X184210676Y-140763964D01*
X184235180Y-140762760D01*
X185435180Y-140762760D01*
X185459684Y-140763964D01*
G37*
%TD.AperFunction*%
%TD*%
D20*
%TO.P,J6,2*%
%TO.N,control_0*%
X184949920Y-114972120D03*
%TA.AperFunction,ComponentPad*%
D11*
%TO.P,J6,1*%
%TO.N,12V+*%
G36*
X188074424Y-113973324D02*
G01*
X188098693Y-113976924D01*
X188122491Y-113982885D01*
X188145591Y-113991150D01*
X188167769Y-114001640D01*
X188188813Y-114014253D01*
X188208518Y-114028867D01*
X188226697Y-114045343D01*
X188243173Y-114063522D01*
X188257787Y-114083227D01*
X188270400Y-114104271D01*
X188280890Y-114126449D01*
X188289155Y-114149549D01*
X188295116Y-114173347D01*
X188298716Y-114197616D01*
X188299920Y-114222120D01*
X188299920Y-115722120D01*
X188298716Y-115746624D01*
X188295116Y-115770893D01*
X188289155Y-115794691D01*
X188280890Y-115817791D01*
X188270400Y-115839969D01*
X188257787Y-115861013D01*
X188243173Y-115880718D01*
X188226697Y-115898897D01*
X188208518Y-115915373D01*
X188188813Y-115929987D01*
X188167769Y-115942600D01*
X188145591Y-115953090D01*
X188122491Y-115961355D01*
X188098693Y-115967316D01*
X188074424Y-115970916D01*
X188049920Y-115972120D01*
X186849920Y-115972120D01*
X186825416Y-115970916D01*
X186801147Y-115967316D01*
X186777349Y-115961355D01*
X186754249Y-115953090D01*
X186732071Y-115942600D01*
X186711027Y-115929987D01*
X186691322Y-115915373D01*
X186673143Y-115898897D01*
X186656667Y-115880718D01*
X186642053Y-115861013D01*
X186629440Y-115839969D01*
X186618950Y-115817791D01*
X186610685Y-115794691D01*
X186604724Y-115770893D01*
X186601124Y-115746624D01*
X186599920Y-115722120D01*
X186599920Y-114222120D01*
X186601124Y-114197616D01*
X186604724Y-114173347D01*
X186610685Y-114149549D01*
X186618950Y-114126449D01*
X186629440Y-114104271D01*
X186642053Y-114083227D01*
X186656667Y-114063522D01*
X186673143Y-114045343D01*
X186691322Y-114028867D01*
X186711027Y-114014253D01*
X186732071Y-114001640D01*
X186754249Y-113991150D01*
X186777349Y-113982885D01*
X186801147Y-113976924D01*
X186825416Y-113973324D01*
X186849920Y-113972120D01*
X188049920Y-113972120D01*
X188074424Y-113973324D01*
G37*
%TD.AperFunction*%
%TD*%
D21*
%TO.P,J2,10*%
%TO.N,nRESET*%
X168425000Y-119010000D03*
%TO.P,J2,9*%
%TO.N,Net-(J2-Pad9)*%
X172325000Y-119010000D03*
%TO.P,J2,8*%
%TO.N,Net-(J2-Pad8)*%
X168425000Y-120280000D03*
%TO.P,J2,7*%
%TO.N,Net-(J2-Pad7)*%
X172325000Y-120280000D03*
%TO.P,J2,6*%
%TO.N,Net-(J2-Pad6)*%
X168425000Y-121550000D03*
%TO.P,J2,5*%
%TO.N,12V-*%
X172325000Y-121550000D03*
%TO.P,J2,4*%
%TO.N,SWD-SWCLK*%
X168425000Y-122820000D03*
%TO.P,J2,3*%
%TO.N,12V-*%
X172325000Y-122820000D03*
%TO.P,J2,2*%
%TO.N,SWD-SWIO*%
X168425000Y-124090000D03*
%TO.P,J2,1*%
%TO.N,+3V3*%
X172325000Y-124090000D03*
%TD*%
%TA.AperFunction,SMDPad,CuDef*%
D19*
%TO.P,C2,2*%
%TO.N,12V-*%
G36*
X178861342Y-119399554D02*
G01*
X178885003Y-119403064D01*
X178908207Y-119408876D01*
X178930729Y-119416934D01*
X178952353Y-119427162D01*
X178972870Y-119439459D01*
X178992083Y-119453709D01*
X179009807Y-119469773D01*
X179025871Y-119487497D01*
X179040121Y-119506710D01*
X179052418Y-119527227D01*
X179062646Y-119548851D01*
X179070704Y-119571373D01*
X179076516Y-119594577D01*
X179080026Y-119618238D01*
X179081200Y-119642130D01*
X179081200Y-120554630D01*
X179080026Y-120578522D01*
X179076516Y-120602183D01*
X179070704Y-120625387D01*
X179062646Y-120647909D01*
X179052418Y-120669533D01*
X179040121Y-120690050D01*
X179025871Y-120709263D01*
X179009807Y-120726987D01*
X178992083Y-120743051D01*
X178972870Y-120757301D01*
X178952353Y-120769598D01*
X178930729Y-120779826D01*
X178908207Y-120787884D01*
X178885003Y-120793696D01*
X178861342Y-120797206D01*
X178837450Y-120798380D01*
X178349950Y-120798380D01*
X178326058Y-120797206D01*
X178302397Y-120793696D01*
X178279193Y-120787884D01*
X178256671Y-120779826D01*
X178235047Y-120769598D01*
X178214530Y-120757301D01*
X178195317Y-120743051D01*
X178177593Y-120726987D01*
X178161529Y-120709263D01*
X178147279Y-120690050D01*
X178134982Y-120669533D01*
X178124754Y-120647909D01*
X178116696Y-120625387D01*
X178110884Y-120602183D01*
X178107374Y-120578522D01*
X178106200Y-120554630D01*
X178106200Y-119642130D01*
X178107374Y-119618238D01*
X178110884Y-119594577D01*
X178116696Y-119571373D01*
X178124754Y-119548851D01*
X178134982Y-119527227D01*
X178147279Y-119506710D01*
X178161529Y-119487497D01*
X178177593Y-119469773D01*
X178195317Y-119453709D01*
X178214530Y-119439459D01*
X178235047Y-119427162D01*
X178256671Y-119416934D01*
X178279193Y-119408876D01*
X178302397Y-119403064D01*
X178326058Y-119399554D01*
X178349950Y-119398380D01*
X178837450Y-119398380D01*
X178861342Y-119399554D01*
G37*
%TD.AperFunction*%
%TA.AperFunction,SMDPad,CuDef*%
%TO.P,C2,1*%
%TO.N,+3V3*%
G36*
X176986342Y-119399554D02*
G01*
X177010003Y-119403064D01*
X177033207Y-119408876D01*
X177055729Y-119416934D01*
X177077353Y-119427162D01*
X177097870Y-119439459D01*
X177117083Y-119453709D01*
X177134807Y-119469773D01*
X177150871Y-119487497D01*
X177165121Y-119506710D01*
X177177418Y-119527227D01*
X177187646Y-119548851D01*
X177195704Y-119571373D01*
X177201516Y-119594577D01*
X177205026Y-119618238D01*
X177206200Y-119642130D01*
X177206200Y-120554630D01*
X177205026Y-120578522D01*
X177201516Y-120602183D01*
X177195704Y-120625387D01*
X177187646Y-120647909D01*
X177177418Y-120669533D01*
X177165121Y-120690050D01*
X177150871Y-120709263D01*
X177134807Y-120726987D01*
X177117083Y-120743051D01*
X177097870Y-120757301D01*
X177077353Y-120769598D01*
X177055729Y-120779826D01*
X177033207Y-120787884D01*
X177010003Y-120793696D01*
X176986342Y-120797206D01*
X176962450Y-120798380D01*
X176474950Y-120798380D01*
X176451058Y-120797206D01*
X176427397Y-120793696D01*
X176404193Y-120787884D01*
X176381671Y-120779826D01*
X176360047Y-120769598D01*
X176339530Y-120757301D01*
X176320317Y-120743051D01*
X176302593Y-120726987D01*
X176286529Y-120709263D01*
X176272279Y-120690050D01*
X176259982Y-120669533D01*
X176249754Y-120647909D01*
X176241696Y-120625387D01*
X176235884Y-120602183D01*
X176232374Y-120578522D01*
X176231200Y-120554630D01*
X176231200Y-119642130D01*
X176232374Y-119618238D01*
X176235884Y-119594577D01*
X176241696Y-119571373D01*
X176249754Y-119548851D01*
X176259982Y-119527227D01*
X176272279Y-119506710D01*
X176286529Y-119487497D01*
X176302593Y-119469773D01*
X176320317Y-119453709D01*
X176339530Y-119439459D01*
X176360047Y-119427162D01*
X176381671Y-119416934D01*
X176404193Y-119408876D01*
X176427397Y-119403064D01*
X176451058Y-119399554D01*
X176474950Y-119398380D01*
X176962450Y-119398380D01*
X176986342Y-119399554D01*
G37*
%TD.AperFunction*%
%TD*%
%TA.AperFunction,SMDPad,CuDef*%
%TO.P,C1,2*%
%TO.N,12V-*%
G36*
X181049722Y-117702214D02*
G01*
X181073383Y-117705724D01*
X181096587Y-117711536D01*
X181119109Y-117719594D01*
X181140733Y-117729822D01*
X181161250Y-117742119D01*
X181180463Y-117756369D01*
X181198187Y-117772433D01*
X181214251Y-117790157D01*
X181228501Y-117809370D01*
X181240798Y-117829887D01*
X181251026Y-117851511D01*
X181259084Y-117874033D01*
X181264896Y-117897237D01*
X181268406Y-117920898D01*
X181269580Y-117944790D01*
X181269580Y-118432290D01*
X181268406Y-118456182D01*
X181264896Y-118479843D01*
X181259084Y-118503047D01*
X181251026Y-118525569D01*
X181240798Y-118547193D01*
X181228501Y-118567710D01*
X181214251Y-118586923D01*
X181198187Y-118604647D01*
X181180463Y-118620711D01*
X181161250Y-118634961D01*
X181140733Y-118647258D01*
X181119109Y-118657486D01*
X181096587Y-118665544D01*
X181073383Y-118671356D01*
X181049722Y-118674866D01*
X181025830Y-118676040D01*
X180113330Y-118676040D01*
X180089438Y-118674866D01*
X180065777Y-118671356D01*
X180042573Y-118665544D01*
X180020051Y-118657486D01*
X179998427Y-118647258D01*
X179977910Y-118634961D01*
X179958697Y-118620711D01*
X179940973Y-118604647D01*
X179924909Y-118586923D01*
X179910659Y-118567710D01*
X179898362Y-118547193D01*
X179888134Y-118525569D01*
X179880076Y-118503047D01*
X179874264Y-118479843D01*
X179870754Y-118456182D01*
X179869580Y-118432290D01*
X179869580Y-117944790D01*
X179870754Y-117920898D01*
X179874264Y-117897237D01*
X179880076Y-117874033D01*
X179888134Y-117851511D01*
X179898362Y-117829887D01*
X179910659Y-117809370D01*
X179924909Y-117790157D01*
X179940973Y-117772433D01*
X179958697Y-117756369D01*
X179977910Y-117742119D01*
X179998427Y-117729822D01*
X180020051Y-117719594D01*
X180042573Y-117711536D01*
X180065777Y-117705724D01*
X180089438Y-117702214D01*
X180113330Y-117701040D01*
X181025830Y-117701040D01*
X181049722Y-117702214D01*
G37*
%TD.AperFunction*%
%TA.AperFunction,SMDPad,CuDef*%
%TO.P,C1,1*%
%TO.N,VCC*%
G36*
X181049722Y-115827214D02*
G01*
X181073383Y-115830724D01*
X181096587Y-115836536D01*
X181119109Y-115844594D01*
X181140733Y-115854822D01*
X181161250Y-115867119D01*
X181180463Y-115881369D01*
X181198187Y-115897433D01*
X181214251Y-115915157D01*
X181228501Y-115934370D01*
X181240798Y-115954887D01*
X181251026Y-115976511D01*
X181259084Y-115999033D01*
X181264896Y-116022237D01*
X181268406Y-116045898D01*
X181269580Y-116069790D01*
X181269580Y-116557290D01*
X181268406Y-116581182D01*
X181264896Y-116604843D01*
X181259084Y-116628047D01*
X181251026Y-116650569D01*
X181240798Y-116672193D01*
X181228501Y-116692710D01*
X181214251Y-116711923D01*
X181198187Y-116729647D01*
X181180463Y-116745711D01*
X181161250Y-116759961D01*
X181140733Y-116772258D01*
X181119109Y-116782486D01*
X181096587Y-116790544D01*
X181073383Y-116796356D01*
X181049722Y-116799866D01*
X181025830Y-116801040D01*
X180113330Y-116801040D01*
X180089438Y-116799866D01*
X180065777Y-116796356D01*
X180042573Y-116790544D01*
X180020051Y-116782486D01*
X179998427Y-116772258D01*
X179977910Y-116759961D01*
X179958697Y-116745711D01*
X179940973Y-116729647D01*
X179924909Y-116711923D01*
X179910659Y-116692710D01*
X179898362Y-116672193D01*
X179888134Y-116650569D01*
X179880076Y-116628047D01*
X179874264Y-116604843D01*
X179870754Y-116581182D01*
X179869580Y-116557290D01*
X179869580Y-116069790D01*
X179870754Y-116045898D01*
X179874264Y-116022237D01*
X179880076Y-115999033D01*
X179888134Y-115976511D01*
X179898362Y-115954887D01*
X179910659Y-115934370D01*
X179924909Y-115915157D01*
X179940973Y-115897433D01*
X179958697Y-115881369D01*
X179977910Y-115867119D01*
X179998427Y-115854822D01*
X180020051Y-115844594D01*
X180042573Y-115836536D01*
X180065777Y-115830724D01*
X180089438Y-115827214D01*
X180113330Y-115826040D01*
X181025830Y-115826040D01*
X181049722Y-115827214D01*
G37*
%TD.AperFunction*%
%TD*%
D22*
%TO.N,I2c-SDA*%
X166475000Y-142975000D03*
%TO.N,+3V3*%
X156200000Y-129075000D03*
X175575000Y-120100000D03*
%TO.N,AnalogSignal0*%
X175800000Y-131300000D03*
X163250000Y-128900000D03*
%TO.N,AnalogSignal1*%
X175075000Y-125350000D03*
X161375000Y-127900000D03*
%TO.N,mosfet0*%
X175275000Y-123750000D03*
X163225000Y-126475000D03*
%TO.N,mosfet1*%
X162350000Y-127200000D03*
X187025000Y-130500000D03*
%TO.N,12V-*%
X174550000Y-121550000D03*
X178550000Y-121550000D03*
X175275000Y-115375000D03*
X178668900Y-118213740D03*
%TD*%
D23*
%TO.N,SWD-SWCLK*%
X153525000Y-132150000D02*
X153525000Y-131675000D01*
X153600001Y-132225001D02*
X153525000Y-132150000D01*
X162436409Y-132225001D02*
X153600001Y-132225001D01*
X164725009Y-129936401D02*
X162436409Y-132225001D01*
X164725009Y-125069991D02*
X164725009Y-129936401D01*
X166975000Y-122820000D02*
X164725009Y-125069991D01*
X168425000Y-122820000D02*
X166975000Y-122820000D01*
%TO.N,SWD-SWIO*%
X152474999Y-132160001D02*
X152474999Y-131100001D01*
X152990009Y-132675011D02*
X152474999Y-132160001D01*
X165175019Y-130122801D02*
X162622809Y-132675011D01*
X152474999Y-131100001D02*
X152550000Y-131025000D01*
X165175019Y-125889981D02*
X165175019Y-130122801D01*
X152550000Y-131025000D02*
X153525000Y-131025000D01*
X166975000Y-124090000D02*
X165175019Y-125889981D01*
X162622809Y-132675011D02*
X152990009Y-132675011D01*
X168425000Y-124090000D02*
X166975000Y-124090000D01*
%TO.N,nRESET*%
X167539998Y-119010000D02*
X168425000Y-119010000D01*
X164275000Y-129750000D02*
X164250000Y-122299998D01*
X164250000Y-122299998D02*
X167539998Y-119010000D01*
X164250000Y-129725000D02*
X164275000Y-129750000D01*
X159425000Y-129725000D02*
X164250000Y-129725000D01*
%TO.N,I2c-SDA*%
X152550000Y-130375000D02*
X151625010Y-131299990D01*
X153525000Y-130375000D02*
X152550000Y-130375000D01*
X151625010Y-131299990D02*
X151625010Y-137450000D01*
X151650010Y-137475000D02*
X155400000Y-137475000D01*
X151625010Y-137450000D02*
X151650010Y-137475000D01*
X166475000Y-142975000D02*
X167875000Y-142975000D01*
%TO.N,I2c-SCL*%
X157900000Y-141100000D02*
X157900000Y-137475000D01*
X152550000Y-129725000D02*
X151175000Y-131100000D01*
X151175000Y-138475000D02*
X153800000Y-141100000D01*
X153800000Y-141100000D02*
X157900000Y-141100000D01*
X153525000Y-129725000D02*
X152550000Y-129725000D01*
X151175000Y-131100000D02*
X151175000Y-138475000D01*
X167425000Y-141075000D02*
X167875000Y-141075000D01*
X157900000Y-137600000D02*
X161375000Y-141075000D01*
X161375000Y-141075000D02*
X167425000Y-141075000D01*
X157900000Y-137475000D02*
X157900000Y-137600000D01*
%TO.N,VCC*%
X180569380Y-116313740D02*
X180569580Y-116313540D01*
X178668900Y-116313740D02*
X180569380Y-116313740D01*
X178697280Y-116285360D02*
X178668900Y-116313740D01*
X178697280Y-113829360D02*
X178697280Y-116285360D01*
X173216820Y-113829360D02*
X173020700Y-114025480D01*
X178697280Y-113829360D02*
X173216820Y-113829360D01*
D24*
X157400000Y-119325000D02*
X157400000Y-116600000D01*
X159974520Y-114025480D02*
X173020700Y-114025480D01*
X157400000Y-116600000D02*
X159974520Y-114025480D01*
D23*
%TO.N,+3V3*%
X176718700Y-117313540D02*
X176668900Y-117263740D01*
X176718700Y-120098380D02*
X176718700Y-117313540D01*
X174958960Y-117263740D02*
X173020700Y-115325480D01*
X176668900Y-117263740D02*
X174958960Y-117263740D01*
X153525000Y-129075000D02*
X156200000Y-129075000D01*
X173300000Y-129075000D02*
X173300000Y-136200000D01*
X173300000Y-137050000D02*
X173300000Y-136200000D01*
X169275000Y-141075000D02*
X173300000Y-137050000D01*
X168825000Y-141075000D02*
X169275000Y-141075000D01*
X173300000Y-125685000D02*
X173300000Y-129075000D01*
X172325000Y-124090000D02*
X172325000Y-124710000D01*
X172325000Y-124710000D02*
X173300000Y-125685000D01*
X156200000Y-129075000D02*
X159425000Y-129075000D01*
X176717080Y-120100000D02*
X176718700Y-120098380D01*
X175575000Y-120100000D02*
X176717080Y-120100000D01*
X175575000Y-120665685D02*
X175575000Y-120100000D01*
X175575000Y-122290000D02*
X175575000Y-120665685D01*
X173775000Y-124090000D02*
X175575000Y-122290000D01*
X172325000Y-124090000D02*
X173775000Y-124090000D01*
%TO.N,AnalogSignal0*%
X175800000Y-136200000D02*
X175800000Y-131300000D01*
X160875000Y-128900000D02*
X160400000Y-128425000D01*
X160400000Y-128425000D02*
X159425000Y-128425000D01*
X163250000Y-128900000D02*
X160875000Y-128900000D01*
%TO.N,AnalogSignal1*%
X175800000Y-129075000D02*
X175800000Y-126075000D01*
X175800000Y-126075000D02*
X175075000Y-125350000D01*
X161250000Y-127775000D02*
X159425000Y-127775000D01*
X161375000Y-127900000D02*
X161250000Y-127775000D01*
%TO.N,control_0*%
X184949920Y-118993860D02*
X184950560Y-118994500D01*
X184949920Y-114972120D02*
X184949920Y-118993860D01*
%TO.N,control_1*%
X187958740Y-141786320D02*
X188010180Y-141837760D01*
X187283740Y-137833380D02*
X187283740Y-141711320D01*
%TO.N,i2c-addr_0*%
X148835940Y-124407460D02*
X156489200Y-124407460D01*
X157973640Y-125891900D02*
X159199300Y-125891900D01*
X156489200Y-124407460D02*
X157973640Y-125891900D01*
%TO.N,i2c-addr_1*%
X153474300Y-125891900D02*
X151219044Y-125891900D01*
X150160944Y-126950000D02*
X148848640Y-126950000D01*
X151219044Y-125891900D02*
X150160944Y-126950000D01*
%TO.N,i2c-addr_2*%
X151748480Y-126541900D02*
X148848640Y-129441740D01*
X153474300Y-126541900D02*
X151748480Y-126541900D01*
%TO.N,i2c-addr_3*%
X153474300Y-127191900D02*
X151901360Y-127191900D01*
X151901360Y-127191900D02*
X150108720Y-128984540D01*
X150108720Y-130724200D02*
X148848640Y-131984280D01*
X150108720Y-128984540D02*
X150108720Y-130724200D01*
%TO.N,Net-(Q1-Pad1)*%
X181707000Y-121044500D02*
X181700000Y-121037500D01*
X184000560Y-121044500D02*
X181707000Y-121044500D01*
%TO.N,Net-(Q2-Pad1)*%
X188233740Y-135083380D02*
X188233740Y-135783380D01*
X188233740Y-134296240D02*
X188233740Y-135083380D01*
X187800000Y-133862500D02*
X188233740Y-134296240D01*
X187100000Y-133862500D02*
X187800000Y-133862500D01*
%TO.N,mosfet0*%
X181700000Y-122912500D02*
X180862500Y-123750000D01*
X180862500Y-123750000D02*
X175275000Y-123750000D01*
X163225000Y-126475000D02*
X159425000Y-126475000D01*
%TO.N,mosfet1*%
X159425000Y-127125000D02*
X162275000Y-127125000D01*
X162275000Y-127125000D02*
X162350000Y-127200000D01*
X187025000Y-131912500D02*
X187100000Y-131987500D01*
X187025000Y-130500000D02*
X187025000Y-131912500D01*
%TO.N,12V-*%
X147535940Y-126937300D02*
X147548640Y-126950000D01*
X180544380Y-118213740D02*
X180569580Y-118188540D01*
X178668900Y-118213740D02*
X180544380Y-118213740D01*
X178668900Y-120023180D02*
X178593700Y-120098380D01*
X178668900Y-118213740D02*
X178668900Y-120023180D01*
D25*
X186625000Y-125275000D02*
X185100000Y-126800000D01*
X187625000Y-125275000D02*
X186625000Y-125275000D01*
X185100000Y-135199640D02*
X185683740Y-135783380D01*
X185683740Y-135783380D02*
X186333740Y-135783380D01*
X185100000Y-126800000D02*
X185100000Y-135199640D01*
X187625000Y-122118940D02*
X186550560Y-121044500D01*
X186550560Y-121044500D02*
X185900560Y-121044500D01*
X187625000Y-125275000D02*
X187625000Y-122118940D01*
D23*
X178300000Y-129075000D02*
X178300000Y-136200000D01*
X168825000Y-142500000D02*
X168350000Y-142025000D01*
X168825000Y-142975000D02*
X168825000Y-142500000D01*
X178300000Y-137425000D02*
X178300000Y-136200000D01*
X173700000Y-142025000D02*
X178300000Y-137425000D01*
X168350000Y-142025000D02*
X173700000Y-142025000D01*
X172325000Y-121550000D02*
X172325000Y-122820000D01*
X172325000Y-121550000D02*
X174550000Y-121550000D01*
X178550000Y-120142080D02*
X178593700Y-120098380D01*
X178550000Y-121550000D02*
X178550000Y-120142080D01*
X176675000Y-115375000D02*
X175275000Y-115375000D01*
X148100000Y-134375000D02*
X147548640Y-133823640D01*
X149750000Y-134375000D02*
X148100000Y-134375000D01*
X150675000Y-133450000D02*
X149750000Y-134375000D01*
X147548640Y-133823640D02*
X147548640Y-132075000D01*
X150685300Y-131651678D02*
X150675000Y-131661978D01*
X151706260Y-128491900D02*
X150685300Y-129512860D01*
X153474300Y-128491900D02*
X151706260Y-128491900D01*
X150685300Y-129512860D02*
X150685300Y-131651678D01*
X150675000Y-131661978D02*
X150675000Y-133450000D01*
X147548640Y-131327408D02*
X147548640Y-129500000D01*
X147548640Y-132075000D02*
X147548640Y-131327408D01*
X147548640Y-129500000D02*
X147548640Y-126925000D01*
X147548640Y-124362700D02*
X147535940Y-124350000D01*
X147548640Y-126925000D02*
X147548640Y-124362700D01*
D24*
%TO.N,12V+*%
X188299920Y-114972120D02*
X189749990Y-116422190D01*
X187449920Y-114972120D02*
X188299920Y-114972120D01*
X189625000Y-127775000D02*
X187625000Y-127775000D01*
X189749990Y-127650010D02*
X189625000Y-127775000D01*
X189749990Y-116422190D02*
X189749990Y-127650010D01*
X189749990Y-127650010D02*
X189749990Y-144374990D01*
X184835180Y-142762760D02*
X184835180Y-141762760D01*
X186447410Y-144374990D02*
X184835180Y-142762760D01*
X189749990Y-144374990D02*
X186447410Y-144374990D01*
%TD*%
D26*
%TO.N,12V-*%
G36*
X188689684Y-111784580D02*
G01*
X188464928Y-111877677D01*
X188262653Y-112012833D01*
X188090633Y-112184853D01*
X187955477Y-112387128D01*
X187862380Y-112611884D01*
X187814920Y-112850483D01*
X187814920Y-113093757D01*
X187862380Y-113332356D01*
X187863081Y-113334048D01*
X186849920Y-113334048D01*
X186676666Y-113351112D01*
X186510070Y-113401648D01*
X186356534Y-113483715D01*
X186221958Y-113594158D01*
X186111515Y-113728734D01*
X186057143Y-113830457D01*
X186005054Y-113766986D01*
X185778934Y-113581414D01*
X185520954Y-113443521D01*
X185241031Y-113358607D01*
X184949920Y-113329935D01*
X184658810Y-113358607D01*
X184378887Y-113443521D01*
X184120907Y-113581414D01*
X183894786Y-113766986D01*
X183709214Y-113993106D01*
X183571321Y-114251086D01*
X183486407Y-114531009D01*
X183464920Y-114749170D01*
X183464920Y-115195069D01*
X183486407Y-115413230D01*
X183571321Y-115693153D01*
X183709214Y-115951133D01*
X183894786Y-116177254D01*
X184120906Y-116362826D01*
X184189920Y-116399715D01*
X184189921Y-118069006D01*
X184099375Y-118143315D01*
X184020023Y-118240006D01*
X183961058Y-118350320D01*
X183924748Y-118470018D01*
X183912488Y-118594500D01*
X183912488Y-119494500D01*
X183924748Y-119618982D01*
X183961058Y-119738680D01*
X184020023Y-119848994D01*
X184099375Y-119945685D01*
X184112465Y-119956428D01*
X183600560Y-119956428D01*
X183476078Y-119968688D01*
X183356380Y-120004998D01*
X183246066Y-120063963D01*
X183149375Y-120143315D01*
X183070023Y-120240006D01*
X183046240Y-120284500D01*
X182873589Y-120284500D01*
X182779792Y-120170208D01*
X182646164Y-120060542D01*
X182493709Y-119979053D01*
X182328285Y-119928872D01*
X182156250Y-119911928D01*
X181243750Y-119911928D01*
X181071715Y-119928872D01*
X180906291Y-119979053D01*
X180753836Y-120060542D01*
X180620208Y-120170208D01*
X180510542Y-120303836D01*
X180429053Y-120456291D01*
X180378872Y-120621715D01*
X180361928Y-120793750D01*
X180361928Y-121281250D01*
X180378872Y-121453285D01*
X180429053Y-121618709D01*
X180510542Y-121771164D01*
X180620208Y-121904792D01*
X180705756Y-121975000D01*
X180620208Y-122045208D01*
X180510542Y-122178836D01*
X180429053Y-122331291D01*
X180378872Y-122496715D01*
X180361928Y-122668750D01*
X180361928Y-122990000D01*
X175978711Y-122990000D01*
X175964257Y-122975546D01*
X176086009Y-122853794D01*
X176115001Y-122830001D01*
X176138795Y-122801008D01*
X176138799Y-122801004D01*
X176209973Y-122714277D01*
X176209974Y-122714276D01*
X176280546Y-122582247D01*
X176324003Y-122438986D01*
X176335000Y-122327333D01*
X176335000Y-122327324D01*
X176338676Y-122290001D01*
X176335000Y-122252678D01*
X176335000Y-121422668D01*
X176474950Y-121436452D01*
X176962450Y-121436452D01*
X177134485Y-121419508D01*
X177299909Y-121369327D01*
X177452364Y-121287838D01*
X177585992Y-121178172D01*
X177591208Y-121171816D01*
X177655015Y-121249565D01*
X177751706Y-121328917D01*
X177862020Y-121387882D01*
X177981718Y-121424192D01*
X178106200Y-121436452D01*
X178307950Y-121433380D01*
X178466700Y-121274630D01*
X178466700Y-120225380D01*
X178720700Y-120225380D01*
X178720700Y-121274630D01*
X178879450Y-121433380D01*
X179081200Y-121436452D01*
X179205682Y-121424192D01*
X179325380Y-121387882D01*
X179435694Y-121328917D01*
X179532385Y-121249565D01*
X179611737Y-121152874D01*
X179670702Y-121042560D01*
X179707012Y-120922862D01*
X179719272Y-120798380D01*
X179716200Y-120384130D01*
X179557450Y-120225380D01*
X178720700Y-120225380D01*
X178466700Y-120225380D01*
X178446700Y-120225380D01*
X178446700Y-119971380D01*
X178466700Y-119971380D01*
X178466700Y-118922130D01*
X178720700Y-118922130D01*
X178720700Y-119971380D01*
X179557450Y-119971380D01*
X179716200Y-119812630D01*
X179719272Y-119398380D01*
X179708677Y-119290804D01*
X179745098Y-119301852D01*
X179869580Y-119314112D01*
X180283830Y-119311040D01*
X180442580Y-119152290D01*
X180442580Y-118315540D01*
X180696580Y-118315540D01*
X180696580Y-119152290D01*
X180855330Y-119311040D01*
X181269580Y-119314112D01*
X181394062Y-119301852D01*
X181513760Y-119265542D01*
X181624074Y-119206577D01*
X181720765Y-119127225D01*
X181800117Y-119030534D01*
X181859082Y-118920220D01*
X181895392Y-118800522D01*
X181907652Y-118676040D01*
X181904580Y-118474290D01*
X181745830Y-118315540D01*
X180696580Y-118315540D01*
X180442580Y-118315540D01*
X179393330Y-118315540D01*
X179234580Y-118474290D01*
X179231508Y-118676040D01*
X179242103Y-118783616D01*
X179205682Y-118772568D01*
X179081200Y-118760308D01*
X178879450Y-118763380D01*
X178720700Y-118922130D01*
X178466700Y-118922130D01*
X178307950Y-118763380D01*
X178106200Y-118760308D01*
X177981718Y-118772568D01*
X177862020Y-118808878D01*
X177751706Y-118867843D01*
X177655015Y-118947195D01*
X177591208Y-119024944D01*
X177585992Y-119018588D01*
X177478700Y-118930535D01*
X177478700Y-118205961D01*
X177479494Y-118205537D01*
X177576185Y-118126185D01*
X177655537Y-118029494D01*
X177714502Y-117919180D01*
X177750812Y-117799482D01*
X177763072Y-117675000D01*
X177763072Y-117163095D01*
X177773815Y-117176185D01*
X177870506Y-117255537D01*
X177980820Y-117314502D01*
X178100518Y-117350812D01*
X178225000Y-117363072D01*
X179125000Y-117363072D01*
X179249482Y-117350812D01*
X179364068Y-117316053D01*
X179339043Y-117346546D01*
X179280078Y-117456860D01*
X179243768Y-117576558D01*
X179231508Y-117701040D01*
X179234580Y-117902790D01*
X179393330Y-118061540D01*
X180442580Y-118061540D01*
X180442580Y-118041540D01*
X180696580Y-118041540D01*
X180696580Y-118061540D01*
X181745830Y-118061540D01*
X181904580Y-117902790D01*
X181907652Y-117701040D01*
X181895392Y-117576558D01*
X181859082Y-117456860D01*
X181800117Y-117346546D01*
X181720765Y-117249855D01*
X181643016Y-117186048D01*
X181649372Y-117180832D01*
X181759038Y-117047204D01*
X181840527Y-116894749D01*
X181890708Y-116729325D01*
X181907652Y-116557290D01*
X181907652Y-116069790D01*
X181890708Y-115897755D01*
X181840527Y-115732331D01*
X181759038Y-115579876D01*
X181649372Y-115446248D01*
X181515744Y-115336582D01*
X181363289Y-115255093D01*
X181197865Y-115204912D01*
X181025830Y-115187968D01*
X180113330Y-115187968D01*
X179941295Y-115204912D01*
X179775871Y-115255093D01*
X179623416Y-115336582D01*
X179516191Y-115424579D01*
X179479494Y-115394463D01*
X179457280Y-115382589D01*
X179457280Y-113866693D01*
X179460957Y-113829360D01*
X179446283Y-113680374D01*
X179402826Y-113537113D01*
X179332254Y-113405084D01*
X179237281Y-113289359D01*
X179121556Y-113194386D01*
X178989527Y-113123814D01*
X178846266Y-113080357D01*
X178734613Y-113069360D01*
X178697280Y-113065683D01*
X178659947Y-113069360D01*
X173883907Y-113069360D01*
X173860892Y-113053982D01*
X173750575Y-112995016D01*
X173660019Y-112957507D01*
X173540323Y-112921198D01*
X173444190Y-112902076D01*
X173319709Y-112889816D01*
X173295150Y-112889816D01*
X173270700Y-112887408D01*
X172770700Y-112887408D01*
X172746250Y-112889816D01*
X172721691Y-112889816D01*
X172714949Y-112890480D01*
X160030271Y-112890480D01*
X159974519Y-112884989D01*
X159918768Y-112890480D01*
X159752021Y-112906903D01*
X159538073Y-112971804D01*
X159340897Y-113077196D01*
X159168071Y-113219031D01*
X159132529Y-113262339D01*
X156636860Y-115758009D01*
X156593552Y-115793551D01*
X156451717Y-115966377D01*
X156422257Y-116021493D01*
X156346324Y-116163554D01*
X156281423Y-116377502D01*
X156259509Y-116600000D01*
X156265001Y-116655761D01*
X156265000Y-118242182D01*
X156159294Y-118370986D01*
X156145538Y-118396722D01*
X155989049Y-118190571D01*
X155771193Y-117997504D01*
X155519858Y-117850648D01*
X155256890Y-117758524D01*
X155027000Y-117879845D01*
X155027000Y-119198000D01*
X155047000Y-119198000D01*
X155047000Y-119452000D01*
X155027000Y-119452000D01*
X155027000Y-120770155D01*
X155256890Y-120891476D01*
X155519858Y-120799352D01*
X155771193Y-120652496D01*
X155989049Y-120459429D01*
X156145538Y-120253278D01*
X156159294Y-120279013D01*
X156344866Y-120505134D01*
X156570986Y-120690706D01*
X156828966Y-120828599D01*
X157108889Y-120913513D01*
X157400000Y-120942185D01*
X157691110Y-120913513D01*
X157971033Y-120828599D01*
X158229013Y-120690706D01*
X158455134Y-120505134D01*
X158640706Y-120279014D01*
X158650000Y-120261626D01*
X158659294Y-120279013D01*
X158844866Y-120505134D01*
X159070986Y-120690706D01*
X159328966Y-120828599D01*
X159608889Y-120913513D01*
X159900000Y-120942185D01*
X160191110Y-120913513D01*
X160471033Y-120828599D01*
X160729013Y-120690706D01*
X160955134Y-120505134D01*
X161007223Y-120441663D01*
X161061595Y-120543386D01*
X161172038Y-120677962D01*
X161306614Y-120788405D01*
X161460150Y-120870472D01*
X161626746Y-120921008D01*
X161800000Y-120938072D01*
X163000000Y-120938072D01*
X163173254Y-120921008D01*
X163339850Y-120870472D01*
X163493386Y-120788405D01*
X163627962Y-120677962D01*
X163738405Y-120543386D01*
X163820472Y-120389850D01*
X163871008Y-120223254D01*
X163888072Y-120050000D01*
X163888072Y-118600000D01*
X163871008Y-118426746D01*
X163820472Y-118260150D01*
X163738405Y-118106614D01*
X163627962Y-117972038D01*
X163493386Y-117861595D01*
X163339850Y-117779528D01*
X163173254Y-117728992D01*
X163000000Y-117711928D01*
X161800000Y-117711928D01*
X161626746Y-117728992D01*
X161460150Y-117779528D01*
X161306614Y-117861595D01*
X161172038Y-117972038D01*
X161061595Y-118106614D01*
X161007223Y-118208337D01*
X160955134Y-118144866D01*
X160729014Y-117959294D01*
X160471034Y-117821401D01*
X160191111Y-117736487D01*
X159900000Y-117707815D01*
X159608890Y-117736487D01*
X159328967Y-117821401D01*
X159070987Y-117959294D01*
X158844866Y-118144866D01*
X158659294Y-118370986D01*
X158650000Y-118388374D01*
X158640706Y-118370986D01*
X158535000Y-118242183D01*
X158535000Y-117070131D01*
X160444652Y-115160480D01*
X171632628Y-115160480D01*
X171632628Y-115325480D01*
X171635036Y-115349930D01*
X171635036Y-115374489D01*
X171647296Y-115498970D01*
X171666418Y-115595103D01*
X171702727Y-115714799D01*
X171740236Y-115805355D01*
X171799202Y-115915672D01*
X171853658Y-115997171D01*
X171933010Y-116093862D01*
X172002318Y-116163170D01*
X172099009Y-116242522D01*
X172180508Y-116296978D01*
X172290825Y-116355944D01*
X172381381Y-116393453D01*
X172501077Y-116429762D01*
X172597210Y-116448884D01*
X172721691Y-116461144D01*
X172746250Y-116461144D01*
X172770700Y-116463552D01*
X173083971Y-116463552D01*
X174395160Y-117774742D01*
X174418959Y-117803741D01*
X174447957Y-117827539D01*
X174534684Y-117898714D01*
X174666713Y-117969286D01*
X174809974Y-118012743D01*
X174958960Y-118027417D01*
X174996293Y-118023740D01*
X175691387Y-118023740D01*
X175694463Y-118029494D01*
X175773815Y-118126185D01*
X175870506Y-118205537D01*
X175958701Y-118252679D01*
X175958700Y-118930535D01*
X175851408Y-119018588D01*
X175794180Y-119088320D01*
X175676939Y-119065000D01*
X175473061Y-119065000D01*
X175273102Y-119104774D01*
X175084744Y-119182795D01*
X174915226Y-119296063D01*
X174771063Y-119440226D01*
X174657795Y-119609744D01*
X174579774Y-119798102D01*
X174540000Y-119998061D01*
X174540000Y-120201939D01*
X174579774Y-120401898D01*
X174657795Y-120590256D01*
X174771063Y-120759774D01*
X174815001Y-120803712D01*
X174815000Y-121975197D01*
X174097200Y-122692998D01*
X174001252Y-122692998D01*
X174160000Y-122534250D01*
X174163072Y-122450000D01*
X174150812Y-122325518D01*
X174114502Y-122205820D01*
X174103373Y-122185000D01*
X174114502Y-122164180D01*
X174150812Y-122044482D01*
X174163072Y-121920000D01*
X174160000Y-121835750D01*
X174001250Y-121677000D01*
X172452000Y-121677000D01*
X172452000Y-122693000D01*
X172472000Y-122693000D01*
X172472000Y-122947000D01*
X172452000Y-122947000D01*
X172452000Y-122967000D01*
X172198000Y-122967000D01*
X172198000Y-122947000D01*
X170648750Y-122947000D01*
X170490000Y-123105750D01*
X170486928Y-123190000D01*
X170499188Y-123314482D01*
X170535498Y-123434180D01*
X170546627Y-123455000D01*
X170535498Y-123475820D01*
X170499188Y-123595518D01*
X170486928Y-123720000D01*
X170486928Y-124460000D01*
X170499188Y-124584482D01*
X170535498Y-124704180D01*
X170594463Y-124814494D01*
X170673815Y-124911185D01*
X170770506Y-124990537D01*
X170880820Y-125049502D01*
X171000518Y-125085812D01*
X171125000Y-125098072D01*
X171670674Y-125098072D01*
X171690026Y-125134276D01*
X171708235Y-125156463D01*
X171785000Y-125250001D01*
X171813998Y-125273799D01*
X172540000Y-125999802D01*
X172540001Y-127477687D01*
X172526746Y-127478992D01*
X172360150Y-127529528D01*
X172206614Y-127611595D01*
X172072038Y-127722038D01*
X171961595Y-127856614D01*
X171879528Y-128010150D01*
X171828992Y-128176746D01*
X171811928Y-128350000D01*
X171811928Y-129800000D01*
X171828992Y-129973254D01*
X171879528Y-130139850D01*
X171961595Y-130293386D01*
X172072038Y-130427962D01*
X172206614Y-130538405D01*
X172360150Y-130620472D01*
X172526746Y-130671008D01*
X172540000Y-130672313D01*
X172540001Y-134602687D01*
X172526746Y-134603992D01*
X172360150Y-134654528D01*
X172206614Y-134736595D01*
X172072038Y-134847038D01*
X171961595Y-134981614D01*
X171879528Y-135135150D01*
X171828992Y-135301746D01*
X171811928Y-135475000D01*
X171811928Y-136925000D01*
X171828992Y-137098254D01*
X171879528Y-137264850D01*
X171925096Y-137350102D01*
X169128115Y-140147084D01*
X169025000Y-140136928D01*
X168625000Y-140136928D01*
X168500518Y-140149188D01*
X168380820Y-140185498D01*
X168350000Y-140201972D01*
X168319180Y-140185498D01*
X168199482Y-140149188D01*
X168075000Y-140136928D01*
X167675000Y-140136928D01*
X167550518Y-140149188D01*
X167430820Y-140185498D01*
X167320506Y-140244463D01*
X167234556Y-140315000D01*
X161689802Y-140315000D01*
X160460981Y-139086179D01*
X160691111Y-139063513D01*
X160971034Y-138978599D01*
X161229014Y-138840706D01*
X161455134Y-138655134D01*
X161640706Y-138429014D01*
X161654462Y-138403278D01*
X161810951Y-138609429D01*
X162028807Y-138802496D01*
X162280142Y-138949352D01*
X162543110Y-139041476D01*
X162773000Y-138920155D01*
X162773000Y-137602000D01*
X163027000Y-137602000D01*
X163027000Y-138920155D01*
X163256890Y-139041476D01*
X163519858Y-138949352D01*
X163771193Y-138802496D01*
X163989049Y-138609429D01*
X164165053Y-138377570D01*
X164292442Y-138115830D01*
X164366320Y-137834267D01*
X164226165Y-137602000D01*
X163027000Y-137602000D01*
X162773000Y-137602000D01*
X162753000Y-137602000D01*
X162753000Y-137348000D01*
X162773000Y-137348000D01*
X162773000Y-136029845D01*
X163027000Y-136029845D01*
X163027000Y-137348000D01*
X164226165Y-137348000D01*
X164366320Y-137115733D01*
X164292442Y-136834170D01*
X164165053Y-136572430D01*
X163989049Y-136340571D01*
X163771193Y-136147504D01*
X163519858Y-136000648D01*
X163256890Y-135908524D01*
X163027000Y-136029845D01*
X162773000Y-136029845D01*
X162543110Y-135908524D01*
X162280142Y-136000648D01*
X162028807Y-136147504D01*
X161810951Y-136340571D01*
X161654462Y-136546722D01*
X161640706Y-136520986D01*
X161455134Y-136294866D01*
X161229013Y-136109294D01*
X160971033Y-135971401D01*
X160691110Y-135886487D01*
X160400000Y-135857815D01*
X160108889Y-135886487D01*
X159828966Y-135971401D01*
X159570986Y-136109294D01*
X159344866Y-136294866D01*
X159159294Y-136520987D01*
X159150000Y-136538374D01*
X159140706Y-136520986D01*
X158955134Y-136294866D01*
X158729013Y-136109294D01*
X158471033Y-135971401D01*
X158191110Y-135886487D01*
X157900000Y-135857815D01*
X157608889Y-135886487D01*
X157328966Y-135971401D01*
X157070986Y-136109294D01*
X156844866Y-136294866D01*
X156792777Y-136358337D01*
X156738405Y-136256614D01*
X156627962Y-136122038D01*
X156493386Y-136011595D01*
X156339850Y-135929528D01*
X156173254Y-135878992D01*
X156000000Y-135861928D01*
X154800000Y-135861928D01*
X154626746Y-135878992D01*
X154460150Y-135929528D01*
X154306614Y-136011595D01*
X154172038Y-136122038D01*
X154061595Y-136256614D01*
X153979528Y-136410150D01*
X153928992Y-136576746D01*
X153915375Y-136715000D01*
X152385010Y-136715000D01*
X152385010Y-133144814D01*
X152426209Y-133186013D01*
X152450008Y-133215012D01*
X152479006Y-133238810D01*
X152565732Y-133309985D01*
X152697762Y-133380557D01*
X152841023Y-133424014D01*
X152952676Y-133435011D01*
X152952685Y-133435011D01*
X152990008Y-133438687D01*
X153027331Y-133435011D01*
X162585487Y-133435011D01*
X162622809Y-133438687D01*
X162660131Y-133435011D01*
X162660142Y-133435011D01*
X162771795Y-133424014D01*
X162915056Y-133380557D01*
X163047085Y-133309985D01*
X163162810Y-133215012D01*
X163186613Y-133186008D01*
X165686022Y-130686600D01*
X165715020Y-130662802D01*
X165764969Y-130601939D01*
X165809993Y-130547078D01*
X165880565Y-130415048D01*
X165924022Y-130271787D01*
X165935019Y-130160134D01*
X165935019Y-130160124D01*
X165938695Y-130122801D01*
X165935019Y-130085479D01*
X165935019Y-126204782D01*
X167064819Y-125074983D01*
X167100518Y-125085812D01*
X167225000Y-125098072D01*
X169625000Y-125098072D01*
X169749482Y-125085812D01*
X169869180Y-125049502D01*
X169979494Y-124990537D01*
X170076185Y-124911185D01*
X170155537Y-124814494D01*
X170214502Y-124704180D01*
X170250812Y-124584482D01*
X170263072Y-124460000D01*
X170263072Y-123720000D01*
X170250812Y-123595518D01*
X170214502Y-123475820D01*
X170203373Y-123455000D01*
X170214502Y-123434180D01*
X170250812Y-123314482D01*
X170263072Y-123190000D01*
X170263072Y-122450000D01*
X170250812Y-122325518D01*
X170214502Y-122205820D01*
X170203373Y-122185000D01*
X170214502Y-122164180D01*
X170250812Y-122044482D01*
X170263072Y-121920000D01*
X170486928Y-121920000D01*
X170499188Y-122044482D01*
X170535498Y-122164180D01*
X170546627Y-122185000D01*
X170535498Y-122205820D01*
X170499188Y-122325518D01*
X170486928Y-122450000D01*
X170490000Y-122534250D01*
X170648750Y-122693000D01*
X172198000Y-122693000D01*
X172198000Y-121677000D01*
X170648750Y-121677000D01*
X170490000Y-121835750D01*
X170486928Y-121920000D01*
X170263072Y-121920000D01*
X170263072Y-121180000D01*
X170250812Y-121055518D01*
X170214502Y-120935820D01*
X170203373Y-120915000D01*
X170214502Y-120894180D01*
X170250812Y-120774482D01*
X170263072Y-120650000D01*
X170263072Y-119910000D01*
X170250812Y-119785518D01*
X170214502Y-119665820D01*
X170203373Y-119645000D01*
X170214502Y-119624180D01*
X170250812Y-119504482D01*
X170263072Y-119380000D01*
X170263072Y-118640000D01*
X170486928Y-118640000D01*
X170486928Y-119380000D01*
X170499188Y-119504482D01*
X170535498Y-119624180D01*
X170546627Y-119645000D01*
X170535498Y-119665820D01*
X170499188Y-119785518D01*
X170486928Y-119910000D01*
X170486928Y-120650000D01*
X170499188Y-120774482D01*
X170535498Y-120894180D01*
X170546627Y-120915000D01*
X170535498Y-120935820D01*
X170499188Y-121055518D01*
X170486928Y-121180000D01*
X170490000Y-121264250D01*
X170648750Y-121423000D01*
X172198000Y-121423000D01*
X172198000Y-121403000D01*
X172452000Y-121403000D01*
X172452000Y-121423000D01*
X174001250Y-121423000D01*
X174160000Y-121264250D01*
X174163072Y-121180000D01*
X174150812Y-121055518D01*
X174114502Y-120935820D01*
X174103373Y-120915000D01*
X174114502Y-120894180D01*
X174150812Y-120774482D01*
X174163072Y-120650000D01*
X174163072Y-119910000D01*
X174150812Y-119785518D01*
X174114502Y-119665820D01*
X174103373Y-119645000D01*
X174114502Y-119624180D01*
X174150812Y-119504482D01*
X174163072Y-119380000D01*
X174163072Y-118640000D01*
X174150812Y-118515518D01*
X174114502Y-118395820D01*
X174055537Y-118285506D01*
X173976185Y-118188815D01*
X173879494Y-118109463D01*
X173769180Y-118050498D01*
X173649482Y-118014188D01*
X173525000Y-118001928D01*
X171125000Y-118001928D01*
X171000518Y-118014188D01*
X170880820Y-118050498D01*
X170770506Y-118109463D01*
X170673815Y-118188815D01*
X170594463Y-118285506D01*
X170535498Y-118395820D01*
X170499188Y-118515518D01*
X170486928Y-118640000D01*
X170263072Y-118640000D01*
X170250812Y-118515518D01*
X170214502Y-118395820D01*
X170155537Y-118285506D01*
X170076185Y-118188815D01*
X169979494Y-118109463D01*
X169869180Y-118050498D01*
X169749482Y-118014188D01*
X169625000Y-118001928D01*
X167225000Y-118001928D01*
X167100518Y-118014188D01*
X166980820Y-118050498D01*
X166870506Y-118109463D01*
X166773815Y-118188815D01*
X166694463Y-118285506D01*
X166635498Y-118395820D01*
X166599188Y-118515518D01*
X166586928Y-118640000D01*
X166586928Y-118888268D01*
X163738094Y-121737103D01*
X163708190Y-121761813D01*
X163661739Y-121818802D01*
X163615026Y-121875722D01*
X163614418Y-121876860D01*
X163613606Y-121877856D01*
X163579214Y-121942721D01*
X163544454Y-122007752D01*
X163544080Y-122008986D01*
X163543478Y-122010121D01*
X163522367Y-122080567D01*
X163500998Y-122151013D01*
X163500872Y-122152292D01*
X163500502Y-122153527D01*
X163493533Y-122226803D01*
X163486324Y-122299998D01*
X163490126Y-122338602D01*
X163500649Y-125474553D01*
X163326939Y-125440000D01*
X163123061Y-125440000D01*
X162923102Y-125479774D01*
X162734744Y-125557795D01*
X162565226Y-125671063D01*
X162521289Y-125715000D01*
X160788072Y-125715000D01*
X160788072Y-125600000D01*
X160775812Y-125475518D01*
X160739502Y-125355820D01*
X160680537Y-125245506D01*
X160601185Y-125148815D01*
X160504494Y-125069463D01*
X160394180Y-125010498D01*
X160274482Y-124974188D01*
X160150000Y-124961928D01*
X158700000Y-124961928D01*
X158575518Y-124974188D01*
X158455820Y-125010498D01*
X158345506Y-125069463D01*
X158279870Y-125123329D01*
X157053004Y-123896463D01*
X157029201Y-123867459D01*
X156913476Y-123772486D01*
X156781447Y-123701914D01*
X156638186Y-123658457D01*
X156526533Y-123647460D01*
X156526522Y-123647460D01*
X156489200Y-123643784D01*
X156451878Y-123647460D01*
X149877726Y-123647460D01*
X149866404Y-123620125D01*
X149807438Y-123509808D01*
X149752982Y-123428309D01*
X149673630Y-123331618D01*
X149604322Y-123262310D01*
X149507631Y-123182958D01*
X149426132Y-123128502D01*
X149315815Y-123069536D01*
X149225259Y-123032027D01*
X149105563Y-122995718D01*
X149009430Y-122976596D01*
X148884949Y-122964336D01*
X148860390Y-122964336D01*
X148835940Y-122961928D01*
X148335940Y-122961928D01*
X148211458Y-122974188D01*
X148091760Y-123010498D01*
X147981446Y-123069463D01*
X147884755Y-123148815D01*
X147805403Y-123245506D01*
X147746438Y-123355820D01*
X147710128Y-123475518D01*
X147697868Y-123600000D01*
X147697868Y-125100000D01*
X147710128Y-125224482D01*
X147746438Y-125344180D01*
X147805403Y-125454494D01*
X147884755Y-125551185D01*
X147981446Y-125630537D01*
X148000823Y-125640894D01*
X147994146Y-125644463D01*
X147897455Y-125723815D01*
X147818103Y-125820506D01*
X147759138Y-125930820D01*
X147722828Y-126050518D01*
X147710568Y-126175000D01*
X147710568Y-127675000D01*
X147722828Y-127799482D01*
X147759138Y-127919180D01*
X147818103Y-128029494D01*
X147897455Y-128126185D01*
X147994146Y-128205537D01*
X148007173Y-128212500D01*
X147994146Y-128219463D01*
X147897455Y-128298815D01*
X147818103Y-128395506D01*
X147759138Y-128505820D01*
X147722828Y-128625518D01*
X147710568Y-128750000D01*
X147710568Y-130250000D01*
X147722828Y-130374482D01*
X147759138Y-130494180D01*
X147818103Y-130604494D01*
X147897455Y-130701185D01*
X147994146Y-130780537D01*
X148007173Y-130787500D01*
X147994146Y-130794463D01*
X147897455Y-130873815D01*
X147818103Y-130970506D01*
X147759138Y-131080820D01*
X147722828Y-131200518D01*
X147710568Y-131325000D01*
X147710568Y-132825000D01*
X147722828Y-132949482D01*
X147759138Y-133069180D01*
X147818103Y-133179494D01*
X147897455Y-133276185D01*
X147994146Y-133355537D01*
X148104460Y-133414502D01*
X148224158Y-133450812D01*
X148348640Y-133463072D01*
X148848640Y-133463072D01*
X148873090Y-133460664D01*
X148897649Y-133460664D01*
X149022130Y-133448404D01*
X149118263Y-133429282D01*
X149237959Y-133392973D01*
X149328515Y-133355464D01*
X149438832Y-133296498D01*
X149520331Y-133242042D01*
X149617022Y-133162690D01*
X149686330Y-133093382D01*
X149765682Y-132996691D01*
X149820138Y-132915192D01*
X149879104Y-132804875D01*
X149916613Y-132714319D01*
X149952922Y-132594623D01*
X149972044Y-132498490D01*
X149984304Y-132374009D01*
X149984304Y-132349450D01*
X149986712Y-132325000D01*
X149986712Y-131921009D01*
X150415000Y-131492722D01*
X150415001Y-138437668D01*
X150411324Y-138475000D01*
X150415001Y-138512333D01*
X150425998Y-138623986D01*
X150439180Y-138667442D01*
X150469454Y-138767246D01*
X150540026Y-138899276D01*
X150611201Y-138986002D01*
X150635000Y-139015001D01*
X150663998Y-139038799D01*
X153236201Y-141611003D01*
X153259999Y-141640001D01*
X153288997Y-141663799D01*
X153375724Y-141734974D01*
X153507753Y-141805546D01*
X153651014Y-141849003D01*
X153800000Y-141863677D01*
X153837333Y-141860000D01*
X157862667Y-141860000D01*
X157900000Y-141863677D01*
X157937333Y-141860000D01*
X158048986Y-141849003D01*
X158192247Y-141805546D01*
X158324276Y-141734974D01*
X158440001Y-141640001D01*
X158534974Y-141524276D01*
X158605546Y-141392247D01*
X158649003Y-141248986D01*
X158663677Y-141100000D01*
X158660000Y-141062667D01*
X158660000Y-139434801D01*
X160811201Y-141586003D01*
X160834999Y-141615001D01*
X160863997Y-141638799D01*
X160950723Y-141709974D01*
X161072377Y-141775000D01*
X161082753Y-141780546D01*
X161226014Y-141824003D01*
X161337667Y-141835000D01*
X161337676Y-141835000D01*
X161374999Y-141838676D01*
X161412322Y-141835000D01*
X167010750Y-141835000D01*
X167073750Y-141898000D01*
X167311322Y-141898000D01*
X167320506Y-141905537D01*
X167430820Y-141964502D01*
X167550518Y-142000812D01*
X167675000Y-142013072D01*
X168075000Y-142013072D01*
X168199482Y-142000812D01*
X168319180Y-141964502D01*
X168350000Y-141948028D01*
X168380820Y-141964502D01*
X168500518Y-142000812D01*
X168625000Y-142013072D01*
X169025000Y-142013072D01*
X169149482Y-142000812D01*
X169269180Y-141964502D01*
X169379494Y-141905537D01*
X169388678Y-141898000D01*
X169626250Y-141898000D01*
X169785000Y-141739250D01*
X169788072Y-141675000D01*
X169784619Y-141639935D01*
X169815001Y-141615001D01*
X169838804Y-141585997D01*
X173611730Y-137813072D01*
X173900000Y-137813072D01*
X174073254Y-137796008D01*
X174239850Y-137745472D01*
X174393386Y-137663405D01*
X174527962Y-137552962D01*
X174638405Y-137418386D01*
X174692777Y-137316663D01*
X174744866Y-137380134D01*
X174970987Y-137565706D01*
X175228967Y-137703599D01*
X175508890Y-137788513D01*
X175800000Y-137817185D01*
X176091111Y-137788513D01*
X176371034Y-137703599D01*
X176629014Y-137565706D01*
X176855134Y-137380134D01*
X177040706Y-137154014D01*
X177054462Y-137128278D01*
X177210951Y-137334429D01*
X177428807Y-137527496D01*
X177680142Y-137674352D01*
X177943110Y-137766476D01*
X178173000Y-137645155D01*
X178173000Y-136327000D01*
X178427000Y-136327000D01*
X178427000Y-137645155D01*
X178656890Y-137766476D01*
X178919858Y-137674352D01*
X179171193Y-137527496D01*
X179389049Y-137334429D01*
X179565053Y-137102570D01*
X179692442Y-136840830D01*
X179766320Y-136559267D01*
X179626165Y-136327000D01*
X178427000Y-136327000D01*
X178173000Y-136327000D01*
X178153000Y-136327000D01*
X178153000Y-136233380D01*
X185295668Y-136233380D01*
X185307928Y-136357862D01*
X185344238Y-136477560D01*
X185403203Y-136587874D01*
X185482555Y-136684565D01*
X185579246Y-136763917D01*
X185689560Y-136822882D01*
X185809258Y-136859192D01*
X185933740Y-136871452D01*
X186047990Y-136868380D01*
X186206740Y-136709630D01*
X186206740Y-135910380D01*
X185457490Y-135910380D01*
X185298740Y-136069130D01*
X185295668Y-136233380D01*
X178153000Y-136233380D01*
X178153000Y-136073000D01*
X178173000Y-136073000D01*
X178173000Y-134754845D01*
X178427000Y-134754845D01*
X178427000Y-136073000D01*
X179626165Y-136073000D01*
X179766320Y-135840733D01*
X179692442Y-135559170D01*
X179565053Y-135297430D01*
X179389049Y-135065571D01*
X179171193Y-134872504D01*
X178919858Y-134725648D01*
X178656890Y-134633524D01*
X178427000Y-134754845D01*
X178173000Y-134754845D01*
X177943110Y-134633524D01*
X177680142Y-134725648D01*
X177428807Y-134872504D01*
X177210951Y-135065571D01*
X177054462Y-135271722D01*
X177040706Y-135245986D01*
X176855134Y-135019866D01*
X176629013Y-134834294D01*
X176560000Y-134797406D01*
X176560000Y-132003711D01*
X176603937Y-131959774D01*
X176717205Y-131790256D01*
X176795226Y-131601898D01*
X176835000Y-131401939D01*
X176835000Y-131198061D01*
X176795226Y-130998102D01*
X176717205Y-130809744D01*
X176603937Y-130640226D01*
X176482650Y-130518939D01*
X176629014Y-130440706D01*
X176855134Y-130255134D01*
X177040706Y-130029014D01*
X177054462Y-130003278D01*
X177210951Y-130209429D01*
X177428807Y-130402496D01*
X177680142Y-130549352D01*
X177943110Y-130641476D01*
X178173000Y-130520155D01*
X178173000Y-129202000D01*
X178427000Y-129202000D01*
X178427000Y-130520155D01*
X178656890Y-130641476D01*
X178919858Y-130549352D01*
X179171193Y-130402496D01*
X179389049Y-130209429D01*
X179565053Y-129977570D01*
X179692442Y-129715830D01*
X179766320Y-129434267D01*
X179626165Y-129202000D01*
X178427000Y-129202000D01*
X178173000Y-129202000D01*
X178153000Y-129202000D01*
X178153000Y-128948000D01*
X178173000Y-128948000D01*
X178173000Y-127629845D01*
X178427000Y-127629845D01*
X178427000Y-128948000D01*
X179626165Y-128948000D01*
X179766320Y-128715733D01*
X179692442Y-128434170D01*
X179565053Y-128172430D01*
X179389049Y-127940571D01*
X179171193Y-127747504D01*
X178919858Y-127600648D01*
X178656890Y-127508524D01*
X178427000Y-127629845D01*
X178173000Y-127629845D01*
X177943110Y-127508524D01*
X177680142Y-127600648D01*
X177428807Y-127747504D01*
X177210951Y-127940571D01*
X177054462Y-128146722D01*
X177040706Y-128120986D01*
X176855134Y-127894866D01*
X176629013Y-127709294D01*
X176560000Y-127672406D01*
X176560000Y-126112323D01*
X176563676Y-126075000D01*
X176560000Y-126037677D01*
X176560000Y-126037667D01*
X176549003Y-125926014D01*
X176505546Y-125782753D01*
X176434974Y-125650724D01*
X176340001Y-125534999D01*
X176311002Y-125511201D01*
X176110000Y-125310198D01*
X176110000Y-125248061D01*
X176070226Y-125048102D01*
X175992205Y-124859744D01*
X175878937Y-124690226D01*
X175819603Y-124630892D01*
X175934774Y-124553937D01*
X175978711Y-124510000D01*
X180825178Y-124510000D01*
X180862500Y-124513676D01*
X180899822Y-124510000D01*
X180899833Y-124510000D01*
X181011486Y-124499003D01*
X181154747Y-124455546D01*
X181286776Y-124384974D01*
X181402501Y-124290001D01*
X181426303Y-124260998D01*
X181649229Y-124038072D01*
X182156250Y-124038072D01*
X182328285Y-124021128D01*
X182493709Y-123970947D01*
X182646164Y-123889458D01*
X182779792Y-123779792D01*
X182889458Y-123646164D01*
X182939061Y-123553363D01*
X184390000Y-123553363D01*
X184390000Y-123796637D01*
X184437460Y-124035236D01*
X184530557Y-124259992D01*
X184665713Y-124462267D01*
X184837733Y-124634287D01*
X185040008Y-124769443D01*
X185264764Y-124862540D01*
X185503363Y-124910000D01*
X185746637Y-124910000D01*
X185985236Y-124862540D01*
X185989301Y-124860856D01*
X185990000Y-124989250D01*
X186148750Y-125148000D01*
X187498000Y-125148000D01*
X187498000Y-123948750D01*
X187339250Y-123790000D01*
X186860000Y-123787939D01*
X186860000Y-123553363D01*
X186812540Y-123314764D01*
X186719443Y-123090008D01*
X186584287Y-122887733D01*
X186412267Y-122715713D01*
X186209992Y-122580557D01*
X185985236Y-122487460D01*
X185746637Y-122440000D01*
X185503363Y-122440000D01*
X185264764Y-122487460D01*
X185040008Y-122580557D01*
X184837733Y-122715713D01*
X184665713Y-122887733D01*
X184530557Y-123090008D01*
X184437460Y-123314764D01*
X184390000Y-123553363D01*
X182939061Y-123553363D01*
X182970947Y-123493709D01*
X183021128Y-123328285D01*
X183038072Y-123156250D01*
X183038072Y-122668750D01*
X183021128Y-122496715D01*
X182970947Y-122331291D01*
X182889458Y-122178836D01*
X182779792Y-122045208D01*
X182694244Y-121975000D01*
X182779792Y-121904792D01*
X182862100Y-121804500D01*
X183046240Y-121804500D01*
X183070023Y-121848994D01*
X183149375Y-121945685D01*
X183246066Y-122025037D01*
X183356380Y-122084002D01*
X183476078Y-122120312D01*
X183600560Y-122132572D01*
X184400560Y-122132572D01*
X184525042Y-122120312D01*
X184644740Y-122084002D01*
X184755054Y-122025037D01*
X184851745Y-121945685D01*
X184931097Y-121848994D01*
X184950560Y-121812582D01*
X184970023Y-121848994D01*
X185049375Y-121945685D01*
X185146066Y-122025037D01*
X185256380Y-122084002D01*
X185376078Y-122120312D01*
X185500560Y-122132572D01*
X185614810Y-122129500D01*
X185773560Y-121970750D01*
X185773560Y-121171500D01*
X186027560Y-121171500D01*
X186027560Y-121970750D01*
X186186310Y-122129500D01*
X186300560Y-122132572D01*
X186425042Y-122120312D01*
X186544740Y-122084002D01*
X186655054Y-122025037D01*
X186751745Y-121945685D01*
X186831097Y-121848994D01*
X186890062Y-121738680D01*
X186926372Y-121618982D01*
X186938632Y-121494500D01*
X186935560Y-121330250D01*
X186776810Y-121171500D01*
X186027560Y-121171500D01*
X185773560Y-121171500D01*
X185753560Y-121171500D01*
X185753560Y-120917500D01*
X185773560Y-120917500D01*
X185773560Y-120118250D01*
X186027560Y-120118250D01*
X186027560Y-120917500D01*
X186776810Y-120917500D01*
X186935560Y-120758750D01*
X186938632Y-120594500D01*
X186926372Y-120470018D01*
X186890062Y-120350320D01*
X186831097Y-120240006D01*
X186751745Y-120143315D01*
X186655054Y-120063963D01*
X186544740Y-120004998D01*
X186425042Y-119968688D01*
X186300560Y-119956428D01*
X186186310Y-119959500D01*
X186027560Y-120118250D01*
X185773560Y-120118250D01*
X185688953Y-120033643D01*
X185705054Y-120025037D01*
X185801745Y-119945685D01*
X185881097Y-119848994D01*
X185940062Y-119738680D01*
X185976372Y-119618982D01*
X185988632Y-119494500D01*
X185988632Y-118594500D01*
X185976372Y-118470018D01*
X185940062Y-118350320D01*
X185881097Y-118240006D01*
X185801745Y-118143315D01*
X185709920Y-118067956D01*
X185709920Y-116399714D01*
X185778933Y-116362826D01*
X186005054Y-116177254D01*
X186057143Y-116113783D01*
X186111515Y-116215506D01*
X186221958Y-116350082D01*
X186356534Y-116460525D01*
X186510070Y-116542592D01*
X186676666Y-116593128D01*
X186849920Y-116610192D01*
X188049920Y-116610192D01*
X188223174Y-116593128D01*
X188294239Y-116571571D01*
X188614990Y-116892323D01*
X188614991Y-123786971D01*
X187910750Y-123790000D01*
X187752000Y-123948750D01*
X187752000Y-125148000D01*
X187772000Y-125148000D01*
X187772000Y-125402000D01*
X187752000Y-125402000D01*
X187752000Y-125422000D01*
X187498000Y-125422000D01*
X187498000Y-125402000D01*
X186148750Y-125402000D01*
X185990000Y-125560750D01*
X185986928Y-126125000D01*
X185999188Y-126249482D01*
X186035498Y-126369180D01*
X186094463Y-126479494D01*
X186173815Y-126576185D01*
X186270506Y-126655537D01*
X186380820Y-126714502D01*
X186415608Y-126725055D01*
X186234294Y-126945986D01*
X186096401Y-127203966D01*
X186011487Y-127483889D01*
X185982815Y-127775000D01*
X186011487Y-128066111D01*
X186096401Y-128346034D01*
X186234294Y-128604014D01*
X186419866Y-128830134D01*
X186645986Y-129015706D01*
X186903966Y-129153599D01*
X187183889Y-129238513D01*
X187402050Y-129260000D01*
X187847950Y-129260000D01*
X188066111Y-129238513D01*
X188346034Y-129153599D01*
X188604014Y-129015706D01*
X188614990Y-129006698D01*
X188614990Y-133602689D01*
X188404630Y-133392329D01*
X188370947Y-133281291D01*
X188289458Y-133128836D01*
X188179792Y-132995208D01*
X188094244Y-132925000D01*
X188179792Y-132854792D01*
X188289458Y-132721164D01*
X188370947Y-132568709D01*
X188421128Y-132403285D01*
X188438072Y-132231250D01*
X188438072Y-131743750D01*
X188421128Y-131571715D01*
X188370947Y-131406291D01*
X188289458Y-131253836D01*
X188179792Y-131120208D01*
X188046164Y-131010542D01*
X187954170Y-130961370D01*
X188020226Y-130801898D01*
X188060000Y-130601939D01*
X188060000Y-130398061D01*
X188020226Y-130198102D01*
X187942205Y-130009744D01*
X187828937Y-129840226D01*
X187684774Y-129696063D01*
X187515256Y-129582795D01*
X187326898Y-129504774D01*
X187126939Y-129465000D01*
X186923061Y-129465000D01*
X186723102Y-129504774D01*
X186534744Y-129582795D01*
X186365226Y-129696063D01*
X186221063Y-129840226D01*
X186107795Y-130009744D01*
X186029774Y-130198102D01*
X185990000Y-130398061D01*
X185990000Y-130601939D01*
X186029774Y-130801898D01*
X186107795Y-130990256D01*
X186132855Y-131027761D01*
X186020208Y-131120208D01*
X185910542Y-131253836D01*
X185829053Y-131406291D01*
X185778872Y-131571715D01*
X185761928Y-131743750D01*
X185761928Y-132231250D01*
X185778872Y-132403285D01*
X185829053Y-132568709D01*
X185910542Y-132721164D01*
X186020208Y-132854792D01*
X186105756Y-132925000D01*
X186020208Y-132995208D01*
X185910542Y-133128836D01*
X185829053Y-133281291D01*
X185778872Y-133446715D01*
X185761928Y-133618750D01*
X185761928Y-134106250D01*
X185778872Y-134278285D01*
X185829053Y-134443709D01*
X185910542Y-134596164D01*
X185993220Y-134696907D01*
X185933740Y-134695308D01*
X185809258Y-134707568D01*
X185689560Y-134743878D01*
X185579246Y-134802843D01*
X185482555Y-134882195D01*
X185403203Y-134978886D01*
X185344238Y-135089200D01*
X185307928Y-135208898D01*
X185295668Y-135333380D01*
X185298740Y-135497630D01*
X185457490Y-135656380D01*
X186206740Y-135656380D01*
X186206740Y-135636380D01*
X186460740Y-135636380D01*
X186460740Y-135656380D01*
X186480740Y-135656380D01*
X186480740Y-135910380D01*
X186460740Y-135910380D01*
X186460740Y-136709630D01*
X186545347Y-136794237D01*
X186529246Y-136802843D01*
X186432555Y-136882195D01*
X186353203Y-136978886D01*
X186294238Y-137089200D01*
X186257928Y-137208898D01*
X186245668Y-137333380D01*
X186245668Y-138233380D01*
X186257928Y-138357862D01*
X186294238Y-138477560D01*
X186353203Y-138587874D01*
X186432555Y-138684565D01*
X186523740Y-138759399D01*
X186523741Y-140362660D01*
X186506166Y-140372054D01*
X186280046Y-140557626D01*
X186227957Y-140621097D01*
X186173585Y-140519374D01*
X186063142Y-140384798D01*
X185928566Y-140274355D01*
X185775030Y-140192288D01*
X185608434Y-140141752D01*
X185435180Y-140124688D01*
X184235180Y-140124688D01*
X184061926Y-140141752D01*
X183895330Y-140192288D01*
X183741794Y-140274355D01*
X183607218Y-140384798D01*
X183496775Y-140519374D01*
X183414708Y-140672910D01*
X183364172Y-140839506D01*
X183347108Y-141012760D01*
X183347108Y-142512760D01*
X183348585Y-142527760D01*
X183113543Y-142527760D01*
X182874944Y-142575220D01*
X182650188Y-142668317D01*
X182447913Y-142803473D01*
X182275893Y-142975493D01*
X182140737Y-143177768D01*
X182047640Y-143402524D01*
X182000180Y-143641123D01*
X182000180Y-143884397D01*
X182047640Y-144122996D01*
X182140737Y-144347752D01*
X182275893Y-144550027D01*
X182447913Y-144722047D01*
X182650188Y-144857203D01*
X182874944Y-144950300D01*
X183113543Y-144997760D01*
X183356817Y-144997760D01*
X183595416Y-144950300D01*
X183820172Y-144857203D01*
X184022447Y-144722047D01*
X184194467Y-144550027D01*
X184329623Y-144347752D01*
X184422720Y-144122996D01*
X184450521Y-143983232D01*
X185605423Y-145138136D01*
X185640961Y-145181439D01*
X185684264Y-145216977D01*
X185684266Y-145216979D01*
X185712488Y-145240140D01*
X149400359Y-145240140D01*
X149870670Y-144992555D01*
X149911088Y-144965548D01*
X150271276Y-144475881D01*
X147750000Y-141954605D01*
X145228724Y-144475881D01*
X145588912Y-144965548D01*
X146094936Y-145240140D01*
X144208100Y-145240140D01*
X144208100Y-143279546D01*
X144532445Y-143895670D01*
X144559452Y-143936088D01*
X145049119Y-144296276D01*
X147570395Y-141775000D01*
X147929605Y-141775000D01*
X150450881Y-144296276D01*
X150940548Y-143936088D01*
X151300849Y-143272118D01*
X151424655Y-142873061D01*
X165440000Y-142873061D01*
X165440000Y-143076939D01*
X165479774Y-143276898D01*
X165557795Y-143465256D01*
X165671063Y-143634774D01*
X165815226Y-143778937D01*
X165984744Y-143892205D01*
X166173102Y-143970226D01*
X166373061Y-144010000D01*
X166576939Y-144010000D01*
X166776898Y-143970226D01*
X166965256Y-143892205D01*
X167134774Y-143778937D01*
X167178711Y-143735000D01*
X167234556Y-143735000D01*
X167320506Y-143805537D01*
X167430820Y-143864502D01*
X167550518Y-143900812D01*
X167675000Y-143913072D01*
X168075000Y-143913072D01*
X168199482Y-143900812D01*
X168319180Y-143864502D01*
X168349041Y-143848541D01*
X168365751Y-143858032D01*
X168484476Y-143897406D01*
X168593250Y-143910000D01*
X168752000Y-143751250D01*
X168752000Y-143102000D01*
X168898000Y-143102000D01*
X168898000Y-143751250D01*
X169056750Y-143910000D01*
X169165524Y-143897406D01*
X169284249Y-143858032D01*
X169393012Y-143796252D01*
X169487631Y-143714441D01*
X169564473Y-143615742D01*
X169620582Y-143503949D01*
X169653804Y-143383357D01*
X169660000Y-143260750D01*
X169501250Y-143102000D01*
X168898000Y-143102000D01*
X168752000Y-143102000D01*
X168713072Y-143102000D01*
X168713072Y-143010462D01*
X169150000Y-143013072D01*
X169274482Y-143000812D01*
X169394180Y-142964502D01*
X169504494Y-142905537D01*
X169601185Y-142826185D01*
X169680537Y-142729494D01*
X169739502Y-142619180D01*
X169775812Y-142499482D01*
X169788072Y-142375000D01*
X169785000Y-142310750D01*
X169626250Y-142152000D01*
X169389935Y-142152000D01*
X169284249Y-142091968D01*
X169165524Y-142052594D01*
X169056750Y-142040000D01*
X168944750Y-142152000D01*
X168705250Y-142152000D01*
X168593250Y-142040000D01*
X168484476Y-142052594D01*
X168365751Y-142091968D01*
X168349041Y-142101459D01*
X168319180Y-142085498D01*
X168199482Y-142049188D01*
X168075000Y-142036928D01*
X167675000Y-142036928D01*
X167550518Y-142049188D01*
X167430820Y-142085498D01*
X167320506Y-142144463D01*
X167311322Y-142152000D01*
X167106244Y-142152000D01*
X166965256Y-142057795D01*
X166776898Y-141979774D01*
X166576939Y-141940000D01*
X166373061Y-141940000D01*
X166173102Y-141979774D01*
X165984744Y-142057795D01*
X165815226Y-142171063D01*
X165671063Y-142315226D01*
X165557795Y-142484744D01*
X165479774Y-142673102D01*
X165440000Y-142873061D01*
X151424655Y-142873061D01*
X151524694Y-142550615D01*
X151603480Y-141799305D01*
X151534178Y-141047062D01*
X151319452Y-140322792D01*
X150967555Y-139654330D01*
X150940548Y-139613912D01*
X150450881Y-139253724D01*
X147929605Y-141775000D01*
X147570395Y-141775000D01*
X145049119Y-139253724D01*
X144559452Y-139613912D01*
X144208100Y-140261391D01*
X144208100Y-139074119D01*
X145228724Y-139074119D01*
X147750000Y-141595395D01*
X150271276Y-139074119D01*
X149911088Y-138584452D01*
X149247118Y-138224151D01*
X148525615Y-138000306D01*
X147774305Y-137921520D01*
X147022062Y-137990822D01*
X146297792Y-138205548D01*
X145629330Y-138557445D01*
X145588912Y-138584452D01*
X145228724Y-139074119D01*
X144208100Y-139074119D01*
X144208100Y-118725881D01*
X145553724Y-118725881D01*
X145913912Y-119215548D01*
X146577882Y-119575849D01*
X147299385Y-119799694D01*
X148050695Y-119878480D01*
X148802938Y-119809178D01*
X149224262Y-119684267D01*
X153433680Y-119684267D01*
X153507558Y-119965830D01*
X153634947Y-120227570D01*
X153810951Y-120459429D01*
X154028807Y-120652496D01*
X154280142Y-120799352D01*
X154543110Y-120891476D01*
X154773000Y-120770155D01*
X154773000Y-119452000D01*
X153573835Y-119452000D01*
X153433680Y-119684267D01*
X149224262Y-119684267D01*
X149527208Y-119594452D01*
X150195670Y-119242555D01*
X150236088Y-119215548D01*
X150419846Y-118965733D01*
X153433680Y-118965733D01*
X153573835Y-119198000D01*
X154773000Y-119198000D01*
X154773000Y-117879845D01*
X154543110Y-117758524D01*
X154280142Y-117850648D01*
X154028807Y-117997504D01*
X153810951Y-118190571D01*
X153634947Y-118422430D01*
X153507558Y-118684170D01*
X153433680Y-118965733D01*
X150419846Y-118965733D01*
X150596276Y-118725881D01*
X148075000Y-116204605D01*
X145553724Y-118725881D01*
X144208100Y-118725881D01*
X144208100Y-116000695D01*
X144221520Y-116000695D01*
X144290822Y-116752938D01*
X144505548Y-117477208D01*
X144857445Y-118145670D01*
X144884452Y-118186088D01*
X145374119Y-118546276D01*
X147895395Y-116025000D01*
X148254605Y-116025000D01*
X150775881Y-118546276D01*
X151265548Y-118186088D01*
X151625849Y-117522118D01*
X151849694Y-116800615D01*
X151928480Y-116049305D01*
X151859178Y-115297062D01*
X151644452Y-114572792D01*
X151292555Y-113904330D01*
X151265548Y-113863912D01*
X150775881Y-113503724D01*
X148254605Y-116025000D01*
X147895395Y-116025000D01*
X145374119Y-113503724D01*
X144884452Y-113863912D01*
X144524151Y-114527882D01*
X144300306Y-115249385D01*
X144221520Y-116000695D01*
X144208100Y-116000695D01*
X144208100Y-113324119D01*
X145553724Y-113324119D01*
X148075000Y-115845395D01*
X150596276Y-113324119D01*
X150236088Y-112834452D01*
X149572118Y-112474151D01*
X148850615Y-112250306D01*
X148099305Y-112171520D01*
X147347062Y-112240822D01*
X146622792Y-112455548D01*
X145954330Y-112807445D01*
X145913912Y-112834452D01*
X145553724Y-113324119D01*
X144208100Y-113324119D01*
X144208100Y-111741820D01*
X188904654Y-111741820D01*
X188689684Y-111784580D01*
G37*
X188689684Y-111784580D02*
X188464928Y-111877677D01*
X188262653Y-112012833D01*
X188090633Y-112184853D01*
X187955477Y-112387128D01*
X187862380Y-112611884D01*
X187814920Y-112850483D01*
X187814920Y-113093757D01*
X187862380Y-113332356D01*
X187863081Y-113334048D01*
X186849920Y-113334048D01*
X186676666Y-113351112D01*
X186510070Y-113401648D01*
X186356534Y-113483715D01*
X186221958Y-113594158D01*
X186111515Y-113728734D01*
X186057143Y-113830457D01*
X186005054Y-113766986D01*
X185778934Y-113581414D01*
X185520954Y-113443521D01*
X185241031Y-113358607D01*
X184949920Y-113329935D01*
X184658810Y-113358607D01*
X184378887Y-113443521D01*
X184120907Y-113581414D01*
X183894786Y-113766986D01*
X183709214Y-113993106D01*
X183571321Y-114251086D01*
X183486407Y-114531009D01*
X183464920Y-114749170D01*
X183464920Y-115195069D01*
X183486407Y-115413230D01*
X183571321Y-115693153D01*
X183709214Y-115951133D01*
X183894786Y-116177254D01*
X184120906Y-116362826D01*
X184189920Y-116399715D01*
X184189921Y-118069006D01*
X184099375Y-118143315D01*
X184020023Y-118240006D01*
X183961058Y-118350320D01*
X183924748Y-118470018D01*
X183912488Y-118594500D01*
X183912488Y-119494500D01*
X183924748Y-119618982D01*
X183961058Y-119738680D01*
X184020023Y-119848994D01*
X184099375Y-119945685D01*
X184112465Y-119956428D01*
X183600560Y-119956428D01*
X183476078Y-119968688D01*
X183356380Y-120004998D01*
X183246066Y-120063963D01*
X183149375Y-120143315D01*
X183070023Y-120240006D01*
X183046240Y-120284500D01*
X182873589Y-120284500D01*
X182779792Y-120170208D01*
X182646164Y-120060542D01*
X182493709Y-119979053D01*
X182328285Y-119928872D01*
X182156250Y-119911928D01*
X181243750Y-119911928D01*
X181071715Y-119928872D01*
X180906291Y-119979053D01*
X180753836Y-120060542D01*
X180620208Y-120170208D01*
X180510542Y-120303836D01*
X180429053Y-120456291D01*
X180378872Y-120621715D01*
X180361928Y-120793750D01*
X180361928Y-121281250D01*
X180378872Y-121453285D01*
X180429053Y-121618709D01*
X180510542Y-121771164D01*
X180620208Y-121904792D01*
X180705756Y-121975000D01*
X180620208Y-122045208D01*
X180510542Y-122178836D01*
X180429053Y-122331291D01*
X180378872Y-122496715D01*
X180361928Y-122668750D01*
X180361928Y-122990000D01*
X175978711Y-122990000D01*
X175964257Y-122975546D01*
X176086009Y-122853794D01*
X176115001Y-122830001D01*
X176138795Y-122801008D01*
X176138799Y-122801004D01*
X176209973Y-122714277D01*
X176209974Y-122714276D01*
X176280546Y-122582247D01*
X176324003Y-122438986D01*
X176335000Y-122327333D01*
X176335000Y-122327324D01*
X176338676Y-122290001D01*
X176335000Y-122252678D01*
X176335000Y-121422668D01*
X176474950Y-121436452D01*
X176962450Y-121436452D01*
X177134485Y-121419508D01*
X177299909Y-121369327D01*
X177452364Y-121287838D01*
X177585992Y-121178172D01*
X177591208Y-121171816D01*
X177655015Y-121249565D01*
X177751706Y-121328917D01*
X177862020Y-121387882D01*
X177981718Y-121424192D01*
X178106200Y-121436452D01*
X178307950Y-121433380D01*
X178466700Y-121274630D01*
X178466700Y-120225380D01*
X178720700Y-120225380D01*
X178720700Y-121274630D01*
X178879450Y-121433380D01*
X179081200Y-121436452D01*
X179205682Y-121424192D01*
X179325380Y-121387882D01*
X179435694Y-121328917D01*
X179532385Y-121249565D01*
X179611737Y-121152874D01*
X179670702Y-121042560D01*
X179707012Y-120922862D01*
X179719272Y-120798380D01*
X179716200Y-120384130D01*
X179557450Y-120225380D01*
X178720700Y-120225380D01*
X178466700Y-120225380D01*
X178446700Y-120225380D01*
X178446700Y-119971380D01*
X178466700Y-119971380D01*
X178466700Y-118922130D01*
X178720700Y-118922130D01*
X178720700Y-119971380D01*
X179557450Y-119971380D01*
X179716200Y-119812630D01*
X179719272Y-119398380D01*
X179708677Y-119290804D01*
X179745098Y-119301852D01*
X179869580Y-119314112D01*
X180283830Y-119311040D01*
X180442580Y-119152290D01*
X180442580Y-118315540D01*
X180696580Y-118315540D01*
X180696580Y-119152290D01*
X180855330Y-119311040D01*
X181269580Y-119314112D01*
X181394062Y-119301852D01*
X181513760Y-119265542D01*
X181624074Y-119206577D01*
X181720765Y-119127225D01*
X181800117Y-119030534D01*
X181859082Y-118920220D01*
X181895392Y-118800522D01*
X181907652Y-118676040D01*
X181904580Y-118474290D01*
X181745830Y-118315540D01*
X180696580Y-118315540D01*
X180442580Y-118315540D01*
X179393330Y-118315540D01*
X179234580Y-118474290D01*
X179231508Y-118676040D01*
X179242103Y-118783616D01*
X179205682Y-118772568D01*
X179081200Y-118760308D01*
X178879450Y-118763380D01*
X178720700Y-118922130D01*
X178466700Y-118922130D01*
X178307950Y-118763380D01*
X178106200Y-118760308D01*
X177981718Y-118772568D01*
X177862020Y-118808878D01*
X177751706Y-118867843D01*
X177655015Y-118947195D01*
X177591208Y-119024944D01*
X177585992Y-119018588D01*
X177478700Y-118930535D01*
X177478700Y-118205961D01*
X177479494Y-118205537D01*
X177576185Y-118126185D01*
X177655537Y-118029494D01*
X177714502Y-117919180D01*
X177750812Y-117799482D01*
X177763072Y-117675000D01*
X177763072Y-117163095D01*
X177773815Y-117176185D01*
X177870506Y-117255537D01*
X177980820Y-117314502D01*
X178100518Y-117350812D01*
X178225000Y-117363072D01*
X179125000Y-117363072D01*
X179249482Y-117350812D01*
X179364068Y-117316053D01*
X179339043Y-117346546D01*
X179280078Y-117456860D01*
X179243768Y-117576558D01*
X179231508Y-117701040D01*
X179234580Y-117902790D01*
X179393330Y-118061540D01*
X180442580Y-118061540D01*
X180442580Y-118041540D01*
X180696580Y-118041540D01*
X180696580Y-118061540D01*
X181745830Y-118061540D01*
X181904580Y-117902790D01*
X181907652Y-117701040D01*
X181895392Y-117576558D01*
X181859082Y-117456860D01*
X181800117Y-117346546D01*
X181720765Y-117249855D01*
X181643016Y-117186048D01*
X181649372Y-117180832D01*
X181759038Y-117047204D01*
X181840527Y-116894749D01*
X181890708Y-116729325D01*
X181907652Y-116557290D01*
X181907652Y-116069790D01*
X181890708Y-115897755D01*
X181840527Y-115732331D01*
X181759038Y-115579876D01*
X181649372Y-115446248D01*
X181515744Y-115336582D01*
X181363289Y-115255093D01*
X181197865Y-115204912D01*
X181025830Y-115187968D01*
X180113330Y-115187968D01*
X179941295Y-115204912D01*
X179775871Y-115255093D01*
X179623416Y-115336582D01*
X179516191Y-115424579D01*
X179479494Y-115394463D01*
X179457280Y-115382589D01*
X179457280Y-113866693D01*
X179460957Y-113829360D01*
X179446283Y-113680374D01*
X179402826Y-113537113D01*
X179332254Y-113405084D01*
X179237281Y-113289359D01*
X179121556Y-113194386D01*
X178989527Y-113123814D01*
X178846266Y-113080357D01*
X178734613Y-113069360D01*
X178697280Y-113065683D01*
X178659947Y-113069360D01*
X173883907Y-113069360D01*
X173860892Y-113053982D01*
X173750575Y-112995016D01*
X173660019Y-112957507D01*
X173540323Y-112921198D01*
X173444190Y-112902076D01*
X173319709Y-112889816D01*
X173295150Y-112889816D01*
X173270700Y-112887408D01*
X172770700Y-112887408D01*
X172746250Y-112889816D01*
X172721691Y-112889816D01*
X172714949Y-112890480D01*
X160030271Y-112890480D01*
X159974519Y-112884989D01*
X159918768Y-112890480D01*
X159752021Y-112906903D01*
X159538073Y-112971804D01*
X159340897Y-113077196D01*
X159168071Y-113219031D01*
X159132529Y-113262339D01*
X156636860Y-115758009D01*
X156593552Y-115793551D01*
X156451717Y-115966377D01*
X156422257Y-116021493D01*
X156346324Y-116163554D01*
X156281423Y-116377502D01*
X156259509Y-116600000D01*
X156265001Y-116655761D01*
X156265000Y-118242182D01*
X156159294Y-118370986D01*
X156145538Y-118396722D01*
X155989049Y-118190571D01*
X155771193Y-117997504D01*
X155519858Y-117850648D01*
X155256890Y-117758524D01*
X155027000Y-117879845D01*
X155027000Y-119198000D01*
X155047000Y-119198000D01*
X155047000Y-119452000D01*
X155027000Y-119452000D01*
X155027000Y-120770155D01*
X155256890Y-120891476D01*
X155519858Y-120799352D01*
X155771193Y-120652496D01*
X155989049Y-120459429D01*
X156145538Y-120253278D01*
X156159294Y-120279013D01*
X156344866Y-120505134D01*
X156570986Y-120690706D01*
X156828966Y-120828599D01*
X157108889Y-120913513D01*
X157400000Y-120942185D01*
X157691110Y-120913513D01*
X157971033Y-120828599D01*
X158229013Y-120690706D01*
X158455134Y-120505134D01*
X158640706Y-120279014D01*
X158650000Y-120261626D01*
X158659294Y-120279013D01*
X158844866Y-120505134D01*
X159070986Y-120690706D01*
X159328966Y-120828599D01*
X159608889Y-120913513D01*
X159900000Y-120942185D01*
X160191110Y-120913513D01*
X160471033Y-120828599D01*
X160729013Y-120690706D01*
X160955134Y-120505134D01*
X161007223Y-120441663D01*
X161061595Y-120543386D01*
X161172038Y-120677962D01*
X161306614Y-120788405D01*
X161460150Y-120870472D01*
X161626746Y-120921008D01*
X161800000Y-120938072D01*
X163000000Y-120938072D01*
X163173254Y-120921008D01*
X163339850Y-120870472D01*
X163493386Y-120788405D01*
X163627962Y-120677962D01*
X163738405Y-120543386D01*
X163820472Y-120389850D01*
X163871008Y-120223254D01*
X163888072Y-120050000D01*
X163888072Y-118600000D01*
X163871008Y-118426746D01*
X163820472Y-118260150D01*
X163738405Y-118106614D01*
X163627962Y-117972038D01*
X163493386Y-117861595D01*
X163339850Y-117779528D01*
X163173254Y-117728992D01*
X163000000Y-117711928D01*
X161800000Y-117711928D01*
X161626746Y-117728992D01*
X161460150Y-117779528D01*
X161306614Y-117861595D01*
X161172038Y-117972038D01*
X161061595Y-118106614D01*
X161007223Y-118208337D01*
X160955134Y-118144866D01*
X160729014Y-117959294D01*
X160471034Y-117821401D01*
X160191111Y-117736487D01*
X159900000Y-117707815D01*
X159608890Y-117736487D01*
X159328967Y-117821401D01*
X159070987Y-117959294D01*
X158844866Y-118144866D01*
X158659294Y-118370986D01*
X158650000Y-118388374D01*
X158640706Y-118370986D01*
X158535000Y-118242183D01*
X158535000Y-117070131D01*
X160444652Y-115160480D01*
X171632628Y-115160480D01*
X171632628Y-115325480D01*
X171635036Y-115349930D01*
X171635036Y-115374489D01*
X171647296Y-115498970D01*
X171666418Y-115595103D01*
X171702727Y-115714799D01*
X171740236Y-115805355D01*
X171799202Y-115915672D01*
X171853658Y-115997171D01*
X171933010Y-116093862D01*
X172002318Y-116163170D01*
X172099009Y-116242522D01*
X172180508Y-116296978D01*
X172290825Y-116355944D01*
X172381381Y-116393453D01*
X172501077Y-116429762D01*
X172597210Y-116448884D01*
X172721691Y-116461144D01*
X172746250Y-116461144D01*
X172770700Y-116463552D01*
X173083971Y-116463552D01*
X174395160Y-117774742D01*
X174418959Y-117803741D01*
X174447957Y-117827539D01*
X174534684Y-117898714D01*
X174666713Y-117969286D01*
X174809974Y-118012743D01*
X174958960Y-118027417D01*
X174996293Y-118023740D01*
X175691387Y-118023740D01*
X175694463Y-118029494D01*
X175773815Y-118126185D01*
X175870506Y-118205537D01*
X175958701Y-118252679D01*
X175958700Y-118930535D01*
X175851408Y-119018588D01*
X175794180Y-119088320D01*
X175676939Y-119065000D01*
X175473061Y-119065000D01*
X175273102Y-119104774D01*
X175084744Y-119182795D01*
X174915226Y-119296063D01*
X174771063Y-119440226D01*
X174657795Y-119609744D01*
X174579774Y-119798102D01*
X174540000Y-119998061D01*
X174540000Y-120201939D01*
X174579774Y-120401898D01*
X174657795Y-120590256D01*
X174771063Y-120759774D01*
X174815001Y-120803712D01*
X174815000Y-121975197D01*
X174097200Y-122692998D01*
X174001252Y-122692998D01*
X174160000Y-122534250D01*
X174163072Y-122450000D01*
X174150812Y-122325518D01*
X174114502Y-122205820D01*
X174103373Y-122185000D01*
X174114502Y-122164180D01*
X174150812Y-122044482D01*
X174163072Y-121920000D01*
X174160000Y-121835750D01*
X174001250Y-121677000D01*
X172452000Y-121677000D01*
X172452000Y-122693000D01*
X172472000Y-122693000D01*
X172472000Y-122947000D01*
X172452000Y-122947000D01*
X172452000Y-122967000D01*
X172198000Y-122967000D01*
X172198000Y-122947000D01*
X170648750Y-122947000D01*
X170490000Y-123105750D01*
X170486928Y-123190000D01*
X170499188Y-123314482D01*
X170535498Y-123434180D01*
X170546627Y-123455000D01*
X170535498Y-123475820D01*
X170499188Y-123595518D01*
X170486928Y-123720000D01*
X170486928Y-124460000D01*
X170499188Y-124584482D01*
X170535498Y-124704180D01*
X170594463Y-124814494D01*
X170673815Y-124911185D01*
X170770506Y-124990537D01*
X170880820Y-125049502D01*
X171000518Y-125085812D01*
X171125000Y-125098072D01*
X171670674Y-125098072D01*
X171690026Y-125134276D01*
X171708235Y-125156463D01*
X171785000Y-125250001D01*
X171813998Y-125273799D01*
X172540000Y-125999802D01*
X172540001Y-127477687D01*
X172526746Y-127478992D01*
X172360150Y-127529528D01*
X172206614Y-127611595D01*
X172072038Y-127722038D01*
X171961595Y-127856614D01*
X171879528Y-128010150D01*
X171828992Y-128176746D01*
X171811928Y-128350000D01*
X171811928Y-129800000D01*
X171828992Y-129973254D01*
X171879528Y-130139850D01*
X171961595Y-130293386D01*
X172072038Y-130427962D01*
X172206614Y-130538405D01*
X172360150Y-130620472D01*
X172526746Y-130671008D01*
X172540000Y-130672313D01*
X172540001Y-134602687D01*
X172526746Y-134603992D01*
X172360150Y-134654528D01*
X172206614Y-134736595D01*
X172072038Y-134847038D01*
X171961595Y-134981614D01*
X171879528Y-135135150D01*
X171828992Y-135301746D01*
X171811928Y-135475000D01*
X171811928Y-136925000D01*
X171828992Y-137098254D01*
X171879528Y-137264850D01*
X171925096Y-137350102D01*
X169128115Y-140147084D01*
X169025000Y-140136928D01*
X168625000Y-140136928D01*
X168500518Y-140149188D01*
X168380820Y-140185498D01*
X168350000Y-140201972D01*
X168319180Y-140185498D01*
X168199482Y-140149188D01*
X168075000Y-140136928D01*
X167675000Y-140136928D01*
X167550518Y-140149188D01*
X167430820Y-140185498D01*
X167320506Y-140244463D01*
X167234556Y-140315000D01*
X161689802Y-140315000D01*
X160460981Y-139086179D01*
X160691111Y-139063513D01*
X160971034Y-138978599D01*
X161229014Y-138840706D01*
X161455134Y-138655134D01*
X161640706Y-138429014D01*
X161654462Y-138403278D01*
X161810951Y-138609429D01*
X162028807Y-138802496D01*
X162280142Y-138949352D01*
X162543110Y-139041476D01*
X162773000Y-138920155D01*
X162773000Y-137602000D01*
X163027000Y-137602000D01*
X163027000Y-138920155D01*
X163256890Y-139041476D01*
X163519858Y-138949352D01*
X163771193Y-138802496D01*
X163989049Y-138609429D01*
X164165053Y-138377570D01*
X164292442Y-138115830D01*
X164366320Y-137834267D01*
X164226165Y-137602000D01*
X163027000Y-137602000D01*
X162773000Y-137602000D01*
X162753000Y-137602000D01*
X162753000Y-137348000D01*
X162773000Y-137348000D01*
X162773000Y-136029845D01*
X163027000Y-136029845D01*
X163027000Y-137348000D01*
X164226165Y-137348000D01*
X164366320Y-137115733D01*
X164292442Y-136834170D01*
X164165053Y-136572430D01*
X163989049Y-136340571D01*
X163771193Y-136147504D01*
X163519858Y-136000648D01*
X163256890Y-135908524D01*
X163027000Y-136029845D01*
X162773000Y-136029845D01*
X162543110Y-135908524D01*
X162280142Y-136000648D01*
X162028807Y-136147504D01*
X161810951Y-136340571D01*
X161654462Y-136546722D01*
X161640706Y-136520986D01*
X161455134Y-136294866D01*
X161229013Y-136109294D01*
X160971033Y-135971401D01*
X160691110Y-135886487D01*
X160400000Y-135857815D01*
X160108889Y-135886487D01*
X159828966Y-135971401D01*
X159570986Y-136109294D01*
X159344866Y-136294866D01*
X159159294Y-136520987D01*
X159150000Y-136538374D01*
X159140706Y-136520986D01*
X158955134Y-136294866D01*
X158729013Y-136109294D01*
X158471033Y-135971401D01*
X158191110Y-135886487D01*
X157900000Y-135857815D01*
X157608889Y-135886487D01*
X157328966Y-135971401D01*
X157070986Y-136109294D01*
X156844866Y-136294866D01*
X156792777Y-136358337D01*
X156738405Y-136256614D01*
X156627962Y-136122038D01*
X156493386Y-136011595D01*
X156339850Y-135929528D01*
X156173254Y-135878992D01*
X156000000Y-135861928D01*
X154800000Y-135861928D01*
X154626746Y-135878992D01*
X154460150Y-135929528D01*
X154306614Y-136011595D01*
X154172038Y-136122038D01*
X154061595Y-136256614D01*
X153979528Y-136410150D01*
X153928992Y-136576746D01*
X153915375Y-136715000D01*
X152385010Y-136715000D01*
X152385010Y-133144814D01*
X152426209Y-133186013D01*
X152450008Y-133215012D01*
X152479006Y-133238810D01*
X152565732Y-133309985D01*
X152697762Y-133380557D01*
X152841023Y-133424014D01*
X152952676Y-133435011D01*
X152952685Y-133435011D01*
X152990008Y-133438687D01*
X153027331Y-133435011D01*
X162585487Y-133435011D01*
X162622809Y-133438687D01*
X162660131Y-133435011D01*
X162660142Y-133435011D01*
X162771795Y-133424014D01*
X162915056Y-133380557D01*
X163047085Y-133309985D01*
X163162810Y-133215012D01*
X163186613Y-133186008D01*
X165686022Y-130686600D01*
X165715020Y-130662802D01*
X165764969Y-130601939D01*
X165809993Y-130547078D01*
X165880565Y-130415048D01*
X165924022Y-130271787D01*
X165935019Y-130160134D01*
X165935019Y-130160124D01*
X165938695Y-130122801D01*
X165935019Y-130085479D01*
X165935019Y-126204782D01*
X167064819Y-125074983D01*
X167100518Y-125085812D01*
X167225000Y-125098072D01*
X169625000Y-125098072D01*
X169749482Y-125085812D01*
X169869180Y-125049502D01*
X169979494Y-124990537D01*
X170076185Y-124911185D01*
X170155537Y-124814494D01*
X170214502Y-124704180D01*
X170250812Y-124584482D01*
X170263072Y-124460000D01*
X170263072Y-123720000D01*
X170250812Y-123595518D01*
X170214502Y-123475820D01*
X170203373Y-123455000D01*
X170214502Y-123434180D01*
X170250812Y-123314482D01*
X170263072Y-123190000D01*
X170263072Y-122450000D01*
X170250812Y-122325518D01*
X170214502Y-122205820D01*
X170203373Y-122185000D01*
X170214502Y-122164180D01*
X170250812Y-122044482D01*
X170263072Y-121920000D01*
X170486928Y-121920000D01*
X170499188Y-122044482D01*
X170535498Y-122164180D01*
X170546627Y-122185000D01*
X170535498Y-122205820D01*
X170499188Y-122325518D01*
X170486928Y-122450000D01*
X170490000Y-122534250D01*
X170648750Y-122693000D01*
X172198000Y-122693000D01*
X172198000Y-121677000D01*
X170648750Y-121677000D01*
X170490000Y-121835750D01*
X170486928Y-121920000D01*
X170263072Y-121920000D01*
X170263072Y-121180000D01*
X170250812Y-121055518D01*
X170214502Y-120935820D01*
X170203373Y-120915000D01*
X170214502Y-120894180D01*
X170250812Y-120774482D01*
X170263072Y-120650000D01*
X170263072Y-119910000D01*
X170250812Y-119785518D01*
X170214502Y-119665820D01*
X170203373Y-119645000D01*
X170214502Y-119624180D01*
X170250812Y-119504482D01*
X170263072Y-119380000D01*
X170263072Y-118640000D01*
X170486928Y-118640000D01*
X170486928Y-119380000D01*
X170499188Y-119504482D01*
X170535498Y-119624180D01*
X170546627Y-119645000D01*
X170535498Y-119665820D01*
X170499188Y-119785518D01*
X170486928Y-119910000D01*
X170486928Y-120650000D01*
X170499188Y-120774482D01*
X170535498Y-120894180D01*
X170546627Y-120915000D01*
X170535498Y-120935820D01*
X170499188Y-121055518D01*
X170486928Y-121180000D01*
X170490000Y-121264250D01*
X170648750Y-121423000D01*
X172198000Y-121423000D01*
X172198000Y-121403000D01*
X172452000Y-121403000D01*
X172452000Y-121423000D01*
X174001250Y-121423000D01*
X174160000Y-121264250D01*
X174163072Y-121180000D01*
X174150812Y-121055518D01*
X174114502Y-120935820D01*
X174103373Y-120915000D01*
X174114502Y-120894180D01*
X174150812Y-120774482D01*
X174163072Y-120650000D01*
X174163072Y-119910000D01*
X174150812Y-119785518D01*
X174114502Y-119665820D01*
X174103373Y-119645000D01*
X174114502Y-119624180D01*
X174150812Y-119504482D01*
X174163072Y-119380000D01*
X174163072Y-118640000D01*
X174150812Y-118515518D01*
X174114502Y-118395820D01*
X174055537Y-118285506D01*
X173976185Y-118188815D01*
X173879494Y-118109463D01*
X173769180Y-118050498D01*
X173649482Y-118014188D01*
X173525000Y-118001928D01*
X171125000Y-118001928D01*
X171000518Y-118014188D01*
X170880820Y-118050498D01*
X170770506Y-118109463D01*
X170673815Y-118188815D01*
X170594463Y-118285506D01*
X170535498Y-118395820D01*
X170499188Y-118515518D01*
X170486928Y-118640000D01*
X170263072Y-118640000D01*
X170250812Y-118515518D01*
X170214502Y-118395820D01*
X170155537Y-118285506D01*
X170076185Y-118188815D01*
X169979494Y-118109463D01*
X169869180Y-118050498D01*
X169749482Y-118014188D01*
X169625000Y-118001928D01*
X167225000Y-118001928D01*
X167100518Y-118014188D01*
X166980820Y-118050498D01*
X166870506Y-118109463D01*
X166773815Y-118188815D01*
X166694463Y-118285506D01*
X166635498Y-118395820D01*
X166599188Y-118515518D01*
X166586928Y-118640000D01*
X166586928Y-118888268D01*
X163738094Y-121737103D01*
X163708190Y-121761813D01*
X163661739Y-121818802D01*
X163615026Y-121875722D01*
X163614418Y-121876860D01*
X163613606Y-121877856D01*
X163579214Y-121942721D01*
X163544454Y-122007752D01*
X163544080Y-122008986D01*
X163543478Y-122010121D01*
X163522367Y-122080567D01*
X163500998Y-122151013D01*
X163500872Y-122152292D01*
X163500502Y-122153527D01*
X163493533Y-122226803D01*
X163486324Y-122299998D01*
X163490126Y-122338602D01*
X163500649Y-125474553D01*
X163326939Y-125440000D01*
X163123061Y-125440000D01*
X162923102Y-125479774D01*
X162734744Y-125557795D01*
X162565226Y-125671063D01*
X162521289Y-125715000D01*
X160788072Y-125715000D01*
X160788072Y-125600000D01*
X160775812Y-125475518D01*
X160739502Y-125355820D01*
X160680537Y-125245506D01*
X160601185Y-125148815D01*
X160504494Y-125069463D01*
X160394180Y-125010498D01*
X160274482Y-124974188D01*
X160150000Y-124961928D01*
X158700000Y-124961928D01*
X158575518Y-124974188D01*
X158455820Y-125010498D01*
X158345506Y-125069463D01*
X158279870Y-125123329D01*
X157053004Y-123896463D01*
X157029201Y-123867459D01*
X156913476Y-123772486D01*
X156781447Y-123701914D01*
X156638186Y-123658457D01*
X156526533Y-123647460D01*
X156526522Y-123647460D01*
X156489200Y-123643784D01*
X156451878Y-123647460D01*
X149877726Y-123647460D01*
X149866404Y-123620125D01*
X149807438Y-123509808D01*
X149752982Y-123428309D01*
X149673630Y-123331618D01*
X149604322Y-123262310D01*
X149507631Y-123182958D01*
X149426132Y-123128502D01*
X149315815Y-123069536D01*
X149225259Y-123032027D01*
X149105563Y-122995718D01*
X149009430Y-122976596D01*
X148884949Y-122964336D01*
X148860390Y-122964336D01*
X148835940Y-122961928D01*
X148335940Y-122961928D01*
X148211458Y-122974188D01*
X148091760Y-123010498D01*
X147981446Y-123069463D01*
X147884755Y-123148815D01*
X147805403Y-123245506D01*
X147746438Y-123355820D01*
X147710128Y-123475518D01*
X147697868Y-123600000D01*
X147697868Y-125100000D01*
X147710128Y-125224482D01*
X147746438Y-125344180D01*
X147805403Y-125454494D01*
X147884755Y-125551185D01*
X147981446Y-125630537D01*
X148000823Y-125640894D01*
X147994146Y-125644463D01*
X147897455Y-125723815D01*
X147818103Y-125820506D01*
X147759138Y-125930820D01*
X147722828Y-126050518D01*
X147710568Y-126175000D01*
X147710568Y-127675000D01*
X147722828Y-127799482D01*
X147759138Y-127919180D01*
X147818103Y-128029494D01*
X147897455Y-128126185D01*
X147994146Y-128205537D01*
X148007173Y-128212500D01*
X147994146Y-128219463D01*
X147897455Y-128298815D01*
X147818103Y-128395506D01*
X147759138Y-128505820D01*
X147722828Y-128625518D01*
X147710568Y-128750000D01*
X147710568Y-130250000D01*
X147722828Y-130374482D01*
X147759138Y-130494180D01*
X147818103Y-130604494D01*
X147897455Y-130701185D01*
X147994146Y-130780537D01*
X148007173Y-130787500D01*
X147994146Y-130794463D01*
X147897455Y-130873815D01*
X147818103Y-130970506D01*
X147759138Y-131080820D01*
X147722828Y-131200518D01*
X147710568Y-131325000D01*
X147710568Y-132825000D01*
X147722828Y-132949482D01*
X147759138Y-133069180D01*
X147818103Y-133179494D01*
X147897455Y-133276185D01*
X147994146Y-133355537D01*
X148104460Y-133414502D01*
X148224158Y-133450812D01*
X148348640Y-133463072D01*
X148848640Y-133463072D01*
X148873090Y-133460664D01*
X148897649Y-133460664D01*
X149022130Y-133448404D01*
X149118263Y-133429282D01*
X149237959Y-133392973D01*
X149328515Y-133355464D01*
X149438832Y-133296498D01*
X149520331Y-133242042D01*
X149617022Y-133162690D01*
X149686330Y-133093382D01*
X149765682Y-132996691D01*
X149820138Y-132915192D01*
X149879104Y-132804875D01*
X149916613Y-132714319D01*
X149952922Y-132594623D01*
X149972044Y-132498490D01*
X149984304Y-132374009D01*
X149984304Y-132349450D01*
X149986712Y-132325000D01*
X149986712Y-131921009D01*
X150415000Y-131492722D01*
X150415001Y-138437668D01*
X150411324Y-138475000D01*
X150415001Y-138512333D01*
X150425998Y-138623986D01*
X150439180Y-138667442D01*
X150469454Y-138767246D01*
X150540026Y-138899276D01*
X150611201Y-138986002D01*
X150635000Y-139015001D01*
X150663998Y-139038799D01*
X153236201Y-141611003D01*
X153259999Y-141640001D01*
X153288997Y-141663799D01*
X153375724Y-141734974D01*
X153507753Y-141805546D01*
X153651014Y-141849003D01*
X153800000Y-141863677D01*
X153837333Y-141860000D01*
X157862667Y-141860000D01*
X157900000Y-141863677D01*
X157937333Y-141860000D01*
X158048986Y-141849003D01*
X158192247Y-141805546D01*
X158324276Y-141734974D01*
X158440001Y-141640001D01*
X158534974Y-141524276D01*
X158605546Y-141392247D01*
X158649003Y-141248986D01*
X158663677Y-141100000D01*
X158660000Y-141062667D01*
X158660000Y-139434801D01*
X160811201Y-141586003D01*
X160834999Y-141615001D01*
X160863997Y-141638799D01*
X160950723Y-141709974D01*
X161072377Y-141775000D01*
X161082753Y-141780546D01*
X161226014Y-141824003D01*
X161337667Y-141835000D01*
X161337676Y-141835000D01*
X161374999Y-141838676D01*
X161412322Y-141835000D01*
X167010750Y-141835000D01*
X167073750Y-141898000D01*
X167311322Y-141898000D01*
X167320506Y-141905537D01*
X167430820Y-141964502D01*
X167550518Y-142000812D01*
X167675000Y-142013072D01*
X168075000Y-142013072D01*
X168199482Y-142000812D01*
X168319180Y-141964502D01*
X168350000Y-141948028D01*
X168380820Y-141964502D01*
X168500518Y-142000812D01*
X168625000Y-142013072D01*
X169025000Y-142013072D01*
X169149482Y-142000812D01*
X169269180Y-141964502D01*
X169379494Y-141905537D01*
X169388678Y-141898000D01*
X169626250Y-141898000D01*
X169785000Y-141739250D01*
X169788072Y-141675000D01*
X169784619Y-141639935D01*
X169815001Y-141615001D01*
X169838804Y-141585997D01*
X173611730Y-137813072D01*
X173900000Y-137813072D01*
X174073254Y-137796008D01*
X174239850Y-137745472D01*
X174393386Y-137663405D01*
X174527962Y-137552962D01*
X174638405Y-137418386D01*
X174692777Y-137316663D01*
X174744866Y-137380134D01*
X174970987Y-137565706D01*
X175228967Y-137703599D01*
X175508890Y-137788513D01*
X175800000Y-137817185D01*
X176091111Y-137788513D01*
X176371034Y-137703599D01*
X176629014Y-137565706D01*
X176855134Y-137380134D01*
X177040706Y-137154014D01*
X177054462Y-137128278D01*
X177210951Y-137334429D01*
X177428807Y-137527496D01*
X177680142Y-137674352D01*
X177943110Y-137766476D01*
X178173000Y-137645155D01*
X178173000Y-136327000D01*
X178427000Y-136327000D01*
X178427000Y-137645155D01*
X178656890Y-137766476D01*
X178919858Y-137674352D01*
X179171193Y-137527496D01*
X179389049Y-137334429D01*
X179565053Y-137102570D01*
X179692442Y-136840830D01*
X179766320Y-136559267D01*
X179626165Y-136327000D01*
X178427000Y-136327000D01*
X178173000Y-136327000D01*
X178153000Y-136327000D01*
X178153000Y-136233380D01*
X185295668Y-136233380D01*
X185307928Y-136357862D01*
X185344238Y-136477560D01*
X185403203Y-136587874D01*
X185482555Y-136684565D01*
X185579246Y-136763917D01*
X185689560Y-136822882D01*
X185809258Y-136859192D01*
X185933740Y-136871452D01*
X186047990Y-136868380D01*
X186206740Y-136709630D01*
X186206740Y-135910380D01*
X185457490Y-135910380D01*
X185298740Y-136069130D01*
X185295668Y-136233380D01*
X178153000Y-136233380D01*
X178153000Y-136073000D01*
X178173000Y-136073000D01*
X178173000Y-134754845D01*
X178427000Y-134754845D01*
X178427000Y-136073000D01*
X179626165Y-136073000D01*
X179766320Y-135840733D01*
X179692442Y-135559170D01*
X179565053Y-135297430D01*
X179389049Y-135065571D01*
X179171193Y-134872504D01*
X178919858Y-134725648D01*
X178656890Y-134633524D01*
X178427000Y-134754845D01*
X178173000Y-134754845D01*
X177943110Y-134633524D01*
X177680142Y-134725648D01*
X177428807Y-134872504D01*
X177210951Y-135065571D01*
X177054462Y-135271722D01*
X177040706Y-135245986D01*
X176855134Y-135019866D01*
X176629013Y-134834294D01*
X176560000Y-134797406D01*
X176560000Y-132003711D01*
X176603937Y-131959774D01*
X176717205Y-131790256D01*
X176795226Y-131601898D01*
X176835000Y-131401939D01*
X176835000Y-131198061D01*
X176795226Y-130998102D01*
X176717205Y-130809744D01*
X176603937Y-130640226D01*
X176482650Y-130518939D01*
X176629014Y-130440706D01*
X176855134Y-130255134D01*
X177040706Y-130029014D01*
X177054462Y-130003278D01*
X177210951Y-130209429D01*
X177428807Y-130402496D01*
X177680142Y-130549352D01*
X177943110Y-130641476D01*
X178173000Y-130520155D01*
X178173000Y-129202000D01*
X178427000Y-129202000D01*
X178427000Y-130520155D01*
X178656890Y-130641476D01*
X178919858Y-130549352D01*
X179171193Y-130402496D01*
X179389049Y-130209429D01*
X179565053Y-129977570D01*
X179692442Y-129715830D01*
X179766320Y-129434267D01*
X179626165Y-129202000D01*
X178427000Y-129202000D01*
X178173000Y-129202000D01*
X178153000Y-129202000D01*
X178153000Y-128948000D01*
X178173000Y-128948000D01*
X178173000Y-127629845D01*
X178427000Y-127629845D01*
X178427000Y-128948000D01*
X179626165Y-128948000D01*
X179766320Y-128715733D01*
X179692442Y-128434170D01*
X179565053Y-128172430D01*
X179389049Y-127940571D01*
X179171193Y-127747504D01*
X178919858Y-127600648D01*
X178656890Y-127508524D01*
X178427000Y-127629845D01*
X178173000Y-127629845D01*
X177943110Y-127508524D01*
X177680142Y-127600648D01*
X177428807Y-127747504D01*
X177210951Y-127940571D01*
X177054462Y-128146722D01*
X177040706Y-128120986D01*
X176855134Y-127894866D01*
X176629013Y-127709294D01*
X176560000Y-127672406D01*
X176560000Y-126112323D01*
X176563676Y-126075000D01*
X176560000Y-126037677D01*
X176560000Y-126037667D01*
X176549003Y-125926014D01*
X176505546Y-125782753D01*
X176434974Y-125650724D01*
X176340001Y-125534999D01*
X176311002Y-125511201D01*
X176110000Y-125310198D01*
X176110000Y-125248061D01*
X176070226Y-125048102D01*
X175992205Y-124859744D01*
X175878937Y-124690226D01*
X175819603Y-124630892D01*
X175934774Y-124553937D01*
X175978711Y-124510000D01*
X180825178Y-124510000D01*
X180862500Y-124513676D01*
X180899822Y-124510000D01*
X180899833Y-124510000D01*
X181011486Y-124499003D01*
X181154747Y-124455546D01*
X181286776Y-124384974D01*
X181402501Y-124290001D01*
X181426303Y-124260998D01*
X181649229Y-124038072D01*
X182156250Y-124038072D01*
X182328285Y-124021128D01*
X182493709Y-123970947D01*
X182646164Y-123889458D01*
X182779792Y-123779792D01*
X182889458Y-123646164D01*
X182939061Y-123553363D01*
X184390000Y-123553363D01*
X184390000Y-123796637D01*
X184437460Y-124035236D01*
X184530557Y-124259992D01*
X184665713Y-124462267D01*
X184837733Y-124634287D01*
X185040008Y-124769443D01*
X185264764Y-124862540D01*
X185503363Y-124910000D01*
X185746637Y-124910000D01*
X185985236Y-124862540D01*
X185989301Y-124860856D01*
X185990000Y-124989250D01*
X186148750Y-125148000D01*
X187498000Y-125148000D01*
X187498000Y-123948750D01*
X187339250Y-123790000D01*
X186860000Y-123787939D01*
X186860000Y-123553363D01*
X186812540Y-123314764D01*
X186719443Y-123090008D01*
X186584287Y-122887733D01*
X186412267Y-122715713D01*
X186209992Y-122580557D01*
X185985236Y-122487460D01*
X185746637Y-122440000D01*
X185503363Y-122440000D01*
X185264764Y-122487460D01*
X185040008Y-122580557D01*
X184837733Y-122715713D01*
X184665713Y-122887733D01*
X184530557Y-123090008D01*
X184437460Y-123314764D01*
X184390000Y-123553363D01*
X182939061Y-123553363D01*
X182970947Y-123493709D01*
X183021128Y-123328285D01*
X183038072Y-123156250D01*
X183038072Y-122668750D01*
X183021128Y-122496715D01*
X182970947Y-122331291D01*
X182889458Y-122178836D01*
X182779792Y-122045208D01*
X182694244Y-121975000D01*
X182779792Y-121904792D01*
X182862100Y-121804500D01*
X183046240Y-121804500D01*
X183070023Y-121848994D01*
X183149375Y-121945685D01*
X183246066Y-122025037D01*
X183356380Y-122084002D01*
X183476078Y-122120312D01*
X183600560Y-122132572D01*
X184400560Y-122132572D01*
X184525042Y-122120312D01*
X184644740Y-122084002D01*
X184755054Y-122025037D01*
X184851745Y-121945685D01*
X184931097Y-121848994D01*
X184950560Y-121812582D01*
X184970023Y-121848994D01*
X185049375Y-121945685D01*
X185146066Y-122025037D01*
X185256380Y-122084002D01*
X185376078Y-122120312D01*
X185500560Y-122132572D01*
X185614810Y-122129500D01*
X185773560Y-121970750D01*
X185773560Y-121171500D01*
X186027560Y-121171500D01*
X186027560Y-121970750D01*
X186186310Y-122129500D01*
X186300560Y-122132572D01*
X186425042Y-122120312D01*
X186544740Y-122084002D01*
X186655054Y-122025037D01*
X186751745Y-121945685D01*
X186831097Y-121848994D01*
X186890062Y-121738680D01*
X186926372Y-121618982D01*
X186938632Y-121494500D01*
X186935560Y-121330250D01*
X186776810Y-121171500D01*
X186027560Y-121171500D01*
X185773560Y-121171500D01*
X185753560Y-121171500D01*
X185753560Y-120917500D01*
X185773560Y-120917500D01*
X185773560Y-120118250D01*
X186027560Y-120118250D01*
X186027560Y-120917500D01*
X186776810Y-120917500D01*
X186935560Y-120758750D01*
X186938632Y-120594500D01*
X186926372Y-120470018D01*
X186890062Y-120350320D01*
X186831097Y-120240006D01*
X186751745Y-120143315D01*
X186655054Y-120063963D01*
X186544740Y-120004998D01*
X186425042Y-119968688D01*
X186300560Y-119956428D01*
X186186310Y-119959500D01*
X186027560Y-120118250D01*
X185773560Y-120118250D01*
X185688953Y-120033643D01*
X185705054Y-120025037D01*
X185801745Y-119945685D01*
X185881097Y-119848994D01*
X185940062Y-119738680D01*
X185976372Y-119618982D01*
X185988632Y-119494500D01*
X185988632Y-118594500D01*
X185976372Y-118470018D01*
X185940062Y-118350320D01*
X185881097Y-118240006D01*
X185801745Y-118143315D01*
X185709920Y-118067956D01*
X185709920Y-116399714D01*
X185778933Y-116362826D01*
X186005054Y-116177254D01*
X186057143Y-116113783D01*
X186111515Y-116215506D01*
X186221958Y-116350082D01*
X186356534Y-116460525D01*
X186510070Y-116542592D01*
X186676666Y-116593128D01*
X186849920Y-116610192D01*
X188049920Y-116610192D01*
X188223174Y-116593128D01*
X188294239Y-116571571D01*
X188614990Y-116892323D01*
X188614991Y-123786971D01*
X187910750Y-123790000D01*
X187752000Y-123948750D01*
X187752000Y-125148000D01*
X187772000Y-125148000D01*
X187772000Y-125402000D01*
X187752000Y-125402000D01*
X187752000Y-125422000D01*
X187498000Y-125422000D01*
X187498000Y-125402000D01*
X186148750Y-125402000D01*
X185990000Y-125560750D01*
X185986928Y-126125000D01*
X185999188Y-126249482D01*
X186035498Y-126369180D01*
X186094463Y-126479494D01*
X186173815Y-126576185D01*
X186270506Y-126655537D01*
X186380820Y-126714502D01*
X186415608Y-126725055D01*
X186234294Y-126945986D01*
X186096401Y-127203966D01*
X186011487Y-127483889D01*
X185982815Y-127775000D01*
X186011487Y-128066111D01*
X186096401Y-128346034D01*
X186234294Y-128604014D01*
X186419866Y-128830134D01*
X186645986Y-129015706D01*
X186903966Y-129153599D01*
X187183889Y-129238513D01*
X187402050Y-129260000D01*
X187847950Y-129260000D01*
X188066111Y-129238513D01*
X188346034Y-129153599D01*
X188604014Y-129015706D01*
X188614990Y-129006698D01*
X188614990Y-133602689D01*
X188404630Y-133392329D01*
X188370947Y-133281291D01*
X188289458Y-133128836D01*
X188179792Y-132995208D01*
X188094244Y-132925000D01*
X188179792Y-132854792D01*
X188289458Y-132721164D01*
X188370947Y-132568709D01*
X188421128Y-132403285D01*
X188438072Y-132231250D01*
X188438072Y-131743750D01*
X188421128Y-131571715D01*
X188370947Y-131406291D01*
X188289458Y-131253836D01*
X188179792Y-131120208D01*
X188046164Y-131010542D01*
X187954170Y-130961370D01*
X188020226Y-130801898D01*
X188060000Y-130601939D01*
X188060000Y-130398061D01*
X188020226Y-130198102D01*
X187942205Y-130009744D01*
X187828937Y-129840226D01*
X187684774Y-129696063D01*
X187515256Y-129582795D01*
X187326898Y-129504774D01*
X187126939Y-129465000D01*
X186923061Y-129465000D01*
X186723102Y-129504774D01*
X186534744Y-129582795D01*
X186365226Y-129696063D01*
X186221063Y-129840226D01*
X186107795Y-130009744D01*
X186029774Y-130198102D01*
X185990000Y-130398061D01*
X185990000Y-130601939D01*
X186029774Y-130801898D01*
X186107795Y-130990256D01*
X186132855Y-131027761D01*
X186020208Y-131120208D01*
X185910542Y-131253836D01*
X185829053Y-131406291D01*
X185778872Y-131571715D01*
X185761928Y-131743750D01*
X185761928Y-132231250D01*
X185778872Y-132403285D01*
X185829053Y-132568709D01*
X185910542Y-132721164D01*
X186020208Y-132854792D01*
X186105756Y-132925000D01*
X186020208Y-132995208D01*
X185910542Y-133128836D01*
X185829053Y-133281291D01*
X185778872Y-133446715D01*
X185761928Y-133618750D01*
X185761928Y-134106250D01*
X185778872Y-134278285D01*
X185829053Y-134443709D01*
X185910542Y-134596164D01*
X185993220Y-134696907D01*
X185933740Y-134695308D01*
X185809258Y-134707568D01*
X185689560Y-134743878D01*
X185579246Y-134802843D01*
X185482555Y-134882195D01*
X185403203Y-134978886D01*
X185344238Y-135089200D01*
X185307928Y-135208898D01*
X185295668Y-135333380D01*
X185298740Y-135497630D01*
X185457490Y-135656380D01*
X186206740Y-135656380D01*
X186206740Y-135636380D01*
X186460740Y-135636380D01*
X186460740Y-135656380D01*
X186480740Y-135656380D01*
X186480740Y-135910380D01*
X186460740Y-135910380D01*
X186460740Y-136709630D01*
X186545347Y-136794237D01*
X186529246Y-136802843D01*
X186432555Y-136882195D01*
X186353203Y-136978886D01*
X186294238Y-137089200D01*
X186257928Y-137208898D01*
X186245668Y-137333380D01*
X186245668Y-138233380D01*
X186257928Y-138357862D01*
X186294238Y-138477560D01*
X186353203Y-138587874D01*
X186432555Y-138684565D01*
X186523740Y-138759399D01*
X186523741Y-140362660D01*
X186506166Y-140372054D01*
X186280046Y-140557626D01*
X186227957Y-140621097D01*
X186173585Y-140519374D01*
X186063142Y-140384798D01*
X185928566Y-140274355D01*
X185775030Y-140192288D01*
X185608434Y-140141752D01*
X185435180Y-140124688D01*
X184235180Y-140124688D01*
X184061926Y-140141752D01*
X183895330Y-140192288D01*
X183741794Y-140274355D01*
X183607218Y-140384798D01*
X183496775Y-140519374D01*
X183414708Y-140672910D01*
X183364172Y-140839506D01*
X183347108Y-141012760D01*
X183347108Y-142512760D01*
X183348585Y-142527760D01*
X183113543Y-142527760D01*
X182874944Y-142575220D01*
X182650188Y-142668317D01*
X182447913Y-142803473D01*
X182275893Y-142975493D01*
X182140737Y-143177768D01*
X182047640Y-143402524D01*
X182000180Y-143641123D01*
X182000180Y-143884397D01*
X182047640Y-144122996D01*
X182140737Y-144347752D01*
X182275893Y-144550027D01*
X182447913Y-144722047D01*
X182650188Y-144857203D01*
X182874944Y-144950300D01*
X183113543Y-144997760D01*
X183356817Y-144997760D01*
X183595416Y-144950300D01*
X183820172Y-144857203D01*
X184022447Y-144722047D01*
X184194467Y-144550027D01*
X184329623Y-144347752D01*
X184422720Y-144122996D01*
X184450521Y-143983232D01*
X185605423Y-145138136D01*
X185640961Y-145181439D01*
X185684264Y-145216977D01*
X185684266Y-145216979D01*
X185712488Y-145240140D01*
X149400359Y-145240140D01*
X149870670Y-144992555D01*
X149911088Y-144965548D01*
X150271276Y-144475881D01*
X147750000Y-141954605D01*
X145228724Y-144475881D01*
X145588912Y-144965548D01*
X146094936Y-145240140D01*
X144208100Y-145240140D01*
X144208100Y-143279546D01*
X144532445Y-143895670D01*
X144559452Y-143936088D01*
X145049119Y-144296276D01*
X147570395Y-141775000D01*
X147929605Y-141775000D01*
X150450881Y-144296276D01*
X150940548Y-143936088D01*
X151300849Y-143272118D01*
X151424655Y-142873061D01*
X165440000Y-142873061D01*
X165440000Y-143076939D01*
X165479774Y-143276898D01*
X165557795Y-143465256D01*
X165671063Y-143634774D01*
X165815226Y-143778937D01*
X165984744Y-143892205D01*
X166173102Y-143970226D01*
X166373061Y-144010000D01*
X166576939Y-144010000D01*
X166776898Y-143970226D01*
X166965256Y-143892205D01*
X167134774Y-143778937D01*
X167178711Y-143735000D01*
X167234556Y-143735000D01*
X167320506Y-143805537D01*
X167430820Y-143864502D01*
X167550518Y-143900812D01*
X167675000Y-143913072D01*
X168075000Y-143913072D01*
X168199482Y-143900812D01*
X168319180Y-143864502D01*
X168349041Y-143848541D01*
X168365751Y-143858032D01*
X168484476Y-143897406D01*
X168593250Y-143910000D01*
X168752000Y-143751250D01*
X168752000Y-143102000D01*
X168898000Y-143102000D01*
X168898000Y-143751250D01*
X169056750Y-143910000D01*
X169165524Y-143897406D01*
X169284249Y-143858032D01*
X169393012Y-143796252D01*
X169487631Y-143714441D01*
X169564473Y-143615742D01*
X169620582Y-143503949D01*
X169653804Y-143383357D01*
X169660000Y-143260750D01*
X169501250Y-143102000D01*
X168898000Y-143102000D01*
X168752000Y-143102000D01*
X168713072Y-143102000D01*
X168713072Y-143010462D01*
X169150000Y-143013072D01*
X169274482Y-143000812D01*
X169394180Y-142964502D01*
X169504494Y-142905537D01*
X169601185Y-142826185D01*
X169680537Y-142729494D01*
X169739502Y-142619180D01*
X169775812Y-142499482D01*
X169788072Y-142375000D01*
X169785000Y-142310750D01*
X169626250Y-142152000D01*
X169389935Y-142152000D01*
X169284249Y-142091968D01*
X169165524Y-142052594D01*
X169056750Y-142040000D01*
X168944750Y-142152000D01*
X168705250Y-142152000D01*
X168593250Y-142040000D01*
X168484476Y-142052594D01*
X168365751Y-142091968D01*
X168349041Y-142101459D01*
X168319180Y-142085498D01*
X168199482Y-142049188D01*
X168075000Y-142036928D01*
X167675000Y-142036928D01*
X167550518Y-142049188D01*
X167430820Y-142085498D01*
X167320506Y-142144463D01*
X167311322Y-142152000D01*
X167106244Y-142152000D01*
X166965256Y-142057795D01*
X166776898Y-141979774D01*
X166576939Y-141940000D01*
X166373061Y-141940000D01*
X166173102Y-141979774D01*
X165984744Y-142057795D01*
X165815226Y-142171063D01*
X165671063Y-142315226D01*
X165557795Y-142484744D01*
X165479774Y-142673102D01*
X165440000Y-142873061D01*
X151424655Y-142873061D01*
X151524694Y-142550615D01*
X151603480Y-141799305D01*
X151534178Y-141047062D01*
X151319452Y-140322792D01*
X150967555Y-139654330D01*
X150940548Y-139613912D01*
X150450881Y-139253724D01*
X147929605Y-141775000D01*
X147570395Y-141775000D01*
X145049119Y-139253724D01*
X144559452Y-139613912D01*
X144208100Y-140261391D01*
X144208100Y-139074119D01*
X145228724Y-139074119D01*
X147750000Y-141595395D01*
X150271276Y-139074119D01*
X149911088Y-138584452D01*
X149247118Y-138224151D01*
X148525615Y-138000306D01*
X147774305Y-137921520D01*
X147022062Y-137990822D01*
X146297792Y-138205548D01*
X145629330Y-138557445D01*
X145588912Y-138584452D01*
X145228724Y-139074119D01*
X144208100Y-139074119D01*
X144208100Y-118725881D01*
X145553724Y-118725881D01*
X145913912Y-119215548D01*
X146577882Y-119575849D01*
X147299385Y-119799694D01*
X148050695Y-119878480D01*
X148802938Y-119809178D01*
X149224262Y-119684267D01*
X153433680Y-119684267D01*
X153507558Y-119965830D01*
X153634947Y-120227570D01*
X153810951Y-120459429D01*
X154028807Y-120652496D01*
X154280142Y-120799352D01*
X154543110Y-120891476D01*
X154773000Y-120770155D01*
X154773000Y-119452000D01*
X153573835Y-119452000D01*
X153433680Y-119684267D01*
X149224262Y-119684267D01*
X149527208Y-119594452D01*
X150195670Y-119242555D01*
X150236088Y-119215548D01*
X150419846Y-118965733D01*
X153433680Y-118965733D01*
X153573835Y-119198000D01*
X154773000Y-119198000D01*
X154773000Y-117879845D01*
X154543110Y-117758524D01*
X154280142Y-117850648D01*
X154028807Y-117997504D01*
X153810951Y-118190571D01*
X153634947Y-118422430D01*
X153507558Y-118684170D01*
X153433680Y-118965733D01*
X150419846Y-118965733D01*
X150596276Y-118725881D01*
X148075000Y-116204605D01*
X145553724Y-118725881D01*
X144208100Y-118725881D01*
X144208100Y-116000695D01*
X144221520Y-116000695D01*
X144290822Y-116752938D01*
X144505548Y-117477208D01*
X144857445Y-118145670D01*
X144884452Y-118186088D01*
X145374119Y-118546276D01*
X147895395Y-116025000D01*
X148254605Y-116025000D01*
X150775881Y-118546276D01*
X151265548Y-118186088D01*
X151625849Y-117522118D01*
X151849694Y-116800615D01*
X151928480Y-116049305D01*
X151859178Y-115297062D01*
X151644452Y-114572792D01*
X151292555Y-113904330D01*
X151265548Y-113863912D01*
X150775881Y-113503724D01*
X148254605Y-116025000D01*
X147895395Y-116025000D01*
X145374119Y-113503724D01*
X144884452Y-113863912D01*
X144524151Y-114527882D01*
X144300306Y-115249385D01*
X144221520Y-116000695D01*
X144208100Y-116000695D01*
X144208100Y-113324119D01*
X145553724Y-113324119D01*
X148075000Y-115845395D01*
X150596276Y-113324119D01*
X150236088Y-112834452D01*
X149572118Y-112474151D01*
X148850615Y-112250306D01*
X148099305Y-112171520D01*
X147347062Y-112240822D01*
X146622792Y-112455548D01*
X145954330Y-112807445D01*
X145913912Y-112834452D01*
X145553724Y-113324119D01*
X144208100Y-113324119D01*
X144208100Y-111741820D01*
X188904654Y-111741820D01*
X188689684Y-111784580D01*
G36*
X152172095Y-128103227D02*
G01*
X152165000Y-128168250D01*
X152197247Y-128200497D01*
X152210498Y-128244180D01*
X152269463Y-128354494D01*
X152327326Y-128425000D01*
X152269463Y-128495506D01*
X152210498Y-128605820D01*
X152197247Y-128649503D01*
X152165000Y-128681750D01*
X152172095Y-128746773D01*
X152161928Y-128850000D01*
X152161928Y-129070674D01*
X152125724Y-129090026D01*
X152009999Y-129184999D01*
X151986201Y-129213997D01*
X150868720Y-130331479D01*
X150868720Y-129299341D01*
X152162478Y-128005584D01*
X152172095Y-128103227D01*
G37*
X152172095Y-128103227D02*
X152165000Y-128168250D01*
X152197247Y-128200497D01*
X152210498Y-128244180D01*
X152269463Y-128354494D01*
X152327326Y-128425000D01*
X152269463Y-128495506D01*
X152210498Y-128605820D01*
X152197247Y-128649503D01*
X152165000Y-128681750D01*
X152172095Y-128746773D01*
X152161928Y-128850000D01*
X152161928Y-129070674D01*
X152125724Y-129090026D01*
X152009999Y-129184999D01*
X151986201Y-129213997D01*
X150868720Y-130331479D01*
X150868720Y-129299341D01*
X152162478Y-128005584D01*
X152172095Y-128103227D01*
G36*
X175694463Y-114620506D02*
G01*
X175635498Y-114730820D01*
X175599188Y-114850518D01*
X175586928Y-114975000D01*
X175590000Y-115089250D01*
X175748750Y-115248000D01*
X176548000Y-115248000D01*
X176548000Y-115228000D01*
X176802000Y-115228000D01*
X176802000Y-115248000D01*
X177601250Y-115248000D01*
X177760000Y-115089250D01*
X177763072Y-114975000D01*
X177750812Y-114850518D01*
X177714502Y-114730820D01*
X177655537Y-114620506D01*
X177629976Y-114589360D01*
X177937280Y-114589360D01*
X177937281Y-115358771D01*
X177870506Y-115394463D01*
X177773815Y-115473815D01*
X177694463Y-115570506D01*
X177685857Y-115586607D01*
X177601250Y-115502000D01*
X176802000Y-115502000D01*
X176802000Y-115522000D01*
X176548000Y-115522000D01*
X176548000Y-115502000D01*
X175748750Y-115502000D01*
X175590000Y-115660750D01*
X175586928Y-115775000D01*
X175599188Y-115899482D01*
X175635498Y-116019180D01*
X175694463Y-116129494D01*
X175773815Y-116226185D01*
X175870506Y-116305537D01*
X175906918Y-116325000D01*
X175870506Y-116344463D01*
X175773815Y-116423815D01*
X175708222Y-116503740D01*
X175273762Y-116503740D01*
X174372688Y-115602666D01*
X174374982Y-115595103D01*
X174394104Y-115498970D01*
X174406364Y-115374489D01*
X174406364Y-115349930D01*
X174408772Y-115325480D01*
X174408772Y-114825480D01*
X174396512Y-114700998D01*
X174388771Y-114675480D01*
X174396512Y-114649962D01*
X174402481Y-114589360D01*
X175720024Y-114589360D01*
X175694463Y-114620506D01*
G37*
X175694463Y-114620506D02*
X175635498Y-114730820D01*
X175599188Y-114850518D01*
X175586928Y-114975000D01*
X175590000Y-115089250D01*
X175748750Y-115248000D01*
X176548000Y-115248000D01*
X176548000Y-115228000D01*
X176802000Y-115228000D01*
X176802000Y-115248000D01*
X177601250Y-115248000D01*
X177760000Y-115089250D01*
X177763072Y-114975000D01*
X177750812Y-114850518D01*
X177714502Y-114730820D01*
X177655537Y-114620506D01*
X177629976Y-114589360D01*
X177937280Y-114589360D01*
X177937281Y-115358771D01*
X177870506Y-115394463D01*
X177773815Y-115473815D01*
X177694463Y-115570506D01*
X177685857Y-115586607D01*
X177601250Y-115502000D01*
X176802000Y-115502000D01*
X176802000Y-115522000D01*
X176548000Y-115522000D01*
X176548000Y-115502000D01*
X175748750Y-115502000D01*
X175590000Y-115660750D01*
X175586928Y-115775000D01*
X175599188Y-115899482D01*
X175635498Y-116019180D01*
X175694463Y-116129494D01*
X175773815Y-116226185D01*
X175870506Y-116305537D01*
X175906918Y-116325000D01*
X175870506Y-116344463D01*
X175773815Y-116423815D01*
X175708222Y-116503740D01*
X175273762Y-116503740D01*
X174372688Y-115602666D01*
X174374982Y-115595103D01*
X174394104Y-115498970D01*
X174406364Y-115374489D01*
X174406364Y-115349930D01*
X174408772Y-115325480D01*
X174408772Y-114825480D01*
X174396512Y-114700998D01*
X174388771Y-114675480D01*
X174396512Y-114649962D01*
X174402481Y-114589360D01*
X175720024Y-114589360D01*
X175694463Y-114620506D01*
%TD*%
M02*
